<svg xmlns="http://www.w3.org/2000/svg" viewBox="0 0 1991.83 54.28"><defs><style>.cls-1{fill:#231f20;}</style></defs><title>Asset 25</title><g id="Layer_2" data-name="Layer 2"><g id="Layer_1-2" data-name="Layer 1"><path class="cls-1" d="M2.41,53.57c31.64.07,63.32,1.91,94.9-.64,32.68-2.64,65.23-6.79,97.83-10.34,65.74-7.15,132.09-12.38,198.12-15.84,64.52-3.38,130.17-4.49,194.69-.82,32.23,1.83,64.17,6.71,96.2,10.46s64.35,5.4,96.66,6.22a1528.43,1528.43,0,0,0,192.2-7c65.09-6.57,129.91-13.73,195.24-17.73C1297.79,9.91,1428,4.87,1557.76,5.2c66.32.17,132.18,7,198.26,11.88,62.48,4.59,125.36,9,187.68.54,15.55-2.11,31-4.85,46.33-8.09,3.15-.66,1.81-5.48-1.33-4.82-31.56,6.67-63.93,11.61-96.22,12.69-31.72,1.05-63.77-.47-95.42-2.57C1731.7,10.5,1666.37,3.24,1600.89,1c-65.14-2.27-130.57,0-195.7,1.71Q1308,5.19,1210.92,10.42c-64.63,3.41-129.24,7.87-193.56,15.15-64,7.24-127.81,12.41-192.25,12.56q-48.33.12-96.62-2.68c-32.23-1.92-64.15-6.72-96.2-10.46C568,17.47,503.08,19.05,438.45,20.16c-73.23,1.27-147,7.8-219.83,15-36.55,3.61-73,8.34-109.55,11.74-35.58,3.31-71,1.77-106.66,1.69-3.21,0-3.22,5,0,5Z"/></g></g></svg>