<svg xmlns="http://www.w3.org/2000/svg" viewBox="0 0 1671.29 144.43"><defs><style>.cls-1{fill:#231f20;}</style></defs><title>Asset 24</title><g id="Layer_2" data-name="Layer 2"><g id="Layer_1-2" data-name="Layer 1"><path class="cls-1" d="M2.41,99.72c13.27-.08,26.5.53,39.73-.88C54.62,97.5,67,95.48,79.38,93.23c26.93-4.9,53.73-10.42,80.8-14.56,56.18-8.61,113.49-9,170.21-8,27.15.51,54.32,2,81.26,5.48,28,3.62,55.25,10.14,82.45,17.62,52.54,14.44,104.4,32.15,158.39,40.38A896.13,896.13,0,0,0,814.41,144c54.69-1.68,109.34-11.33,162.82-22.4,108.86-22.53,215.66-54,322.26-85.24C1352,21,1405.2,9.26,1460,5.52c27.18-1.86,54.63-.07,81.77,1.76,28.41,1.91,56.76,4.78,84.94,8.85q20.82,3,41.5,6.92c3.14.59,4.49-4.23,1.33-4.82C1615.58,8.1,1560.91,2.56,1506.13.38,1453-1.74,1398.46,5.22,1346.85,18.06c-53.54,13.31-106.23,30.46-159.31,45.51-53.32,15.13-106.88,29.4-160.86,42-55.13,12.86-110.79,24-167.11,30.17-55,6-111.27,4.22-166.26-1.37-27.93-2.84-55.94-6.79-83.27-13.34-26.53-6.37-52.62-14.55-78.86-22S478.5,83.6,451.7,77.92a560.76,560.76,0,0,0-79.76-10.54,1154.32,1154.32,0,0,0-167.68,1C149.54,72.79,96.58,88,42.14,93.84c-13.23,1.41-26.46.8-39.73.88-3.21,0-3.22,5,0,5Z"/></g></g></svg>