<svg xmlns="http://www.w3.org/2000/svg" viewBox="0 0 306.67 306.67"><defs><style>.cls-1{fill:none;}.cls-1,.cls-2{stroke:#231f20;stroke-miterlimit:10;stroke-width:10px;}.cls-2{fill:#fff;}.cls-3{fill:#231f20;}</style></defs><title>Asset 13</title><g id="Layer_2" data-name="Layer 2"><g id="Layer_1-2" data-name="Layer 1"><path class="cls-1" d="M196.05,280c-.27-.33-.53-.65-.77-1m-3.35-4.57-59.09-78.62h0"/><path class="cls-2" d="M243.48,301.53c44.41-.69,72.61-50.38,50.49-88.87a59.59,59.59,0,0,0-52-30.44H139.64a8.5,8.5,0,0,0-6.8,13.61c5.09,6.64,10.62,16.82,20.33,16.22H183a5,5,0,0,1,4.67,6.62C169.62,257.84,200.44,303,243.48,301.53ZM239.2,271.6c-17.23-1.17-30.35-18.93-26.48-35.73,3.33-19.06,26.72-30,43.44-20.21a29.67,29.67,0,0,1,5.85,4.15C283.09,238.76,267.4,274.36,239.2,271.6Z"/><path class="cls-3" d="M185.49,249.41c-3.12-9.12-.11-18.83-.69-28.22,1.48-2.65.91-6.3-2.86-6.93a177.83,177.83,0,0,0-26.65-2.45c-4.46-.06-6.43,5.45-3.54,8.54,9.52,10.15,18.38,20.35,24.61,32.92C178.85,258.31,187.33,254.79,185.49,249.41Z"/><path class="cls-1" d="M110.63,203.8c.27.33.53.65.77,1m3.35,4.57c9.06,12,51,67.8,59.08,78.62h0"/><path class="cls-2" d="M63.2,182.25c-44.41.68-72.62,50.37-50.49,88.87a59.62,59.62,0,0,0,52,30.44H167a8.5,8.5,0,0,0,6.8-13.61c-5.09-6.64-10.61-16.82-20.32-16.22H123.63a5,5,0,0,1-4.67-6.62C137.06,225.93,106.24,180.81,63.2,182.25Zm4.28,29.93C84.7,213.34,97.83,231.11,94,247.91c-3.33,19.06-26.72,30-43.44,20.21A30.52,30.52,0,0,1,44.67,264C23.59,245,39.28,209.42,67.48,212.18Z"/><path class="cls-3" d="M121.18,234.36c3.12,9.13.12,18.83.69,28.23-1.47,2.64-.9,6.3,2.87,6.92A177.59,177.59,0,0,0,151.39,272c4.46.07,6.43-5.44,3.54-8.53-9.53-10.15-18.39-20.36-24.61-32.92C127.83,225.47,119.35,229,121.18,234.36Z"/><path class="cls-1" d="M196,102.87c-.27-.33-.53-.65-.77-1m-3.35-4.57c-9.06-12.06-51-67.8-59.08-78.62h0"/><path class="cls-2" d="M243.47,124.42C287.88,123.73,316.09,74,294,35.55a59.56,59.56,0,0,0-52-30.44H139.64a8.5,8.5,0,0,0-6.8,13.61c5.09,6.64,10.62,16.82,20.33,16.22H183a5,5,0,0,1,4.67,6.62C169.61,80.73,200.44,125.86,243.47,124.42Zm-4.28-29.93C222,93.32,208.84,75.56,212.71,58.76c3.33-19.06,26.72-30,43.44-20.21A29.67,29.67,0,0,1,262,42.7C283.09,61.65,267.39,97.25,239.19,94.49Z"/><path class="cls-3" d="M185.49,72.3c-3.12-9.12-.12-18.83-.69-28.22,1.48-2.65.9-6.3-2.87-6.93a177.59,177.59,0,0,0-26.65-2.45c-4.46-.06-6.43,5.45-3.53,8.54,9.52,10.15,18.38,20.35,24.6,32.92C178.85,81.2,187.32,77.68,185.49,72.3Z"/><path class="cls-1" d="M110.62,26.69c.27.33.53.65.77,1m3.35,4.57c9.07,12.06,51,67.8,59.09,78.62h0"/><path class="cls-2" d="M63.19,5.14C18.79,5.82-9.42,55.51,12.71,94a59.58,59.58,0,0,0,52,30.44H167a8.5,8.5,0,0,0,6.8-13.61C168.74,104.2,163.21,94,153.5,94.62H123.63A5,5,0,0,1,119,88C137.06,48.82,106.23,3.7,63.19,5.14Zm4.28,29.93C84.7,36.23,97.82,54,94,70.8c-3.33,19.06-26.71,30-43.44,20.21a30.84,30.84,0,0,1-5.85-4.15C23.58,67.91,39.27,32.31,67.47,35.07Z"/><path class="cls-3" d="M121.18,57.25c3.12,9.13.11,18.83.69,28.23-1.48,2.64-.91,6.3,2.87,6.92a177.59,177.59,0,0,0,26.65,2.45c4.45.07,6.43-5.44,3.53-8.53C145.4,76.17,136.54,66,130.32,53.4,127.82,48.36,119.35,51.88,121.18,57.25Z"/><path class="cls-1" d="M26.58,196l1-.77m4.57-3.35c12.06-9.06,67.8-51,78.62-59.08h0"/><path class="cls-2" d="M5,243.47C5.72,287.88,55.41,316.09,93.9,294a59.56,59.56,0,0,0,30.44-52V139.64a8.5,8.5,0,0,0-13.61-6.8c-6.64,5.09-16.82,10.62-16.22,20.33V183a5,5,0,0,1-6.62,4.67C48.72,169.61,3.6,200.44,5,243.47ZM35,239.19c1.17-17.22,18.93-30.35,35.73-26.48,19.06,3.33,30,26.72,20.21,43.44A29.67,29.67,0,0,1,86.75,262C67.8,283.09,32.2,267.39,35,239.19Z"/><path class="cls-3" d="M57.15,185.49c9.13-3.12,18.83-.12,28.22-.69,2.65,1.48,6.31.9,6.93-2.87a177.59,177.59,0,0,0,2.45-26.65c.07-4.46-5.45-6.43-8.53-3.53-10.16,9.52-20.36,18.38-32.93,24.6C48.26,178.85,51.77,187.32,57.15,185.49Z"/><path class="cls-1" d="M102.76,110.62l-1,.77m-4.57,3.35c-12,9.07-67.8,51-78.61,59.09h0"/><path class="cls-2" d="M124.31,63.19c-.68-44.4-50.37-72.61-88.87-50.48A59.6,59.6,0,0,0,5,64.73V167a8.51,8.51,0,0,0,13.62,6.8c6.63-5.09,16.81-10.62,16.21-20.33V123.63A5,5,0,0,1,41.45,119C80.63,137.06,125.75,106.23,124.31,63.19ZM94.38,67.47C93.22,84.7,75.45,97.82,58.65,94c-19-3.33-29.95-26.71-20.21-43.44a30.84,30.84,0,0,1,4.15-5.85C61.54,23.58,97.15,39.27,94.38,67.47Z"/><path class="cls-3" d="M72.2,121.18c-9.13,3.12-18.83.11-28.23.69-2.64-1.48-6.3-.91-6.92,2.87a177.59,177.59,0,0,0-2.45,26.65c-.07,4.45,5.44,6.43,8.53,3.53,10.16-9.52,20.36-18.38,32.92-24.6C81.09,127.82,77.57,119.35,72.2,121.18Z"/><path class="cls-1" d="M203.8,196l1-.77m4.57-3.35c12-9.06,67.8-51,78.62-59.08h0"/><path class="cls-2" d="M182.25,243.47c.68,44.41,50.37,72.62,88.87,50.49a59.6,59.6,0,0,0,30.44-52V139.64a8.5,8.5,0,0,0-13.61-6.8c-6.64,5.09-16.82,10.62-16.22,20.33V183a5,5,0,0,1-6.62,4.67C225.93,169.61,180.81,200.44,182.25,243.47Zm29.93-4.28c1.16-17.22,18.93-30.35,35.73-26.48,19.06,3.33,30,26.72,20.21,43.44A30.52,30.52,0,0,1,264,262C245,283.09,209.42,267.39,212.18,239.19Z"/><path class="cls-3" d="M234.36,185.49c9.13-3.12,18.83-.12,28.23-.69,2.64,1.48,6.3.9,6.92-2.87A177.59,177.59,0,0,0,272,155.28c.07-4.46-5.44-6.43-8.53-3.53-10.15,9.52-20.36,18.38-32.92,24.6C225.47,178.85,229,187.32,234.36,185.49Z"/><path class="cls-1" d="M280,110.62l-1,.77m-4.57,3.35c-12.06,9.07-67.8,51-78.62,59.09h0"/><path class="cls-2" d="M301.53,63.19c-.69-44.4-50.38-72.61-88.87-50.48a59.56,59.56,0,0,0-30.44,52V167a8.5,8.5,0,0,0,13.61,6.8c6.64-5.09,16.82-10.62,16.22-20.33V123.63a5,5,0,0,1,6.62-4.67C257.84,137.06,303,106.23,301.53,63.19ZM271.6,67.47C270.43,84.7,252.67,97.82,235.87,94c-19.06-3.33-30-26.71-20.21-43.44a30,30,0,0,1,4.15-5.85C238.76,23.58,274.36,39.27,271.6,67.47Z"/><path class="cls-3" d="M249.41,121.18c-9.12,3.12-18.83.11-28.22.69-2.65-1.48-6.3-.91-6.93,2.87a177.59,177.59,0,0,0-2.45,26.65c-.06,4.45,5.45,6.43,8.54,3.53,10.15-9.52,20.35-18.38,32.92-24.6C258.31,127.82,254.79,119.35,249.41,121.18Z"/></g></g></svg>