<svg xmlns="http://www.w3.org/2000/svg" viewBox="0 0 487.42 484.1"><defs><style>.cls-1{fill:none;}.cls-1,.cls-2{stroke:#231f20;stroke-miterlimit:10;stroke-width:10px;}.cls-2{fill:#fff;}.cls-3{fill:#231f20;}</style></defs><title>Asset 14</title><g id="Layer_2" data-name="Layer 2"><g id="Layer_1-2" data-name="Layer 1"><path class="cls-1" d="M374.83,280.31c-.27-.33-.53-.65-.77-1m-3.35-4.57c-9.06-12.06-51-67.8-59.08-78.62h0"/><path class="cls-2" d="M422.26,301.86c44.41-.69,72.62-50.38,50.49-88.87a59.59,59.59,0,0,0-52-30.44H318.43a8.5,8.5,0,0,0-6.8,13.61c5.09,6.64,10.61,16.82,20.32,16.22h29.88A5,5,0,0,1,366.5,219C348.4,258.17,379.22,303.3,422.26,301.86ZM418,271.93c-17.22-1.17-30.35-18.93-26.48-35.73,3.33-19.06,26.72-30,43.44-20.21a29.67,29.67,0,0,1,5.85,4.15C461.87,239.09,446.18,274.69,418,271.93Z"/><path class="cls-3" d="M364.28,249.74c-3.13-9.12-.12-18.83-.69-28.22,1.47-2.65.9-6.3-2.87-6.93a177.59,177.59,0,0,0-26.65-2.45c-4.46-.06-6.43,5.45-3.54,8.54,9.53,10.15,18.39,20.35,24.61,32.92C357.63,258.64,366.11,255.12,364.28,249.74Z"/><path class="cls-1" d="M289.41,204.13c.27.33.53.65.77,1m3.35,4.57,59.09,78.62h0"/><path class="cls-2" d="M242,182.58c-44.41.68-72.61,50.37-50.49,88.87a59.63,59.63,0,0,0,52,30.44h102.3a8.5,8.5,0,0,0,6.8-13.61c-5.09-6.64-10.62-16.82-20.33-16.22H302.42a5,5,0,0,1-4.67-6.62C315.84,226.26,285,181.14,242,182.58Zm4.28,29.93c17.23,1.16,30.35,18.93,26.48,35.73-3.33,19.06-26.72,29.95-43.44,20.21a30.52,30.52,0,0,1-5.85-4.15C202.37,245.35,218.06,209.75,246.26,212.51Z"/><path class="cls-3" d="M300,234.69c3.12,9.13.11,18.83.69,28.23-1.48,2.64-.91,6.3,2.86,6.92a177.83,177.83,0,0,0,26.65,2.45c4.46.07,6.43-5.44,3.54-8.53-9.52-10.15-18.38-20.36-24.61-32.92C306.61,225.8,298.13,229.32,300,234.69Z"/><path class="cls-1" d="M373.52,457.31c-.27-.33-.53-.65-.77-1m-3.35-4.57c-9.06-12.06-51-67.8-59.08-78.62h0"/><path class="cls-2" d="M421,478.86c44.41-.69,72.62-50.38,50.49-88.87a59.56,59.56,0,0,0-52-30.44H317.12a8.5,8.5,0,0,0-6.8,13.61c5.09,6.64,10.62,16.82,20.33,16.22h29.87a5,5,0,0,1,4.67,6.61C347.09,435.17,377.92,480.29,421,478.86Zm-4.28-29.93c-17.22-1.17-30.34-18.93-26.47-35.73,3.33-19.06,26.71-30,43.43-20.21a29.38,29.38,0,0,1,5.85,4.15C460.57,416.08,444.88,451.69,416.67,448.93Z"/><path class="cls-3" d="M363,426.74c-3.12-9.13-.11-18.83-.69-28.22,1.48-2.65.91-6.31-2.87-6.93a177.59,177.59,0,0,0-26.65-2.45c-4.45-.07-6.43,5.45-3.53,8.53,9.52,10.16,18.38,20.36,24.6,32.92C356.33,435.63,364.8,432.12,363,426.74Z"/><path class="cls-1" d="M288.11,381.13c.27.33.53.65.77,1m3.35,4.57,59.08,78.61h0"/><path class="cls-2" d="M240.68,359.58c-44.41.68-72.62,50.37-50.49,88.87a59.6,59.6,0,0,0,52,30.44H344.51a8.51,8.51,0,0,0,6.8-13.62c-5.09-6.63-10.62-16.82-20.33-16.21H301.11a5,5,0,0,1-4.67-6.62C314.54,403.26,283.71,358.14,240.68,359.58ZM245,389.51c17.22,1.16,30.35,18.93,26.48,35.73-3.34,19.05-26.72,29.95-43.44,20.21a30.52,30.52,0,0,1-5.85-4.15C201.06,422.35,216.75,386.74,245,389.51Z"/><path class="cls-3" d="M298.66,411.69c3.12,9.13.12,18.83.69,28.23-1.48,2.64-.9,6.3,2.87,6.92a177.59,177.59,0,0,0,26.65,2.45c4.45.07,6.43-5.45,3.53-8.53-9.52-10.16-18.38-20.36-24.6-32.92C305.3,402.8,296.83,406.32,298.66,411.69Z"/><path class="cls-1" d="M381.39,373.48l1-.77m4.57-3.35,78.61-59.08h0"/><path class="cls-2" d="M359.84,420.91c.68,44.41,50.37,72.62,88.87,50.49a59.63,59.63,0,0,0,30.44-52V317.07a8.5,8.5,0,0,0-13.62-6.79c-6.63,5.09-16.82,10.61-16.21,20.32v29.87a5,5,0,0,1-6.62,4.67C403.52,347.05,358.4,377.87,359.84,420.91Zm29.93-4.28c1.16-17.22,18.93-30.35,35.73-26.48,19.05,3.33,29.95,26.72,20.21,43.44a30.52,30.52,0,0,1-4.15,5.85C422.61,460.52,387,444.83,389.77,416.63Z"/><path class="cls-3" d="M412,362.93c9.13-3.13,18.83-.12,28.22-.7,2.65,1.48,6.31.91,6.93-2.86a177.71,177.71,0,0,0,2.45-26.65c.07-4.46-5.45-6.43-8.53-3.54-10.16,9.52-20.36,18.39-32.92,24.61C403.06,356.28,406.58,364.76,412,362.93Z"/><path class="cls-1" d="M457.57,288.06l-1,.77M452,292.18c-12.06,9.06-67.8,51-78.62,59.08h0"/><path class="cls-2" d="M479.12,240.63c-.69-44.41-50.38-72.62-88.87-50.49a59.59,59.59,0,0,0-30.44,52v102.3a8.5,8.5,0,0,0,13.61,6.79c6.64-5.09,16.82-10.61,16.22-20.32V301.07a5,5,0,0,1,6.61-4.67C435.43,314.49,480.55,283.67,479.12,240.63Zm-29.93,4.28c-1.17,17.22-18.93,30.35-35.73,26.48-19.06-3.33-30-26.72-20.21-43.44a29.67,29.67,0,0,1,4.15-5.85C416.34,201,452,216.71,449.19,244.91Z"/><path class="cls-3" d="M427,298.61c-9.13,3.13-18.83.12-28.22.7-2.65-1.48-6.31-.91-6.93,2.86a177.71,177.71,0,0,0-2.45,26.65c-.07,4.46,5.45,6.43,8.53,3.54,10.16-9.52,20.36-18.39,32.92-24.61C435.89,305.26,432.38,296.78,427,298.61Z"/><path class="cls-1" d="M205.48,373.37l1-.77m4.57-3.35c12.06-9.06,67.8-51,78.62-59.08h0"/><path class="cls-2" d="M183.93,420.8c.69,44.41,50.37,72.62,88.87,50.49a59.6,59.6,0,0,0,30.44-52V317a8.5,8.5,0,0,0-13.61-6.8c-6.64,5.09-16.82,10.62-16.22,20.33v29.87a5,5,0,0,1-6.62,4.67C227.62,346.94,182.49,377.76,183.93,420.8Zm29.93-4.28C215,399.3,232.79,386.17,249.59,390c19.06,3.33,30,26.72,20.21,43.44a30.09,30.09,0,0,1-4.15,5.85C246.7,460.42,211.1,444.72,213.86,416.52Z"/><path class="cls-3" d="M236,362.82c9.13-3.12,18.83-.12,28.23-.69,2.64,1.48,6.3.9,6.93-2.87a178.91,178.91,0,0,0,2.45-26.65c.06-4.46-5.45-6.43-8.54-3.53-10.15,9.52-20.36,18.38-32.92,24.6C227.15,356.18,230.67,364.65,236,362.82Z"/><path class="cls-1" d="M281.66,288l-1,.77m-4.57,3.35-78.62,59.09h0"/><path class="cls-2" d="M303.21,240.52c-.69-44.41-50.38-72.61-88.87-50.49a59.59,59.59,0,0,0-30.44,52v102.3a8.5,8.5,0,0,0,13.61,6.8c6.64-5.09,16.82-10.62,16.22-20.33V301a5,5,0,0,1,6.62-4.67C259.52,314.38,304.65,283.56,303.21,240.52Zm-29.93,4.28c-1.16,17.23-18.93,30.35-35.73,26.48-19.06-3.33-30-26.71-20.21-43.44a30.09,30.09,0,0,1,4.15-5.85C240.44,200.91,276,216.6,273.28,244.8Z"/><path class="cls-3" d="M251.1,298.51c-9.13,3.12-18.83.11-28.23.69-2.65-1.48-6.3-.91-6.93,2.86a179.15,179.15,0,0,0-2.45,26.65c-.06,4.46,5.45,6.43,8.54,3.54,10.15-9.52,20.36-18.38,32.92-24.6C260,305.15,256.47,296.67,251.1,298.51Z"/><path class="cls-1" d="M376.79,103.09c-.27-.33-.53-.65-.77-1m-3.35-4.57c-9.06-12.06-51-67.8-59.08-78.62h0"/><path class="cls-2" d="M424.22,124.64c44.41-.69,72.62-50.38,50.49-88.87a59.6,59.6,0,0,0-52-30.44H320.39a8.5,8.5,0,0,0-6.8,13.61c5.09,6.64,10.62,16.82,20.33,16.22h29.87a5,5,0,0,1,4.67,6.62C350.36,81,381.19,126.08,424.22,124.64Zm-4.28-29.93C402.72,93.55,389.59,75.78,393.46,59c3.33-19.06,26.72-30,43.44-20.21a30.09,30.09,0,0,1,5.85,4.15C463.84,61.87,448.14,97.47,419.94,94.71Z"/><path class="cls-3" d="M366.24,72.53c-3.12-9.13-.12-18.83-.69-28.23,1.48-2.64.9-6.3-2.87-6.93A178.91,178.91,0,0,0,336,34.92c-4.46-.06-6.43,5.45-3.53,8.54,9.52,10.15,18.38,20.36,24.6,32.92C359.6,81.42,368.07,77.9,366.24,72.53Z"/><path class="cls-1" d="M291.37,26.91c.27.33.53.65.77,1m3.35,4.57c9.07,12.06,51,67.8,59.09,78.62h0"/><path class="cls-2" d="M243.94,5.36c-44.4.69-72.61,50.38-50.49,88.87a59.61,59.61,0,0,0,52,30.44h102.3a8.5,8.5,0,0,0,6.8-13.61c-5.09-6.64-10.62-16.82-20.33-16.22H304.38a5,5,0,0,1-4.67-6.62C317.81,49.05,287,3.92,243.94,5.36Zm4.28,29.93C265.45,36.45,278.57,54.22,274.7,71c-3.33,19.06-26.71,30-43.44,20.21a30.09,30.09,0,0,1-5.85-4.15C204.33,68.13,220,32.53,248.22,35.29Z"/><path class="cls-3" d="M301.93,57.47c3.12,9.13.11,18.83.69,28.23-1.48,2.64-.91,6.3,2.86,6.93a179.16,179.16,0,0,0,26.66,2.45c4.45.06,6.43-5.45,3.53-8.54-9.52-10.15-18.38-20.36-24.6-32.92C308.57,48.58,300.1,52.1,301.93,57.47Z"/><path class="cls-1" d="M375.49,280.09c-.27-.33-.53-.65-.77-1m-3.35-4.57-59.09-78.62h0"/><path class="cls-2" d="M422.92,301.64c44.4-.69,72.61-50.38,50.49-88.87a59.59,59.59,0,0,0-52-30.44H319.08a8.5,8.5,0,0,0-6.8,13.61c5.09,6.64,10.62,16.82,20.33,16.22h29.87a5,5,0,0,1,4.67,6.62C349.06,258,379.88,303.08,422.92,301.64Zm-4.28-29.93c-17.23-1.16-30.35-18.93-26.48-35.73,3.33-19.06,26.71-30,43.44-20.21a29.67,29.67,0,0,1,5.85,4.15C462.53,238.87,446.84,274.47,418.64,271.71Z"/><path class="cls-3" d="M364.93,249.52c-3.12-9.12-.11-18.82-.69-28.22,1.48-2.65.91-6.3-2.86-6.93a179.15,179.15,0,0,0-26.65-2.45c-4.46-.06-6.44,5.45-3.54,8.54,9.52,10.15,18.38,20.36,24.6,32.92C358.29,258.42,366.77,254.9,364.93,249.52Z"/><path class="cls-1" d="M290.07,203.91c.27.33.53.65.77,1m3.35,4.57c9.06,12.06,51,67.8,59.08,78.62h0"/><path class="cls-2" d="M242.64,182.36c-44.41.69-72.62,50.37-50.49,88.87a59.6,59.6,0,0,0,52,30.44H346.47a8.5,8.5,0,0,0,6.8-13.61c-5.09-6.64-10.62-16.82-20.33-16.22H303.07a5,5,0,0,1-4.67-6.62C316.5,226.05,285.68,180.92,242.64,182.36Zm4.28,29.93c17.22,1.16,30.35,18.93,26.48,35.73-3.33,19.06-26.72,30-43.44,20.21a30.52,30.52,0,0,1-5.85-4.15C203,245.13,218.72,209.53,246.92,212.29Z"/><path class="cls-3" d="M300.62,234.47c3.12,9.13.12,18.83.69,28.23-1.48,2.64-.9,6.3,2.87,6.93a178.91,178.91,0,0,0,26.65,2.45c4.46.06,6.43-5.45,3.53-8.54-9.52-10.15-18.38-20.36-24.6-32.92C307.26,225.58,298.79,229.1,300.62,234.47Z"/><path class="cls-1" d="M383.35,196.26l1-.77m4.57-3.35c12.06-9.06,67.8-51,78.62-59.08h0"/><path class="cls-2" d="M361.8,243.69c.68,44.41,50.37,72.62,88.87,50.49a59.6,59.6,0,0,0,30.44-52V139.86a8.5,8.5,0,0,0-13.61-6.8c-6.64,5.09-16.82,10.62-16.22,20.33v29.87a5,5,0,0,1-6.62,4.67C405.48,169.83,360.36,200.65,361.8,243.69Zm29.93-4.28c1.16-17.22,18.93-30.35,35.73-26.48,19.06,3.33,30,26.72,20.21,43.44a30.52,30.52,0,0,1-4.15,5.85C424.57,283.31,389,267.61,391.73,239.41Z"/><path class="cls-3" d="M413.91,185.71c9.13-3.12,18.83-.12,28.23-.69,2.64,1.48,6.3.9,6.93-2.87a178.9,178.9,0,0,0,2.44-26.65c.07-4.46-5.44-6.43-8.53-3.53-10.15,9.52-20.36,18.38-32.92,24.6C405,179.07,408.54,187.54,413.91,185.71Z"/><path class="cls-1" d="M459.53,110.84l-1,.77M454,115l-78.62,59.09h0"/><path class="cls-2" d="M481.08,63.41C480.39,19,430.7-9.2,392.21,12.92a59.59,59.59,0,0,0-30.44,52v102.3a8.5,8.5,0,0,0,13.61,6.8C382,169,392.2,163.43,391.6,153.72V123.85a5,5,0,0,1,6.62-4.67C437.39,137.27,482.52,106.45,481.08,63.41Zm-29.93,4.28C450,84.92,432.22,98,415.42,94.17c-19.06-3.33-30-26.71-20.21-43.44a29.67,29.67,0,0,1,4.15-5.85C418.31,23.8,453.91,39.49,451.15,67.69Z"/><path class="cls-3" d="M429,121.4c-9.12,3.12-18.83.11-28.22.69-2.65-1.48-6.3-.91-6.93,2.86a177.83,177.83,0,0,0-2.45,26.65c-.06,4.46,5.45,6.43,8.54,3.54,10.15-9.52,20.35-18.38,32.92-24.6C437.86,128,434.34,119.56,429,121.4Z"/><path class="cls-1" d="M207.44,196.15l1-.77M213,192c12.06-9.06,67.8-51,78.62-59.08h0"/><path class="cls-2" d="M185.89,243.58c.69,44.41,50.38,72.62,88.87,50.49a59.58,59.58,0,0,0,30.44-52V139.75a8.5,8.5,0,0,0-13.61-6.8c-6.64,5.09-16.82,10.62-16.22,20.33v29.87a5,5,0,0,1-6.62,4.67C229.58,169.72,184.45,200.55,185.89,243.58Zm29.93-4.28c1.16-17.22,18.93-30.34,35.73-26.47,19.06,3.33,30,26.71,20.21,43.44a30,30,0,0,1-4.15,5.84C248.66,283.2,213.06,267.51,215.82,239.3Z"/><path class="cls-3" d="M238,185.6c9.13-3.12,18.83-.11,28.23-.69,2.65,1.48,6.3.91,6.93-2.87a178.91,178.91,0,0,0,2.45-26.65c.06-4.45-5.45-6.43-8.54-3.53-10.15,9.52-20.36,18.38-32.92,24.6C229.11,179,232.63,187.43,238,185.6Z"/><path class="cls-1" d="M283.62,110.74l-1,.77m-4.57,3.35c-12.06,9.06-67.8,51-78.62,59.08h0"/><path class="cls-2" d="M305.17,63.31c-.69-44.41-50.38-72.62-88.87-50.49a59.58,59.58,0,0,0-30.44,52V167.14a8.5,8.5,0,0,0,13.61,6.8c6.64-5.09,16.82-10.62,16.22-20.33V123.74a5,5,0,0,1,6.62-4.67C261.48,137.17,306.61,106.34,305.17,63.31Zm-29.93,4.28c-1.16,17.22-18.93,30.35-35.73,26.48-19.06-3.34-30-26.72-20.21-43.44a30.09,30.09,0,0,1,4.15-5.85C242.4,23.69,278,39.38,275.24,67.59Z"/><path class="cls-3" d="M253.06,121.29c-9.13,3.12-18.83.12-28.23.69-2.64-1.48-6.3-.9-6.93,2.87a178.91,178.91,0,0,0-2.45,26.65c-.06,4.45,5.45,6.43,8.54,3.53,10.15-9.52,20.36-18.38,32.92-24.6C262,127.93,258.43,119.46,253.06,121.29Z"/><path class="cls-1" d="M197.35,280.2c-.27-.33-.53-.65-.77-1m-3.35-4.57c-9.06-12.06-51-67.8-59.08-78.62h0"/><path class="cls-2" d="M244.78,301.75c44.41-.69,72.62-50.38,50.49-88.87a59.59,59.59,0,0,0-52-30.44H141a8.5,8.5,0,0,0-6.8,13.61c5.09,6.64,10.61,16.82,20.32,16.22h29.87a5,5,0,0,1,4.68,6.61C170.92,258.06,201.74,303.18,244.78,301.75Zm-4.28-29.93c-17.22-1.17-30.35-18.93-26.48-35.73,3.33-19.06,26.72-30,43.44-20.21a29.67,29.67,0,0,1,5.85,4.15C284.39,239,268.7,274.58,240.5,271.82Z"/><path class="cls-3" d="M186.8,249.63c-3.13-9.13-.12-18.83-.69-28.22,1.47-2.65.9-6.31-2.87-6.93A177.71,177.71,0,0,0,156.59,212c-4.46-.07-6.43,5.45-3.54,8.53,9.53,10.16,18.39,20.36,24.61,32.92C180.15,258.52,188.63,255,186.8,249.63Z"/><path class="cls-1" d="M111.93,204c.27.33.53.65.77,1m3.35,4.57,59.09,78.61h0"/><path class="cls-2" d="M64.5,182.47c-44.41.68-72.61,50.37-50.49,88.87a59.63,59.63,0,0,0,52,30.44h102.3a8.51,8.51,0,0,0,6.8-13.62c-5.09-6.63-10.62-16.82-20.33-16.21H124.94a5,5,0,0,1-4.67-6.62C138.36,226.15,107.54,181,64.5,182.47Zm4.28,29.93c17.23,1.16,30.35,18.93,26.48,35.73-3.33,19.05-26.72,29.95-43.44,20.21A30.52,30.52,0,0,1,46,264.19C24.89,245.24,40.58,209.63,68.78,212.4Z"/><path class="cls-3" d="M122.48,234.58c3.13,9.13.12,18.83.7,28.23-1.48,2.64-.91,6.3,2.86,6.92a177.71,177.71,0,0,0,26.65,2.45c4.46.07,6.43-5.45,3.54-8.53-9.52-10.16-18.39-20.36-24.61-32.92C129.13,225.69,120.65,229.21,122.48,234.58Z"/><path class="cls-1" d="M196,457.19c-.27-.33-.53-.65-.77-1m-3.35-4.57-59.08-78.61h0"/><path class="cls-2" d="M243.47,478.74c44.41-.68,72.62-50.37,50.49-88.87a59.6,59.6,0,0,0-52-30.44H139.64a8.51,8.51,0,0,0-6.8,13.62c5.09,6.63,10.62,16.82,20.33,16.21H183a5,5,0,0,1,4.67,6.62C169.61,435.06,200.44,480.18,243.47,478.74Zm-4.28-29.93c-17.22-1.16-30.35-18.93-26.48-35.73,3.33-19.05,26.72-29.95,43.44-20.21A30.52,30.52,0,0,1,262,397C283.09,416,267.39,451.58,239.19,448.81Z"/><path class="cls-3" d="M185.49,426.63c-3.12-9.13-.12-18.83-.69-28.23,1.48-2.64.9-6.3-2.87-6.92A177.59,177.59,0,0,0,155.28,389c-4.46-.07-6.43,5.45-3.53,8.53,9.52,10.16,18.38,20.36,24.6,32.92C178.85,435.52,187.32,432,185.49,426.63Z"/><path class="cls-1" d="M110.62,381c.27.33.53.65.77,1m3.35,4.57c9.07,12.06,51,67.8,59.09,78.62h0"/><path class="cls-2" d="M63.19,359.46c-44.4.69-72.61,50.38-50.48,88.87a59.56,59.56,0,0,0,52,30.44H167a8.5,8.5,0,0,0,6.8-13.61c-5.09-6.64-10.62-16.82-20.33-16.22H123.63a5,5,0,0,1-4.67-6.61C137.06,403.15,106.23,358,63.19,359.46Zm4.28,29.93C84.7,390.56,97.82,408.32,94,425.12c-3.33,19.06-26.71,30-43.44,20.21a30,30,0,0,1-5.85-4.15C23.58,422.24,39.27,386.63,67.47,389.39Z"/><path class="cls-3" d="M121.18,411.58c3.12,9.13.11,18.83.69,28.22-1.48,2.65-.91,6.31,2.87,6.93a177.59,177.59,0,0,0,26.65,2.45c4.45.07,6.43-5.45,3.53-8.53-9.52-10.16-18.38-20.36-24.6-32.92C127.82,402.69,119.35,406.2,121.18,411.58Z"/><path class="cls-1" d="M203.9,373.37l1-.77m4.57-3.35,78.62-59.09h0"/><path class="cls-2" d="M182.35,420.8c.69,44.41,50.38,72.61,88.87,50.49a59.59,59.59,0,0,0,30.44-52V317a8.5,8.5,0,0,0-13.61-6.8c-6.64,5.09-16.82,10.62-16.22,20.33v29.87a5,5,0,0,1-6.61,4.67C226,346.94,180.92,377.76,182.35,420.8Zm29.93-4.28c1.17-17.23,18.93-30.35,35.73-26.48,19.06,3.33,30,26.72,20.21,43.44a29.67,29.67,0,0,1-4.15,5.85C245.13,460.41,209.52,444.72,212.28,416.52Z"/><path class="cls-3" d="M234.47,362.81c9.13-3.12,18.83-.11,28.22-.69,2.65,1.48,6.31.91,6.93-2.86a177.83,177.83,0,0,0,2.45-26.65c.07-4.46-5.45-6.43-8.53-3.54-10.16,9.52-20.36,18.38-32.92,24.61C225.58,356.17,229.09,364.65,234.47,362.81Z"/><path class="cls-1" d="M280.08,288l-1,.77m-4.57,3.35-78.61,59.08h0"/><path class="cls-2" d="M301.63,240.52C301,196.11,251.26,167.9,212.76,190a59.63,59.63,0,0,0-30.44,52V344.35a8.51,8.51,0,0,0,13.62,6.8c6.64-5.09,16.82-10.61,16.21-20.32V301a5,5,0,0,1,6.62-4.67C258,314.38,303.07,283.56,301.63,240.52ZM271.7,244.8C270.54,262,252.77,275.15,236,271.28,216.92,268,206,244.56,215.76,227.84a30.52,30.52,0,0,1,4.15-5.85C238.86,200.91,274.47,216.6,271.7,244.8Z"/><path class="cls-3" d="M249.52,298.5c-9.13,3.13-18.83.12-28.22.69-2.65-1.47-6.31-.9-6.93,2.87a177.71,177.71,0,0,0-2.45,26.65c-.07,4.46,5.45,6.43,8.53,3.54,10.16-9.53,20.36-18.39,32.92-24.61C258.41,305.15,254.89,296.67,249.52,298.5Z"/><path class="cls-1" d="M28,373.26l1-.77m4.57-3.35c12.06-9.06,67.8-51,78.62-59.08h0"/><path class="cls-2" d="M6.45,420.69c.68,44.41,50.37,72.62,88.87,50.49a59.61,59.61,0,0,0,30.44-52V316.86a8.5,8.5,0,0,0-13.61-6.8c-6.64,5.09-16.82,10.61-16.22,20.32v29.88a5,5,0,0,1-6.62,4.67C50.13,346.83,5,377.65,6.45,420.69Zm29.93-4.28c1.16-17.22,18.93-30.35,35.73-26.48,19.06,3.33,30,26.72,20.21,43.44a30.52,30.52,0,0,1-4.15,5.85C69.22,460.3,33.62,444.61,36.38,416.41Z"/><path class="cls-3" d="M58.56,362.71c9.13-3.13,18.83-.12,28.23-.69,2.64,1.47,6.3.9,6.93-2.87a177.7,177.7,0,0,0,2.44-26.65c.07-4.46-5.44-6.43-8.53-3.54-10.15,9.53-20.36,18.39-32.92,24.61C49.67,356.06,53.19,364.54,58.56,362.71Z"/><path class="cls-1" d="M104.18,287.84l-1,.77M98.65,292,20,351.05h0"/><path class="cls-2" d="M125.73,240.41C125,196,75.35,167.8,36.86,189.92A59.59,59.59,0,0,0,6.42,242v102.3A8.5,8.5,0,0,0,20,351.05c6.64-5.09,16.82-10.62,16.22-20.33V300.85a5,5,0,0,1,6.62-4.67C82,314.27,127.17,283.45,125.73,240.41ZM95.8,244.69C94.63,261.92,76.87,275,60.07,271.17c-19.06-3.33-30-26.72-20.21-43.44A29.67,29.67,0,0,1,44,221.88C63,200.8,98.56,216.49,95.8,244.69Z"/><path class="cls-3" d="M73.61,298.4c-9.12,3.12-18.83.11-28.22.69-2.65-1.48-6.3-.91-6.93,2.86A177.83,177.83,0,0,0,36,328.6c-.06,4.46,5.45,6.43,8.54,3.54,10.15-9.52,20.35-18.38,32.92-24.61C82.51,305,79,296.56,73.61,298.4Z"/><path class="cls-1" d="M199.31,103c-.27-.33-.53-.65-.77-1m-3.35-4.57c-9.06-12.06-51-67.8-59.08-78.62h0"/><path class="cls-2" d="M246.74,124.53c44.41-.69,72.62-50.38,50.49-88.87a59.57,59.57,0,0,0-52-30.44H142.91a8.5,8.5,0,0,0-6.8,13.61c5.09,6.64,10.62,16.82,20.32,16.22h29.88A5,5,0,0,1,191,41.67C172.88,80.84,203.7,126,246.74,124.53ZM242.46,94.6C225.24,93.44,212.11,75.67,216,58.87c3.33-19.06,26.72-30,43.44-20.21a29.67,29.67,0,0,1,5.85,4.15C286.36,61.76,270.66,97.36,242.46,94.6Z"/><path class="cls-3" d="M188.76,72.41c-3.12-9.12-.12-18.82-.69-28.22,1.47-2.65.9-6.3-2.87-6.93a178.91,178.91,0,0,0-26.65-2.45c-4.46-.06-6.43,5.45-3.53,8.54,9.52,10.15,18.38,20.36,24.6,32.92C182.11,81.31,190.59,77.79,188.76,72.41Z"/><path class="cls-1" d="M113.89,26.8c.27.33.53.65.77,1M118,32.33,177.1,111h0"/><path class="cls-2" d="M66.46,5.25C22.05,5.94-6.15,55.62,16,94.12a59.61,59.61,0,0,0,52,30.44H170.3A8.5,8.5,0,0,0,177.1,111c-5.09-6.64-10.62-16.82-20.33-16.22H126.9a5,5,0,0,1-4.67-6.62C140.32,48.94,109.5,3.81,66.46,5.25Zm4.28,29.93C88,36.34,101.09,54.11,97.22,70.91c-3.33,19.06-26.71,30-43.44,20.21A30.52,30.52,0,0,1,47.93,87C26.85,68,42.54,32.42,70.74,35.18Z"/><path class="cls-3" d="M124.45,57.36c3.12,9.13.11,18.83.69,28.23-1.48,2.64-.91,6.3,2.86,6.93A179.15,179.15,0,0,0,154.65,95c4.46.06,6.43-5.45,3.54-8.54-9.52-10.15-18.38-20.36-24.6-32.92C131.09,48.47,122.61,52,124.45,57.36Z"/><path class="cls-1" d="M198,280c-.27-.33-.53-.65-.77-1m-3.35-4.57c-9.07-12.06-51-67.8-59.09-78.62h0"/><path class="cls-2" d="M245.44,301.53c44.4-.69,72.61-50.38,50.48-88.87a59.56,59.56,0,0,0-52-30.44H141.6a8.5,8.5,0,0,0-6.8,13.61c5.09,6.64,10.62,16.82,20.33,16.22H185a5,5,0,0,1,4.67,6.62C171.57,257.84,202.4,303,245.44,301.53Zm-4.28-29.93c-17.23-1.17-30.35-18.93-26.48-35.73,3.33-19.06,26.71-30,43.44-20.21a30,30,0,0,1,5.85,4.15C285.05,238.76,269.36,274.36,241.16,271.6Z"/><path class="cls-3" d="M187.45,249.41c-3.12-9.12-.11-18.83-.69-28.22,1.48-2.65.91-6.3-2.87-6.93a177.59,177.59,0,0,0-26.65-2.45c-4.45-.06-6.43,5.45-3.53,8.54,9.52,10.15,18.38,20.35,24.6,32.92C180.81,258.31,189.28,254.79,187.45,249.41Z"/><path class="cls-1" d="M112.59,203.8c.27.33.53.65.77,1m3.35,4.57c9.06,12,51,67.8,59.08,78.62h0"/><path class="cls-2" d="M65.16,182.25c-44.41.68-72.62,50.37-50.49,88.87a59.6,59.6,0,0,0,52,30.44H169a8.5,8.5,0,0,0,6.8-13.61c-5.09-6.64-10.62-16.82-20.33-16.22H125.59a5,5,0,0,1-4.67-6.62C139,225.93,108.19,180.81,65.16,182.25Zm4.28,29.93c17.22,1.16,30.35,18.93,26.48,35.73-3.33,19.06-26.72,30-43.44,20.21A30.52,30.52,0,0,1,46.63,264C25.54,245,41.24,209.42,69.44,212.18Z"/><path class="cls-3" d="M123.14,234.36c3.12,9.13.12,18.83.69,28.23-1.48,2.64-.9,6.3,2.87,6.92A177.59,177.59,0,0,0,153.35,272c4.46.07,6.43-5.44,3.53-8.53-9.52-10.15-18.38-20.36-24.6-32.92C129.78,225.47,121.31,229,123.14,234.36Z"/><path class="cls-1" d="M205.87,196.15l1-.77M211.4,192,290,133h0"/><path class="cls-2" d="M184.32,243.58c.68,44.41,50.37,72.62,88.87,50.49a59.63,59.63,0,0,0,30.44-52V139.75A8.51,8.51,0,0,0,290,133c-6.63,5.09-16.81,10.61-16.21,20.32v29.88a5,5,0,0,1-6.62,4.67C228,169.72,182.88,200.54,184.32,243.58Zm29.93-4.28c1.16-17.22,18.93-30.35,35.73-26.48,19,3.33,30,26.72,20.21,43.44a30.52,30.52,0,0,1-4.15,5.85C247.09,283.19,211.48,267.5,214.25,239.3Z"/><path class="cls-3" d="M236.43,185.6c9.13-3.13,18.83-.12,28.23-.69,2.64,1.47,6.3.9,6.92-2.87A177.71,177.71,0,0,0,274,155.39c.07-4.46-5.44-6.43-8.53-3.54-10.16,9.53-20.36,18.39-32.92,24.61C227.54,179,231.06,187.43,236.43,185.6Z"/><path class="cls-1" d="M282.05,110.73l-1,.77m-4.57,3.35L197.9,173.94h0"/><path class="cls-2" d="M303.6,63.3c-.69-44.41-50.38-72.61-88.87-50.49a59.59,59.59,0,0,0-30.44,52v102.3a8.5,8.5,0,0,0,13.61,6.8c6.64-5.09,16.82-10.62,16.22-20.33V123.74a5,5,0,0,1,6.62-4.67C259.91,137.16,305,106.34,303.6,63.3Zm-29.93,4.28c-1.17,17.23-18.93,30.35-35.73,26.48-19.06-3.33-30-26.72-20.21-43.44a29.67,29.67,0,0,1,4.15-5.85C240.83,23.69,276.43,39.38,273.67,67.58Z"/><path class="cls-3" d="M251.48,121.29c-9.13,3.12-18.83.11-28.22.69-2.65-1.48-6.31-.91-6.93,2.86a177.83,177.83,0,0,0-2.45,26.65c-.07,4.46,5.45,6.43,8.53,3.54,10.16-9.52,20.36-18.38,32.93-24.61C260.37,127.93,256.86,119.45,251.48,121.29Z"/><path class="cls-1" d="M30,196l1-.77m4.57-3.35c12.06-9.06,67.8-51,78.62-59.08h0"/><path class="cls-2" d="M8.41,243.47C9.1,287.88,58.79,316.09,97.28,294a59.58,59.58,0,0,0,30.44-52V139.64a8.5,8.5,0,0,0-13.61-6.8c-6.64,5.09-16.82,10.62-16.22,20.33V183a5,5,0,0,1-6.62,4.67C52.1,169.61,7,200.44,8.41,243.47Zm29.93-4.28C39.5,222,57.27,208.84,74.07,212.71c19.06,3.33,30,26.72,20.21,43.44A30.09,30.09,0,0,1,90.13,262C71.18,283.09,35.58,267.39,38.34,239.19Z"/><path class="cls-3" d="M60.52,185.49c9.13-3.12,18.83-.12,28.23-.69,2.64,1.48,6.3.9,6.93-2.87a178.91,178.91,0,0,0,2.45-26.65c.06-4.46-5.45-6.43-8.54-3.53-10.15,9.52-20.36,18.38-32.92,24.6C51.63,178.85,55.15,187.32,60.52,185.49Z"/><path class="cls-1" d="M106.14,110.62l-1,.77m-4.57,3.35c-12.06,9.07-67.8,51-78.62,59.09h0"/><path class="cls-2" d="M127.69,63.19C127,18.79,77.31-9.42,38.82,12.71a59.58,59.58,0,0,0-30.44,52V167A8.5,8.5,0,0,0,22,173.83c6.64-5.09,16.82-10.62,16.22-20.33V123.63A5,5,0,0,1,44.83,119C84,137.06,129.13,106.23,127.69,63.19ZM97.76,67.47C96.6,84.7,78.83,97.82,62,94,43,90.62,32.07,67.24,41.82,50.51A30.4,30.4,0,0,1,46,44.66C64.92,23.58,100.52,39.27,97.76,67.47Z"/><path class="cls-3" d="M75.58,121.18c-9.13,3.12-18.83.11-28.23.69-2.64-1.48-6.3-.91-6.93,2.87A178.91,178.91,0,0,0,38,151.39c-.06,4.45,5.45,6.43,8.54,3.53,10.15-9.52,20.36-18.38,32.92-24.6C84.47,127.82,81,119.35,75.58,121.18Z"/></g></g></svg>