<svg xmlns="http://www.w3.org/2000/svg" viewBox="0 0 838.65 838.43"><defs><style>.cls-1,.cls-2{fill:none;stroke:#789971;stroke-miterlimit:10;}.cls-1{stroke-width:10px;}</style></defs><title>Asset 27</title><g id="Layer_2" data-name="Layer 2"><g id="Layer_1-2" data-name="Layer 1"><path class="cls-1" d="M550.7,457.19c-.27-.33-.53-.65-.77-1m-3.35-4.57L487.5,373.05h0"/><path class="cls-1" d="M598.13,478.74c44.41-.68,72.62-50.37,50.49-88.87a59.63,59.63,0,0,0-52-30.44H494.3a8.51,8.51,0,0,0-6.8,13.62c5.09,6.63,10.61,16.82,20.32,16.21H537.7a5,5,0,0,1,4.67,6.62C524.27,435.06,555.09,480.18,598.13,478.74Zm-4.28-29.93c-17.22-1.16-30.35-18.93-26.48-35.73,3.33-19.05,26.72-29.95,43.44-20.21a30.52,30.52,0,0,1,5.85,4.15C637.74,416,622.05,451.58,593.85,448.81Z"/><path class="cls-2" d="M540.15,426.63c-3.13-9.13-.12-18.83-.69-28.23,1.47-2.64.9-6.3-2.87-6.92A177.71,177.71,0,0,0,509.94,389c-4.46-.07-6.43,5.45-3.54,8.53,9.53,10.16,18.39,20.36,24.61,32.92C533.5,435.52,542,432,540.15,426.63Z"/><path class="cls-1" d="M465.28,381c.27.33.53.65.77,1m3.35,4.57,59.09,78.62h0"/><path class="cls-1" d="M417.85,359.46c-44.41.69-72.61,50.38-50.49,88.87a59.59,59.59,0,0,0,52,30.44h102.3a8.5,8.5,0,0,0,6.8-13.61c-5.09-6.64-10.62-16.82-20.33-16.22H478.29a5,5,0,0,1-4.67-6.61C491.71,403.15,460.89,358,417.85,359.46Zm4.28,29.93c17.23,1.17,30.35,18.93,26.48,35.73-3.33,19.06-26.72,30-43.44,20.21a29.67,29.67,0,0,1-5.85-4.15C378.24,422.24,393.93,386.63,422.13,389.39Z"/><path class="cls-2" d="M475.84,411.58c3.12,9.13.11,18.83.69,28.22-1.48,2.65-.91,6.31,2.86,6.93A177.83,177.83,0,0,0,506,449.18c4.46.07,6.43-5.45,3.54-8.53-9.52-10.16-18.39-20.36-24.61-32.92C482.48,402.69,474,406.2,475.84,411.58Z"/><path class="cls-1" d="M550.7,280.08c-.27-.33-.53-.65-.77-1m-3.35-4.57c-9.07-12.05-51-67.8-59.09-78.61h0"/><path class="cls-1" d="M598.13,301.63c44.41-.68,72.61-50.37,50.49-88.87a59.63,59.63,0,0,0-52-30.44H494.29a8.51,8.51,0,0,0-6.8,13.62c5.09,6.64,10.62,16.82,20.33,16.21h29.87a5,5,0,0,1,4.67,6.62C524.27,258,555.09,303.07,598.13,301.63Zm-4.28-29.93c-17.23-1.16-30.35-18.93-26.48-35.73,3.33-19.05,26.71-29.95,43.44-20.21a30.52,30.52,0,0,1,5.85,4.15C637.74,238.86,622.05,274.47,593.85,271.7Z"/><path class="cls-2" d="M540.14,249.52c-3.12-9.13-.11-18.83-.69-28.22,1.48-2.65.91-6.31-2.86-6.93a177.83,177.83,0,0,0-26.65-2.45c-4.46-.07-6.43,5.45-3.54,8.53,9.52,10.16,18.38,20.36,24.6,32.92C533.5,258.41,542,254.89,540.14,249.52Z"/><path class="cls-1" d="M465.28,203.9c.27.33.53.65.77,1m3.35,4.57c9.06,12.06,51,67.8,59.08,78.62h0"/><path class="cls-1" d="M417.85,182.35c-44.41.69-72.62,50.38-50.49,88.87a59.57,59.57,0,0,0,52,30.44H521.68a8.5,8.5,0,0,0,6.8-13.61c-5.09-6.64-10.62-16.82-20.33-16.22H478.28a5,5,0,0,1-4.67-6.61C491.71,226,460.89,180.92,417.85,182.35Zm4.28,29.93c17.22,1.17,30.35,18.93,26.48,35.73-3.33,19.06-26.72,30-43.44,20.21a29.67,29.67,0,0,1-5.85-4.15C378.23,245.13,393.93,209.52,422.13,212.28Z"/><path class="cls-2" d="M475.83,234.47c3.12,9.13.12,18.83.69,28.22-1.48,2.65-.9,6.31,2.87,6.93A177.59,177.59,0,0,0,506,272.07c4.46.07,6.43-5.45,3.53-8.53-9.52-10.16-18.38-20.36-24.6-32.92C482.47,225.58,474,229.09,475.83,234.47Z"/><path class="cls-1" d="M381.24,373.26l1-.77m4.57-3.35,78.61-59.08h0"/><path class="cls-1" d="M359.69,420.69c.68,44.41,50.37,72.62,88.87,50.49a59.63,59.63,0,0,0,30.44-52V316.86a8.51,8.51,0,0,0-13.62-6.8c-6.63,5.09-16.81,10.61-16.21,20.32v29.88a5,5,0,0,1-6.62,4.67C403.37,346.83,358.25,377.65,359.69,420.69Zm29.93-4.28c1.16-17.22,18.93-30.35,35.73-26.48,19.06,3.33,29.95,26.72,20.21,43.44a30.52,30.52,0,0,1-4.15,5.85C422.46,460.3,386.86,444.61,389.62,416.41Z"/><path class="cls-2" d="M411.8,362.71c9.13-3.13,18.83-.12,28.23-.69,2.64,1.47,6.3.9,6.92-2.87a177.71,177.71,0,0,0,2.45-26.65c.07-4.46-5.44-6.43-8.53-3.54-10.15,9.53-20.36,18.39-32.92,24.61C402.91,356.06,406.43,364.54,411.8,362.71Z"/><path class="cls-1" d="M457.42,287.84l-1,.77M451.89,292l-78.62,59.09h0"/><path class="cls-1" d="M479,240.41c-.69-44.41-50.38-72.61-88.87-50.49a59.59,59.59,0,0,0-30.44,52v102.3a8.5,8.5,0,0,0,13.61,6.8c6.64-5.09,16.82-10.62,16.22-20.33V300.85a5,5,0,0,1,6.62-4.67C435.28,314.27,480.41,283.45,479,240.41ZM449,244.69c-1.17,17.23-18.93,30.35-35.73,26.48-19.06-3.33-30-26.72-20.21-43.44a29.67,29.67,0,0,1,4.15-5.85C416.2,200.8,451.8,216.49,449,244.69Z"/><path class="cls-2" d="M426.85,298.4c-9.12,3.12-18.83.11-28.22.69-2.65-1.48-6.31-.91-6.93,2.86a177.83,177.83,0,0,0-2.45,26.65c-.06,4.46,5.45,6.43,8.54,3.54,10.15-9.52,20.35-18.38,32.92-24.61C435.75,305,432.23,296.56,426.85,298.4Z"/><path class="cls-1" d="M558.45,373.26l1-.77m4.57-3.35c12.06-9.06,67.8-51,78.62-59.08h0"/><path class="cls-1" d="M536.9,420.69c.69,44.41,50.38,72.62,88.87,50.49a59.61,59.61,0,0,0,30.44-52V316.86a8.5,8.5,0,0,0-13.61-6.8c-6.64,5.09-16.82,10.61-16.22,20.32v29.88a5,5,0,0,1-6.62,4.67C580.59,346.83,535.46,377.65,536.9,420.69Zm29.93-4.28c1.16-17.22,18.93-30.35,35.73-26.48,19.06,3.33,30,26.72,20.21,43.44a30.09,30.09,0,0,1-4.15,5.85C599.67,460.3,564.07,444.61,566.83,416.41Z"/><path class="cls-2" d="M589,362.71c9.13-3.13,18.83-.12,28.23-.69,2.64,1.47,6.3.9,6.93-2.87a179,179,0,0,0,2.45-26.65c.06-4.46-5.45-6.43-8.54-3.54-10.15,9.53-20.36,18.39-32.92,24.61C580.12,356.06,583.64,364.54,589,362.71Z"/><path class="cls-1" d="M634.63,287.84l-1,.77M629.1,292l-78.62,59.09h0"/><path class="cls-1" d="M656.18,240.41c-.69-44.41-50.38-72.61-88.87-50.49a59.61,59.61,0,0,0-30.44,52v102.3a8.5,8.5,0,0,0,13.61,6.8c6.64-5.09,16.82-10.62,16.22-20.33V300.85a5,5,0,0,1,6.62-4.67C612.49,314.27,657.62,283.45,656.18,240.41Zm-29.93,4.28c-1.16,17.23-18.93,30.35-35.73,26.48-19.06-3.33-30-26.72-20.21-43.44a30.09,30.09,0,0,1,4.15-5.85C593.41,200.8,629,216.49,626.25,244.69Z"/><path class="cls-2" d="M604.07,298.4c-9.13,3.12-18.83.11-28.23.69-2.64-1.48-6.3-.91-6.93,2.86a179.15,179.15,0,0,0-2.45,26.65c-.06,4.46,5.45,6.43,8.54,3.54,10.15-9.52,20.36-18.38,32.92-24.61C613,305,609.44,296.56,604.07,298.4Z"/><path class="cls-1" d="M727.91,457.19c-.27-.33-.53-.65-.77-1m-3.35-4.57-59.08-78.61h0"/><path class="cls-1" d="M775.34,478.74c44.41-.68,72.62-50.37,50.49-88.87a59.6,59.6,0,0,0-52-30.44H671.51a8.51,8.51,0,0,0-6.8,13.62c5.09,6.63,10.62,16.82,20.33,16.21h29.87a5,5,0,0,1,4.67,6.62C701.48,435.06,732.31,480.18,775.34,478.74Zm-4.28-29.93c-17.22-1.16-30.35-18.93-26.48-35.73C747.92,394,771.3,383.13,788,392.87a30.52,30.52,0,0,1,5.85,4.15C815,416,799.27,451.58,771.06,448.81Z"/><path class="cls-2" d="M717.36,426.63c-3.12-9.13-.12-18.83-.69-28.23,1.48-2.64.9-6.3-2.87-6.92A177.59,177.59,0,0,0,687.15,389c-4.45-.07-6.43,5.45-3.53,8.53,9.52,10.16,18.38,20.36,24.6,32.92C710.72,435.52,719.19,432,717.36,426.63Z"/><path class="cls-1" d="M642.49,381c.27.33.53.65.77,1m3.35,4.57c9.07,12.06,51,67.8,59.09,78.62h0"/><path class="cls-1" d="M595.06,359.46c-44.4.69-72.61,50.38-50.48,88.87a59.56,59.56,0,0,0,52,30.44H698.9a8.5,8.5,0,0,0,6.8-13.61c-5.09-6.64-10.62-16.82-20.33-16.22H655.5a5,5,0,0,1-4.67-6.61C668.93,403.15,638.1,358,595.06,359.46Zm4.28,29.93c17.23,1.17,30.35,18.93,26.48,35.73-3.33,19.06-26.71,30-43.44,20.21a30,30,0,0,1-5.85-4.15C555.45,422.24,571.14,386.63,599.34,389.39Z"/><path class="cls-2" d="M653.05,411.58c3.12,9.13.11,18.83.69,28.22-1.48,2.65-.91,6.31,2.87,6.93a177.59,177.59,0,0,0,26.65,2.45c4.45.07,6.43-5.45,3.53-8.53-9.52-10.16-18.38-20.36-24.6-32.92C659.69,402.69,651.22,406.2,653.05,411.58Z"/><path class="cls-1" d="M727.91,280.08c-.27-.33-.53-.65-.77-1m-3.35-4.57-59.08-78.61h0"/><path class="cls-1" d="M775.34,301.63c44.41-.68,72.62-50.37,50.49-88.87a59.63,59.63,0,0,0-52-30.44H671.51a8.51,8.51,0,0,0-6.8,13.62c5.09,6.64,10.61,16.82,20.32,16.21H714.9a5,5,0,0,1,4.68,6.62C701.48,258,732.3,303.07,775.34,301.63Zm-4.28-29.93c-17.22-1.16-30.35-18.93-26.48-35.73C747.91,216.92,771.3,206,788,215.76a30.52,30.52,0,0,1,5.85,4.15C815,238.86,799.26,274.47,771.06,271.7Z"/><path class="cls-2" d="M717.36,249.52c-3.13-9.13-.12-18.83-.69-28.22,1.47-2.65.9-6.31-2.87-6.93a177.71,177.71,0,0,0-26.65-2.45c-4.46-.07-6.43,5.45-3.54,8.53,9.53,10.16,18.39,20.36,24.61,32.92C710.71,258.41,719.19,254.89,717.36,249.52Z"/><path class="cls-1" d="M642.49,203.9c.27.33.53.65.77,1m3.35,4.57,59.09,78.62h0"/><path class="cls-1" d="M595.06,182.35c-44.41.69-72.61,50.38-50.49,88.87a59.59,59.59,0,0,0,52,30.44H698.9a8.5,8.5,0,0,0,6.8-13.61c-5.1-6.64-10.62-16.82-20.33-16.22H655.5a5,5,0,0,1-4.67-6.61C668.92,226,638.1,180.92,595.06,182.35Zm4.28,29.93c17.22,1.17,30.35,18.93,26.48,35.73-3.33,19.06-26.72,30-43.44,20.21a29.67,29.67,0,0,1-5.85-4.15C555.45,245.13,571.14,209.52,599.34,212.28Z"/><path class="cls-2" d="M653,234.47c3.13,9.13.12,18.83.7,28.22-1.48,2.65-.91,6.31,2.86,6.93a177.71,177.71,0,0,0,26.65,2.45c4.46.07,6.43-5.45,3.54-8.53-9.52-10.16-18.39-20.36-24.61-32.92C659.69,225.58,651.21,229.09,653,234.47Z"/><path class="cls-1" d="M558.45,373.26l1-.77m4.57-3.35c12.06-9.06,67.8-51,78.62-59.08h0"/><path class="cls-1" d="M536.9,420.69c.69,44.41,50.38,72.62,88.87,50.49a59.61,59.61,0,0,0,30.44-52V316.86a8.5,8.5,0,0,0-13.61-6.8c-6.64,5.09-16.82,10.61-16.22,20.32v29.88a5,5,0,0,1-6.62,4.67C580.59,346.83,535.46,377.65,536.9,420.69Zm29.93-4.28c1.16-17.22,18.93-30.35,35.73-26.48,19.06,3.33,30,26.72,20.21,43.44a30.09,30.09,0,0,1-4.15,5.85C599.67,460.3,564.07,444.61,566.83,416.41Z"/><path class="cls-2" d="M589,362.71c9.13-3.13,18.83-.12,28.23-.69,2.64,1.47,6.3.9,6.93-2.87a179,179,0,0,0,2.45-26.65c.06-4.46-5.45-6.43-8.54-3.54-10.15,9.53-20.36,18.39-32.92,24.61C580.12,356.06,583.64,364.54,589,362.71Z"/><path class="cls-1" d="M634.63,287.84l-1,.77M629.1,292l-78.62,59.09h0"/><path class="cls-1" d="M656.18,240.41c-.69-44.41-50.38-72.61-88.87-50.49a59.61,59.61,0,0,0-30.44,52v102.3a8.5,8.5,0,0,0,13.61,6.8c6.64-5.09,16.82-10.62,16.22-20.33V300.85a5,5,0,0,1,6.62-4.67C612.49,314.27,657.62,283.45,656.18,240.41Zm-29.93,4.28c-1.16,17.23-18.93,30.35-35.73,26.48-19.06-3.33-30-26.72-20.21-43.44a30.09,30.09,0,0,1,4.15-5.85C593.41,200.8,629,216.49,626.25,244.69Z"/><path class="cls-2" d="M604.07,298.4c-9.13,3.12-18.83.11-28.23.69-2.64-1.48-6.3-.91-6.93,2.86a179.15,179.15,0,0,0-2.45,26.65c-.06,4.46,5.45,6.43,8.54,3.54,10.15-9.52,20.36-18.38,32.92-24.61C613,305,609.44,296.56,604.07,298.4Z"/><path class="cls-1" d="M735.66,373.26l1-.77m4.57-3.35c12.06-9.06,67.8-51,78.62-59.08h0"/><path class="cls-1" d="M714.11,420.69c.69,44.41,50.38,72.62,88.87,50.49a59.59,59.59,0,0,0,30.44-52V316.86a8.5,8.5,0,0,0-13.61-6.8c-6.64,5.09-16.82,10.61-16.22,20.32v29.88a5,5,0,0,1-6.62,4.67C757.8,346.83,712.68,377.65,714.11,420.69ZM744,416.41c1.17-17.22,18.93-30.35,35.73-26.48,19.06,3.33,30,26.72,20.21,43.44a29.67,29.67,0,0,1-4.15,5.85C776.88,460.3,741.28,444.61,744,416.41Z"/><path class="cls-2" d="M766.23,362.71c9.13-3.13,18.83-.12,28.22-.69,2.65,1.47,6.31.9,6.93-2.87a177.71,177.71,0,0,0,2.45-26.65c.07-4.46-5.45-6.43-8.53-3.54-10.16,9.53-20.36,18.39-32.93,24.61C757.34,356.06,760.85,364.54,766.23,362.71Z"/><path class="cls-1" d="M811.84,287.84l-1,.77M806.31,292,727.7,351.05h0"/><path class="cls-1" d="M833.39,240.41C832.71,196,783,167.8,744.52,189.92a59.63,59.63,0,0,0-30.44,52v102.3a8.51,8.51,0,0,0,13.62,6.8c6.63-5.09,16.81-10.62,16.21-20.33V300.85a5,5,0,0,1,6.62-4.67C789.71,314.27,834.83,283.45,833.39,240.41Zm-29.93,4.28c-1.16,17.23-18.93,30.35-35.73,26.48-19.05-3.33-30-26.72-20.21-43.44a30.52,30.52,0,0,1,4.15-5.85C770.62,200.8,806.23,216.49,803.46,244.69Z"/><path class="cls-2" d="M781.28,298.4c-9.13,3.12-18.83.11-28.23.69-2.64-1.48-6.3-.91-6.92,2.86a177.83,177.83,0,0,0-2.45,26.65c-.07,4.46,5.44,6.43,8.53,3.54,10.16-9.52,20.36-18.38,32.92-24.61C790.17,305,786.65,296.56,781.28,298.4Z"/><path class="cls-1" d="M550.59,280c-.27-.33-.53-.65-.77-1m-3.35-4.57c-9.07-12.06-51-67.8-59.09-78.62h0"/><path class="cls-1" d="M598,301.53c44.4-.69,72.61-50.38,50.48-88.87a59.56,59.56,0,0,0-52-30.44H494.18a8.5,8.5,0,0,0-6.8,13.61c5.09,6.64,10.62,16.82,20.33,16.22h29.87a5,5,0,0,1,4.67,6.62C524.15,257.84,555,303,598,301.53Zm-4.28-29.93c-17.23-1.17-30.35-18.93-26.48-35.73,3.33-19.06,26.71-30,43.44-20.21a30,30,0,0,1,5.85,4.15C637.63,238.76,621.94,274.36,593.74,271.6Z"/><path class="cls-2" d="M540,249.41c-3.12-9.12-.11-18.83-.69-28.22,1.48-2.65.91-6.3-2.86-6.93a177.84,177.84,0,0,0-26.66-2.45c-4.45-.06-6.43,5.45-3.53,8.54,9.52,10.15,18.38,20.35,24.6,32.92C533.39,258.31,541.86,254.79,540,249.41Z"/><path class="cls-1" d="M465.17,203.8c.27.33.53.65.77,1m3.35,4.57c9.06,12,51,67.8,59.08,78.62h0"/><path class="cls-1" d="M417.74,182.25c-44.41.68-72.62,50.37-50.49,88.87a59.6,59.6,0,0,0,52,30.44H521.57a8.5,8.5,0,0,0,6.8-13.61c-5.09-6.64-10.62-16.82-20.33-16.22H478.17a5,5,0,0,1-4.67-6.62C491.6,225.93,460.77,180.81,417.74,182.25ZM422,212.18c17.22,1.16,30.35,18.93,26.48,35.73-3.33,19.06-26.72,30-43.44,20.21a30.52,30.52,0,0,1-5.85-4.15C378.12,245,393.82,209.42,422,212.18Z"/><path class="cls-2" d="M475.72,234.36c3.12,9.13.12,18.83.69,28.23-1.48,2.64-.9,6.3,2.87,6.92A177.59,177.59,0,0,0,505.93,272c4.46.07,6.43-5.44,3.53-8.53-9.52-10.15-18.38-20.36-24.6-32.92C482.36,225.47,473.89,229,475.72,234.36Z"/><path class="cls-1" d="M550.58,102.87c-.27-.33-.53-.65-.77-1m-3.35-4.57c-9.06-12.06-51-67.8-59.08-78.62h0"/><path class="cls-1" d="M598,124.42c44.41-.69,72.62-50.38,50.49-88.87a59.57,59.57,0,0,0-52-30.44H494.18a8.5,8.5,0,0,0-6.8,13.61c5.09,6.64,10.61,16.82,20.32,16.22h29.88a5,5,0,0,1,4.67,6.62C524.15,80.73,555,125.86,598,124.42Zm-4.28-29.93c-17.22-1.17-30.35-18.93-26.48-35.73,3.33-19.06,26.72-30,43.44-20.21a29.67,29.67,0,0,1,5.85,4.15C637.62,61.65,621.93,97.25,593.73,94.49Z"/><path class="cls-2" d="M540,72.3c-3.12-9.12-.12-18.83-.69-28.22,1.47-2.65.9-6.3-2.87-6.93a177.59,177.59,0,0,0-26.65-2.45c-4.46-.06-6.43,5.45-3.54,8.54,9.53,10.15,18.39,20.35,24.61,32.92C533.38,81.2,541.86,77.68,540,72.3Z"/><path class="cls-1" d="M465.16,26.69c.27.33.53.65.77,1m3.35,4.57,59.09,78.62h0"/><path class="cls-1" d="M417.73,5.14c-44.41.68-72.61,50.37-50.49,88.87a59.61,59.61,0,0,0,52,30.44h102.3a8.5,8.5,0,0,0,6.8-13.61C523.28,104.2,517.75,94,508,94.62H478.17A5,5,0,0,1,473.5,88C491.59,48.82,460.77,3.7,417.73,5.14ZM422,35.07C439.24,36.23,452.36,54,448.49,70.8c-3.33,19.06-26.72,30-43.44,20.21a30.52,30.52,0,0,1-5.85-4.15C378.12,67.91,393.81,32.31,422,35.07Z"/><path class="cls-2" d="M475.72,57.25c3.12,9.13.11,18.83.69,28.23-1.48,2.64-.91,6.3,2.86,6.92a177.83,177.83,0,0,0,26.65,2.45c4.46.07,6.43-5.44,3.54-8.53C499.94,76.17,491.08,66,484.85,53.4,482.36,48.36,473.88,51.88,475.72,57.25Z"/><path class="cls-1" d="M381.12,196l1-.77m4.57-3.35c12.06-9.06,67.8-51,78.62-59.08h0"/><path class="cls-1" d="M359.57,243.47c.69,44.41,50.38,72.62,88.87,50.49a59.56,59.56,0,0,0,30.44-52V139.64a8.5,8.5,0,0,0-13.61-6.8c-6.64,5.09-16.82,10.62-16.22,20.33V183a5,5,0,0,1-6.62,4.67C403.26,169.61,358.13,200.44,359.57,243.47Zm29.93-4.28c1.17-17.22,18.93-30.35,35.73-26.48,19.06,3.33,30,26.72,20.21,43.44a29.67,29.67,0,0,1-4.15,5.85C422.34,283.09,386.74,267.39,389.5,239.19Z"/><path class="cls-2" d="M411.69,185.49c9.12-3.12,18.82-.12,28.22-.69,2.65,1.48,6.3.9,6.93-2.87a178.91,178.91,0,0,0,2.45-26.65c.06-4.46-5.45-6.43-8.54-3.53-10.15,9.52-20.35,18.38-32.92,24.6C402.79,178.85,406.31,187.32,411.69,185.49Z"/><path class="cls-1" d="M457.3,110.62l-1,.77m-4.57,3.35c-12.06,9.07-67.8,51-78.62,59.09h0"/><path class="cls-1" d="M478.85,63.19c-.69-44.4-50.37-72.61-88.87-50.48a59.58,59.58,0,0,0-30.44,52V167a8.5,8.5,0,0,0,13.61,6.8c6.64-5.09,16.82-10.62,16.22-20.33V123.63A5,5,0,0,1,396,119C435.16,137.06,480.29,106.23,478.85,63.19Zm-29.93,4.28C447.76,84.7,430,97.82,413.19,94c-19.06-3.33-30-26.71-20.21-43.44a30.84,30.84,0,0,1,4.15-5.85C416.08,23.58,451.68,39.27,448.92,67.47Z"/><path class="cls-2" d="M426.74,121.18c-9.13,3.12-18.83.11-28.23.69-2.64-1.48-6.3-.91-6.93,2.87a178.91,178.91,0,0,0-2.45,26.65c-.06,4.45,5.45,6.43,8.54,3.53,10.15-9.52,20.36-18.38,32.92-24.6C435.63,127.82,432.11,119.35,426.74,121.18Z"/><path class="cls-1" d="M558.33,196l1-.77m4.57-3.35c12.06-9.06,67.8-51,78.62-59.08h0"/><path class="cls-1" d="M536.78,243.47c.69,44.41,50.38,72.62,88.88,50.49a59.57,59.57,0,0,0,30.43-52V139.64a8.5,8.5,0,0,0-13.61-6.8c-6.64,5.09-16.82,10.62-16.21,20.33V183a5,5,0,0,1-6.61,4.67C580.47,169.61,535.35,200.44,536.78,243.47Zm29.93-4.28c1.17-17.22,18.94-30.35,35.74-26.48,19,3.33,29.95,26.72,20.2,43.44A29.67,29.67,0,0,1,618.5,262C599.56,283.09,564,267.39,566.71,239.19Z"/><path class="cls-2" d="M588.9,185.49c9.13-3.12,18.83-.12,28.22-.69,2.65,1.48,6.31.9,6.93-2.87a177.59,177.59,0,0,0,2.45-26.65c.07-4.46-5.45-6.43-8.53-3.53-10.16,9.52-20.36,18.38-32.92,24.6C580,178.85,583.52,187.32,588.9,185.49Z"/><path class="cls-1" d="M634.52,110.62l-1,.77M629,114.74c-12.06,9.07-67.8,51-78.62,59.09h0"/><path class="cls-1" d="M656.07,63.19c-.69-44.4-50.38-72.61-88.88-50.48a59.57,59.57,0,0,0-30.43,52V167a8.5,8.5,0,0,0,13.61,6.8c6.64-5.09,16.82-10.62,16.21-20.33V123.63A5,5,0,0,1,573.2,119C612.38,137.06,657.5,106.23,656.07,63.19Zm-29.93,4.28C625,84.7,607.2,97.82,590.4,94c-19-3.33-29.95-26.71-20.2-43.44a30,30,0,0,1,4.15-5.85C593.29,23.58,628.9,39.27,626.14,67.47Z"/><path class="cls-2" d="M604,121.18c-9.13,3.12-18.83.11-28.22.69-2.65-1.48-6.31-.91-6.93,2.87a177.59,177.59,0,0,0-2.45,26.65c-.07,4.45,5.45,6.43,8.53,3.53,10.16-9.52,20.36-18.38,32.92-24.6C612.84,127.82,609.33,119.35,604,121.18Z"/><path class="cls-1" d="M727.8,280c-.27-.33-.53-.65-.77-1m-3.35-4.57-59.09-78.62h0"/><path class="cls-1" d="M775.23,301.53c44.41-.69,72.61-50.38,50.49-88.87a59.59,59.59,0,0,0-52-30.44H671.39a8.5,8.5,0,0,0-6.8,13.61c5.09,6.64,10.62,16.82,20.33,16.22h29.87a5,5,0,0,1,4.67,6.62C701.37,257.84,732.19,303,775.23,301.53ZM771,271.6c-17.23-1.17-30.35-18.93-26.48-35.73,3.33-19.06,26.72-30,43.44-20.21a29.67,29.67,0,0,1,5.85,4.15C814.84,238.76,799.15,274.36,771,271.6Z"/><path class="cls-2" d="M717.25,249.41c-3.13-9.12-.12-18.83-.7-28.22,1.48-2.65.91-6.3-2.86-6.93A177.71,177.71,0,0,0,687,211.81c-4.46-.06-6.43,5.45-3.54,8.54,9.52,10.15,18.39,20.35,24.61,32.92C710.6,258.31,719.08,254.79,717.25,249.41Z"/><path class="cls-1" d="M642.38,203.8c.27.33.53.65.77,1m3.35,4.57c9.06,12,51,67.8,59.08,78.62h0"/><path class="cls-1" d="M595,182.25c-44.41.68-72.62,50.37-50.49,88.87a59.63,59.63,0,0,0,52,30.44H698.78a8.5,8.5,0,0,0,6.8-13.61c-5.09-6.64-10.61-16.82-20.32-16.22H655.39a5,5,0,0,1-4.68-6.62C668.81,225.93,638,180.81,595,182.25Zm4.28,29.93c17.22,1.16,30.35,18.93,26.48,35.73-3.33,19.06-26.72,30-43.44,20.21a30.52,30.52,0,0,1-5.85-4.15C555.34,245,571,209.42,599.23,212.18Z"/><path class="cls-2" d="M652.93,234.36c3.13,9.13.12,18.83.69,28.23-1.47,2.64-.9,6.3,2.87,6.92A177.71,177.71,0,0,0,683.14,272c4.46.07,6.43-5.44,3.54-8.53-9.53-10.15-18.39-20.36-24.61-32.92C659.58,225.47,651.1,229,652.93,234.36Z"/><path class="cls-1" d="M727.79,102.87c-.27-.33-.53-.65-.77-1m-3.35-4.57c-9.06-12.06-51-67.8-59.08-78.62h0"/><path class="cls-1" d="M775.22,124.42c44.41-.69,72.62-50.38,50.49-88.87a59.56,59.56,0,0,0-52-30.44H671.39a8.5,8.5,0,0,0-6.8,13.61c5.09,6.64,10.62,16.82,20.33,16.22h29.87a5,5,0,0,1,4.67,6.62C701.36,80.73,732.19,125.86,775.22,124.42ZM771,94.49c-17.23-1.17-30.35-18.93-26.48-35.73,3.33-19.06,26.71-30,43.44-20.21a30,30,0,0,1,5.85,4.15C814.84,61.65,799.15,97.25,771,94.49Z"/><path class="cls-2" d="M717.24,72.3c-3.12-9.12-.11-18.83-.69-28.22,1.48-2.65.91-6.3-2.87-6.93A177.59,177.59,0,0,0,687,34.7c-4.45-.06-6.43,5.45-3.53,8.54,9.52,10.15,18.38,20.35,24.6,32.92C710.6,81.2,719.07,77.68,717.24,72.3Z"/><path class="cls-1" d="M642.38,26.69c.27.33.53.65.77,1m3.35,4.57c9.06,12.06,51,67.8,59.08,78.62h0"/><path class="cls-1" d="M595,5.14c-44.41.68-72.62,50.37-50.49,88.87a59.58,59.58,0,0,0,52,30.44H698.78a8.5,8.5,0,0,0,6.8-13.61C700.49,104.2,695,94,685.25,94.62H655.38A5,5,0,0,1,650.71,88C668.81,48.82,638,3.7,595,5.14Zm4.28,29.93C616.45,36.23,629.58,54,625.71,70.8c-3.34,19.06-26.72,30-43.44,20.21a30.52,30.52,0,0,1-5.85-4.15C555.33,67.91,571,32.31,599.23,35.07Z"/><path class="cls-2" d="M652.93,57.25c3.12,9.13.12,18.83.69,28.23-1.48,2.64-.9,6.3,2.87,6.92a177.59,177.59,0,0,0,26.65,2.45c4.45.07,6.43-5.44,3.53-8.53C677.15,76.17,668.29,66,662.07,53.4,659.57,48.36,651.1,51.88,652.93,57.25Z"/><path class="cls-1" d="M558.33,196l1-.77m4.57-3.35c12.06-9.06,67.8-51,78.62-59.08h0"/><path class="cls-1" d="M536.78,243.47c.69,44.41,50.38,72.62,88.88,50.49a59.57,59.57,0,0,0,30.43-52V139.64a8.5,8.5,0,0,0-13.61-6.8c-6.64,5.09-16.82,10.62-16.21,20.33V183a5,5,0,0,1-6.61,4.67C580.47,169.61,535.35,200.44,536.78,243.47Zm29.93-4.28c1.17-17.22,18.94-30.35,35.74-26.48,19,3.33,29.95,26.72,20.2,43.44A29.67,29.67,0,0,1,618.5,262C599.56,283.09,564,267.39,566.71,239.19Z"/><path class="cls-2" d="M588.9,185.49c9.13-3.12,18.83-.12,28.22-.69,2.65,1.48,6.31.9,6.93-2.87a177.59,177.59,0,0,0,2.45-26.65c.07-4.46-5.45-6.43-8.53-3.53-10.16,9.52-20.36,18.38-32.92,24.6C580,178.85,583.52,187.32,588.9,185.49Z"/><path class="cls-1" d="M634.52,110.62l-1,.77M629,114.74c-12.06,9.07-67.8,51-78.62,59.09h0"/><path class="cls-1" d="M656.07,63.19c-.69-44.4-50.38-72.61-88.88-50.48a59.57,59.57,0,0,0-30.43,52V167a8.5,8.5,0,0,0,13.61,6.8c6.64-5.09,16.82-10.62,16.21-20.33V123.63A5,5,0,0,1,573.2,119C612.38,137.06,657.5,106.23,656.07,63.19Zm-29.93,4.28C625,84.7,607.2,97.82,590.4,94c-19-3.33-29.95-26.71-20.2-43.44a30,30,0,0,1,4.15-5.85C593.29,23.58,628.9,39.27,626.14,67.47Z"/><path class="cls-2" d="M604,121.18c-9.13,3.12-18.83.11-28.22.69-2.65-1.48-6.31-.91-6.93,2.87a177.59,177.59,0,0,0-2.45,26.65c-.07,4.45,5.45,6.43,8.53,3.53,10.16-9.52,20.36-18.38,32.92-24.6C612.84,127.82,609.33,119.35,604,121.18Z"/><path class="cls-1" d="M735.55,196l1-.77m4.57-3.35c12.06-9.06,67.8-51,78.62-59.08h0"/><path class="cls-1" d="M714,243.47c.69,44.41,50.37,72.62,88.87,50.49a59.58,59.58,0,0,0,30.44-52V139.64a8.5,8.5,0,0,0-13.61-6.8c-6.64,5.09-16.82,10.62-16.22,20.33V183a5,5,0,0,1-6.62,4.67C757.69,169.61,712.56,200.44,714,243.47Zm29.93-4.28c1.16-17.22,18.93-30.35,35.73-26.48,19.06,3.33,30,26.72,20.21,43.44a30.52,30.52,0,0,1-4.15,5.85C776.77,283.09,741.17,267.39,743.93,239.19Z"/><path class="cls-2" d="M766.11,185.49c9.13-3.12,18.83-.12,28.23-.69,2.64,1.48,6.3.9,6.93-2.87a178.91,178.91,0,0,0,2.45-26.65c.06-4.46-5.45-6.43-8.54-3.53-10.15,9.52-20.36,18.38-32.92,24.6C757.22,178.85,760.74,187.32,766.11,185.49Z"/><path class="cls-1" d="M811.73,110.62l-1,.77m-4.57,3.35c-12.06,9.07-67.8,51-78.62,59.09h0"/><path class="cls-1" d="M833.28,63.19c-.69-44.4-50.38-72.61-88.87-50.48a59.56,59.56,0,0,0-30.44,52V167a8.5,8.5,0,0,0,13.61,6.8c6.64-5.09,16.82-10.62,16.22-20.33V123.63a5,5,0,0,1,6.62-4.67C789.59,137.06,834.72,106.23,833.28,63.19Zm-29.93,4.28C802.19,84.7,784.42,97.82,767.62,94c-19.06-3.33-30-26.71-20.21-43.44a30,30,0,0,1,4.15-5.85C770.51,23.58,806.11,39.27,803.35,67.47Z"/><path class="cls-2" d="M781.16,121.18c-9.12,3.12-18.82.11-28.22.69-2.65-1.48-6.3-.91-6.93,2.87a178.91,178.91,0,0,0-2.45,26.65c-.06,4.45,5.45,6.43,8.54,3.53,10.15-9.52,20.36-18.38,32.92-24.6C790.06,127.82,786.54,119.35,781.16,121.18Z"/><path class="cls-1" d="M550.81,811.68c-.27-.33-.53-.65-.77-1m-3.35-4.57-59.08-78.61h0"/><path class="cls-1" d="M598.24,833.23c44.41-.68,72.62-50.37,50.49-88.87a59.6,59.6,0,0,0-52-30.44H494.41a8.51,8.51,0,0,0-6.8,13.62c5.09,6.64,10.62,16.82,20.33,16.21h29.87a5,5,0,0,1,4.67,6.62C524.38,789.55,555.21,834.67,598.24,833.23ZM594,803.3c-17.22-1.16-30.35-18.93-26.48-35.73,3.34-19.05,26.72-30,43.44-20.21a30.52,30.52,0,0,1,5.85,4.15C637.86,770.46,622.17,806.07,594,803.3Z"/><path class="cls-2" d="M540.26,781.12c-3.12-9.13-.12-18.83-.69-28.22,1.48-2.65.9-6.31-2.87-6.93a177.59,177.59,0,0,0-26.65-2.45c-4.45-.07-6.43,5.45-3.53,8.53,9.52,10.16,18.38,20.36,24.6,32.92C533.62,790,542.09,786.49,540.26,781.12Z"/><path class="cls-1" d="M465.39,735.5c.27.33.53.65.77,1m3.35,4.57c9.07,12.06,51,67.8,59.09,78.62h0"/><path class="cls-1" d="M418,714c-44.4.69-72.61,50.38-50.48,88.87a59.56,59.56,0,0,0,52,30.44H521.8a8.5,8.5,0,0,0,6.8-13.61c-5.09-6.64-10.62-16.82-20.33-16.22H478.4a5,5,0,0,1-4.67-6.61C491.83,757.64,461,712.52,418,714Zm4.28,29.93c17.23,1.17,30.35,18.93,26.48,35.73-3.33,19.06-26.71,30-43.44,20.21a30,30,0,0,1-5.85-4.15C378.35,776.73,394,741.12,422.24,743.88Z"/><path class="cls-2" d="M476,766.07c3.12,9.13.11,18.83.69,28.22-1.48,2.65-.91,6.31,2.87,6.93a177.59,177.59,0,0,0,26.65,2.45c4.45.07,6.43-5.45,3.53-8.53-9.52-10.16-18.38-20.36-24.6-32.92C482.59,757.18,474.12,760.69,476,766.07Z"/><path class="cls-1" d="M550.81,634.57c-.27-.33-.53-.65-.77-1M546.69,629c-9.06-12-51-67.79-59.08-78.61h0"/><path class="cls-1" d="M598.24,656.12c44.41-.68,72.62-50.37,50.49-88.87a59.63,59.63,0,0,0-52-30.44H494.41a8.51,8.51,0,0,0-6.8,13.62c5.09,6.64,10.61,16.82,20.32,16.21H537.8a5,5,0,0,1,4.68,6.62C524.38,612.44,555.2,657.56,598.24,656.12ZM594,626.19c-17.22-1.16-30.35-18.93-26.48-35.73,3.33-19.05,26.72-30,43.44-20.21a30.52,30.52,0,0,1,5.85,4.15C637.85,593.35,622.16,629,594,626.19Z"/><path class="cls-2" d="M540.26,604c-3.13-9.13-.12-18.83-.69-28.22,1.47-2.65.9-6.31-2.87-6.93a177.71,177.71,0,0,0-26.65-2.45c-4.46-.07-6.43,5.45-3.54,8.53,9.52,10.16,18.39,20.36,24.61,32.92C533.61,612.9,542.09,609.38,540.26,604Z"/><path class="cls-1" d="M465.39,558.39c.27.33.53.65.77,1m3.35,4.57c9.06,12.06,51,67.8,59.08,78.62h0"/><path class="cls-1" d="M418,536.84c-44.41.69-72.61,50.38-50.49,88.87a59.59,59.59,0,0,0,52,30.44H521.8a8.5,8.5,0,0,0,6.79-13.61c-5.09-6.64-10.61-16.82-20.32-16.22H478.4a5,5,0,0,1-4.67-6.61C491.82,580.53,461,535.41,418,536.84Zm4.28,29.93c17.22,1.17,30.35,18.94,26.48,35.73-3.33,19.06-26.72,30-43.44,20.21a29.67,29.67,0,0,1-5.85-4.15C378.35,599.62,394,564,422.24,566.77Z"/><path class="cls-2" d="M475.94,589c3.13,9.13.12,18.83.7,28.22-1.48,2.65-.91,6.31,2.86,6.93a177.71,177.71,0,0,0,26.65,2.45c4.46.07,6.43-5.45,3.54-8.53-9.52-10.16-18.39-20.36-24.61-32.92C482.59,580.07,474.11,583.58,475.94,589Z"/><path class="cls-1" d="M381.35,727.75l1-.77m4.57-3.35c12.06-9.06,67.8-51,78.62-59.08h0"/><path class="cls-1" d="M359.8,775.18c.69,44.41,50.38,72.62,88.87,50.49a59.61,59.61,0,0,0,30.44-52V671.35a8.5,8.5,0,0,0-13.61-6.8c-6.64,5.09-16.82,10.61-16.22,20.32v29.88a5,5,0,0,1-6.62,4.67C403.49,701.32,358.36,732.14,359.8,775.18Zm29.93-4.28c1.16-17.22,18.93-30.35,35.73-26.48,19.06,3.33,30,26.72,20.21,43.44a30.09,30.09,0,0,1-4.15,5.85C422.57,814.79,387,799.1,389.73,770.9Z"/><path class="cls-2" d="M411.91,717.2c9.13-3.13,18.83-.12,28.23-.69,2.64,1.47,6.3.9,6.93-2.87A179,179,0,0,0,449.52,687c.06-4.46-5.45-6.43-8.54-3.54-10.15,9.53-20.36,18.39-32.92,24.61C403,710.55,406.54,719,411.91,717.2Z"/><path class="cls-1" d="M457.53,642.33l-1,.77M452,646.45l-78.62,59.09h0"/><path class="cls-1" d="M479.08,594.9c-.69-44.41-50.38-72.61-88.87-50.49a59.61,59.61,0,0,0-30.44,52v102.3a8.5,8.5,0,0,0,13.61,6.8c6.64-5.09,16.82-10.62,16.22-20.33V655.34a5,5,0,0,1,6.62-4.67C435.39,668.76,480.52,637.94,479.08,594.9Zm-29.93,4.28c-1.16,17.23-18.93,30.35-35.73,26.48-19.06-3.33-30-26.72-20.21-43.44a30.09,30.09,0,0,1,4.15-5.85C416.31,555.29,451.91,571,449.15,599.18Z"/><path class="cls-2" d="M427,652.89c-9.13,3.12-18.83.11-28.23.69-2.64-1.48-6.3-.91-6.93,2.86a179.15,179.15,0,0,0-2.45,26.65c-.06,4.46,5.45,6.43,8.54,3.54,10.15-9.52,20.36-18.38,32.92-24.61C435.86,659.53,432.34,651.05,427,652.89Z"/><path class="cls-1" d="M558.56,727.75l1-.77m4.57-3.35c12.06-9.06,67.8-51,78.62-59.08h0"/><path class="cls-1" d="M537,775.18c.69,44.41,50.38,72.62,88.87,50.49a59.59,59.59,0,0,0,30.44-52V671.35a8.5,8.5,0,0,0-13.61-6.8c-6.64,5.09-16.82,10.61-16.22,20.32v29.88a5,5,0,0,1-6.62,4.67C580.7,701.32,535.58,732.14,537,775.18Zm29.93-4.28c1.17-17.22,18.93-30.35,35.73-26.48,19.06,3.33,30,26.72,20.21,43.44a29.67,29.67,0,0,1-4.15,5.85C599.78,814.79,564.18,799.1,566.94,770.9Z"/><path class="cls-2" d="M589.13,717.2c9.13-3.13,18.83-.12,28.22-.69,2.65,1.47,6.31.9,6.93-2.87A177.71,177.71,0,0,0,626.73,687c.07-4.46-5.45-6.43-8.53-3.54C608,693,597.84,701.84,585.27,708.06,580.24,710.55,583.75,719,589.13,717.2Z"/><path class="cls-1" d="M634.74,642.33l-1,.77m-4.57,3.35L550.6,705.54h0"/><path class="cls-1" d="M656.29,594.9c-.68-44.41-50.37-72.61-88.87-50.49a59.63,59.63,0,0,0-30.44,52v102.3a8.51,8.51,0,0,0,13.62,6.8c6.63-5.09,16.81-10.62,16.21-20.33V655.34a5,5,0,0,1,6.62-4.67C612.61,668.76,657.73,637.94,656.29,594.9Zm-29.93,4.28c-1.16,17.23-18.93,30.35-35.73,26.48-19-3.33-30-26.72-20.21-43.44a30.52,30.52,0,0,1,4.15-5.85C593.52,555.29,629.13,571,626.36,599.18Z"/><path class="cls-2" d="M604.18,652.89c-9.13,3.12-18.83.11-28.23.69-2.64-1.48-6.3-.91-6.92,2.86a177.83,177.83,0,0,0-2.45,26.65c-.07,4.46,5.44,6.43,8.53,3.54,10.16-9.52,20.36-18.38,32.92-24.61C613.07,659.53,609.55,651.05,604.18,652.89Z"/><path class="cls-1" d="M728,811.68c-.27-.33-.53-.65-.77-1m-3.35-4.57c-9.07-12-51-67.8-59.09-78.61h0"/><path class="cls-1" d="M775.46,833.23c44.41-.68,72.61-50.37,50.49-88.87a59.63,59.63,0,0,0-52-30.44H671.62a8.51,8.51,0,0,0-6.8,13.62c5.09,6.64,10.62,16.82,20.33,16.21H715a5,5,0,0,1,4.67,6.62C701.6,789.55,732.42,834.67,775.46,833.23Zm-4.28-29.93c-17.23-1.16-30.35-18.93-26.48-35.73,3.33-19.05,26.72-30,43.44-20.21a30.52,30.52,0,0,1,5.85,4.15C815.07,770.46,799.38,806.07,771.18,803.3Z"/><path class="cls-2" d="M717.47,781.12c-3.12-9.13-.11-18.83-.69-28.22,1.48-2.65.91-6.31-2.86-6.93a177.83,177.83,0,0,0-26.65-2.45c-4.46-.07-6.43,5.45-3.54,8.53,9.52,10.16,18.38,20.36,24.6,32.92C710.83,790,719.31,786.49,717.47,781.12Z"/><path class="cls-1" d="M642.61,735.5c.27.33.53.65.77,1m3.35,4.57c9.06,12.06,51,67.8,59.08,78.62h0"/><path class="cls-1" d="M595.18,714c-44.41.69-72.62,50.38-50.49,88.87a59.57,59.57,0,0,0,52,30.44H699a8.5,8.5,0,0,0,6.8-13.61c-5.09-6.64-10.62-16.82-20.32-16.22H655.61a5,5,0,0,1-4.67-6.61C669,757.64,638.22,712.52,595.18,714Zm4.28,29.93c17.22,1.17,30.35,18.93,26.48,35.73-3.33,19.06-26.72,30-43.44,20.21a29.67,29.67,0,0,1-5.85-4.15C555.57,776.73,571.26,741.12,599.46,743.88Z"/><path class="cls-2" d="M653.16,766.07c3.12,9.13.12,18.83.69,28.22-1.47,2.65-.9,6.31,2.87,6.93a177.59,177.59,0,0,0,26.65,2.45c4.46.07,6.43-5.45,3.54-8.53-9.53-10.16-18.39-20.36-24.61-32.92C659.81,757.18,651.33,760.69,653.16,766.07Z"/><path class="cls-1" d="M728,634.57c-.27-.33-.53-.65-.77-1M723.9,629c-9.06-12-51-67.79-59.08-78.61h0"/><path class="cls-1" d="M775.45,656.12c44.41-.68,72.62-50.37,50.49-88.87a59.62,59.62,0,0,0-52-30.44H671.62a8.51,8.51,0,0,0-6.8,13.62c5.09,6.64,10.62,16.82,20.33,16.21H715a5,5,0,0,1,4.67,6.62C701.59,612.44,732.42,657.56,775.45,656.12Zm-4.28-29.93C754,625,740.82,607.26,744.69,590.46c3.33-19.05,26.72-30,43.44-20.21A30.52,30.52,0,0,1,794,574.4C815.07,593.35,799.37,629,771.17,626.19Z"/><path class="cls-2" d="M717.47,604c-3.12-9.13-.12-18.83-.69-28.22,1.48-2.65.9-6.31-2.87-6.93a177.59,177.59,0,0,0-26.65-2.45c-4.46-.07-6.43,5.45-3.53,8.53,9.52,10.16,18.38,20.36,24.6,32.92C710.83,612.9,719.3,609.38,717.47,604Z"/><path class="cls-1" d="M642.6,558.39c.27.33.53.65.77,1m3.35,4.57c9.07,12.06,51,67.8,59.09,78.62h0"/><path class="cls-1" d="M595.17,536.84c-44.4.69-72.61,50.38-50.49,88.87a59.59,59.59,0,0,0,52,30.44H699a8.5,8.5,0,0,0,6.8-13.61c-5.09-6.64-10.62-16.82-20.33-16.22H655.61a5,5,0,0,1-4.67-6.61C669,580.53,638.21,535.41,595.17,536.84Zm4.28,29.93c17.23,1.17,30.35,18.94,26.48,35.73-3.33,19.06-26.71,30-43.44,20.21a29.67,29.67,0,0,1-5.85-4.15C555.56,599.62,571.25,564,599.45,566.77Z"/><path class="cls-2" d="M653.16,589c3.12,9.13.11,18.83.69,28.22-1.48,2.65-.91,6.31,2.86,6.93a177.84,177.84,0,0,0,26.66,2.45c4.45.07,6.43-5.45,3.53-8.53-9.52-10.16-18.38-20.36-24.6-32.92C659.8,580.07,651.33,583.58,653.16,589Z"/><path class="cls-1" d="M558.56,727.75l1-.77m4.57-3.35c12.06-9.06,67.8-51,78.62-59.08h0"/><path class="cls-1" d="M537,775.18c.69,44.41,50.38,72.62,88.87,50.49a59.59,59.59,0,0,0,30.44-52V671.35a8.5,8.5,0,0,0-13.61-6.8c-6.64,5.09-16.82,10.61-16.22,20.32v29.88a5,5,0,0,1-6.62,4.67C580.7,701.32,535.58,732.14,537,775.18Zm29.93-4.28c1.17-17.22,18.93-30.35,35.73-26.48,19.06,3.33,30,26.72,20.21,43.44a29.67,29.67,0,0,1-4.15,5.85C599.78,814.79,564.18,799.1,566.94,770.9Z"/><path class="cls-2" d="M589.13,717.2c9.13-3.13,18.83-.12,28.22-.69,2.65,1.47,6.31.9,6.93-2.87A177.71,177.71,0,0,0,626.73,687c.07-4.46-5.45-6.43-8.53-3.54C608,693,597.84,701.84,585.27,708.06,580.24,710.55,583.75,719,589.13,717.2Z"/><path class="cls-1" d="M634.74,642.33l-1,.77m-4.57,3.35L550.6,705.54h0"/><path class="cls-1" d="M656.29,594.9c-.68-44.41-50.37-72.61-88.87-50.49a59.63,59.63,0,0,0-30.44,52v102.3a8.51,8.51,0,0,0,13.62,6.8c6.63-5.09,16.81-10.62,16.21-20.33V655.34a5,5,0,0,1,6.62-4.67C612.61,668.76,657.73,637.94,656.29,594.9Zm-29.93,4.28c-1.16,17.23-18.93,30.35-35.73,26.48-19-3.33-30-26.72-20.21-43.44a30.52,30.52,0,0,1,4.15-5.85C593.52,555.29,629.13,571,626.36,599.18Z"/><path class="cls-2" d="M604.18,652.89c-9.13,3.12-18.83.11-28.23.69-2.64-1.48-6.3-.91-6.92,2.86a177.83,177.83,0,0,0-2.45,26.65c-.07,4.46,5.44,6.43,8.53,3.54,10.16-9.52,20.36-18.38,32.92-24.61C613.07,659.53,609.55,651.05,604.18,652.89Z"/><path class="cls-1" d="M735.78,727.75l1-.77m4.57-3.35,78.61-59.08h0"/><path class="cls-1" d="M714.23,775.18c.68,44.41,50.37,72.62,88.87,50.49a59.63,59.63,0,0,0,30.44-52V671.35a8.51,8.51,0,0,0-13.62-6.8c-6.63,5.09-16.81,10.61-16.21,20.32v29.88a5,5,0,0,1-6.62,4.67C757.91,701.32,712.79,732.14,714.23,775.18Zm29.93-4.28c1.16-17.22,18.93-30.35,35.73-26.48,19.06,3.33,30,26.72,20.21,43.44a30.52,30.52,0,0,1-4.15,5.85C777,814.79,741.4,799.1,744.16,770.9Z"/><path class="cls-2" d="M766.34,717.2c9.13-3.13,18.83-.12,28.23-.69,2.64,1.47,6.3.9,6.92-2.87A177.71,177.71,0,0,0,803.94,687c.07-4.46-5.44-6.43-8.53-3.54-10.16,9.53-20.36,18.39-32.92,24.61C757.45,710.55,761,719,766.34,717.2Z"/><path class="cls-1" d="M812,642.33l-1,.77m-4.57,3.35-78.62,59.09h0"/><path class="cls-1" d="M833.51,594.9c-.69-44.41-50.38-72.61-88.87-50.49a59.59,59.59,0,0,0-30.44,52v102.3a8.5,8.5,0,0,0,13.61,6.8c6.64-5.09,16.82-10.62,16.22-20.33V655.34a5,5,0,0,1,6.62-4.67C789.82,668.76,835,637.94,833.51,594.9Zm-29.93,4.28c-1.17,17.23-18.93,30.35-35.73,26.48-19.06-3.33-30-26.72-20.21-43.44a29.67,29.67,0,0,1,4.15-5.85C770.74,555.29,806.34,571,803.58,599.18Z"/><path class="cls-2" d="M781.39,652.89c-9.12,3.12-18.83.11-28.22.69-2.65-1.48-6.31-.91-6.93,2.86a177.83,177.83,0,0,0-2.45,26.65c-.07,4.46,5.45,6.43,8.54,3.54,10.15-9.52,20.35-18.38,32.92-24.61C790.29,659.53,786.77,651.05,781.39,652.89Z"/><path class="cls-1" d="M550.7,634.47c-.27-.33-.53-.65-.77-1m-3.35-4.57-59.09-78.62h0"/><path class="cls-1" d="M598.13,656c44.41-.69,72.61-50.38,50.49-88.87a59.59,59.59,0,0,0-52-30.44H494.29a8.5,8.5,0,0,0-6.8,13.61c5.09,6.64,10.62,16.82,20.33,16.22h29.87a5,5,0,0,1,4.67,6.62C524.27,612.33,555.09,657.46,598.13,656Zm-4.28-29.93c-17.23-1.17-30.35-18.93-26.48-35.73,3.33-19.06,26.72-30,43.44-20.21a29.67,29.67,0,0,1,5.85,4.15C637.74,593.25,622.05,628.85,593.85,626.09Z"/><path class="cls-2" d="M540.15,603.9c-3.13-9.12-.12-18.83-.7-28.22,1.48-2.65.91-6.3-2.86-6.93a177.71,177.71,0,0,0-26.65-2.45c-4.46-.06-6.43,5.45-3.54,8.54,9.52,10.15,18.39,20.35,24.61,32.92C533.5,612.8,542,609.28,540.15,603.9Z"/><path class="cls-1" d="M465.28,558.29c.27.33.53.65.77,1m3.35,4.57c9.06,12.06,51,67.8,59.08,78.62h0"/><path class="cls-1" d="M417.85,536.74c-44.41.68-72.62,50.37-50.49,88.87a59.61,59.61,0,0,0,52,30.44H521.68a8.5,8.5,0,0,0,6.8-13.61c-5.09-6.64-10.61-16.82-20.32-16.22H478.29a5,5,0,0,1-4.68-6.62C491.71,580.42,460.89,535.3,417.85,536.74Zm4.28,29.93c17.22,1.16,30.35,18.93,26.48,35.73-3.33,19.06-26.72,30-43.44,20.21a30.52,30.52,0,0,1-5.85-4.15C378.24,599.51,393.93,563.91,422.13,566.67Z"/><path class="cls-2" d="M475.83,588.85c3.13,9.13.12,18.83.69,28.23-1.47,2.64-.9,6.3,2.87,6.92A177.71,177.71,0,0,0,506,626.45c4.46.07,6.43-5.44,3.54-8.53C500.05,607.77,491.19,597.56,485,585,482.48,580,474,583.48,475.83,588.85Z"/><path class="cls-1" d="M550.69,457.36c-.27-.33-.53-.65-.77-1m-3.35-4.57c-9.06-12.06-51-67.8-59.08-78.62h0"/><path class="cls-1" d="M598.12,478.91c44.41-.69,72.62-50.38,50.49-88.87a59.56,59.56,0,0,0-52-30.44H494.29a8.5,8.5,0,0,0-6.8,13.61c5.09,6.64,10.62,16.82,20.33,16.22h29.87a5,5,0,0,1,4.67,6.62C524.26,435.22,555.09,480.35,598.12,478.91ZM593.84,449c-17.22-1.17-30.34-18.93-26.47-35.73,3.33-19.06,26.71-30,43.43-20.21a29.38,29.38,0,0,1,5.85,4.15C637.74,416.14,622.05,451.74,593.84,449Z"/><path class="cls-2" d="M540.14,426.79c-3.12-9.12-.11-18.83-.69-28.22,1.48-2.65.91-6.3-2.87-6.93a177.59,177.59,0,0,0-26.65-2.45c-4.45-.06-6.43,5.45-3.53,8.54,9.52,10.15,18.38,20.35,24.6,32.92C533.5,435.69,542,432.17,540.14,426.79Z"/><path class="cls-1" d="M465.28,381.18c.27.33.53.65.77,1m3.35,4.57c9.06,12.06,51,67.8,59.08,78.62h0"/><path class="cls-1" d="M417.85,359.63c-44.41.68-72.62,50.37-50.49,88.87a59.58,59.58,0,0,0,52,30.44H521.68a8.5,8.5,0,0,0,6.8-13.61c-5.09-6.64-10.62-16.82-20.33-16.22H478.28a5,5,0,0,1-4.67-6.62C491.71,403.31,460.88,358.19,417.85,359.63Zm4.28,29.93c17.22,1.16,30.35,18.93,26.48,35.73-3.34,19.06-26.72,29.95-43.44,20.21a30.52,30.52,0,0,1-5.85-4.15C378.23,422.4,393.92,386.8,422.13,389.56Z"/><path class="cls-2" d="M475.83,411.74c3.12,9.13.12,18.83.69,28.23-1.48,2.64-.9,6.3,2.87,6.92A177.59,177.59,0,0,0,506,449.34c4.45.07,6.43-5.44,3.53-8.53-9.52-10.15-18.38-20.36-24.6-32.92C482.47,402.85,474,406.37,475.83,411.74Z"/><path class="cls-1" d="M381.23,550.53l1-.77m4.57-3.35c12.06-9.06,67.8-51,78.62-59.08h0"/><path class="cls-1" d="M359.68,598c.69,44.41,50.38,72.62,88.88,50.49a59.57,59.57,0,0,0,30.43-52V494.13a8.5,8.5,0,0,0-13.61-6.8c-6.64,5.09-16.82,10.62-16.21,20.33v29.87a5,5,0,0,1-6.61,4.67C403.37,524.1,358.25,554.93,359.68,598Zm29.93-4.28c1.17-17.22,18.94-30.35,35.74-26.48,19,3.33,29.95,26.72,20.2,43.44a29.67,29.67,0,0,1-4.15,5.85C422.46,637.58,386.85,621.89,389.61,593.68Z"/><path class="cls-2" d="M411.8,540c9.13-3.12,18.83-.12,28.22-.69,2.65,1.48,6.31.9,6.93-2.87a177.59,177.59,0,0,0,2.45-26.65c.07-4.46-5.45-6.43-8.53-3.53-10.16,9.52-20.36,18.38-32.92,24.6C402.91,533.34,406.42,541.81,411.8,540Z"/><path class="cls-1" d="M457.42,465.11l-1,.77m-4.57,3.35c-12.06,9.07-67.8,51-78.62,59.09h0"/><path class="cls-1" d="M479,417.68c-.69-44.4-50.38-72.61-88.88-50.48a59.57,59.57,0,0,0-30.43,52v102.3a8.5,8.5,0,0,0,13.61,6.8c6.64-5.09,16.82-10.62,16.21-20.33V478.12a5,5,0,0,1,6.61-4.67C435.28,491.55,480.4,460.72,479,417.68ZM449,422c-1.17,17.23-18.94,30.35-35.74,26.48-19.05-3.33-29.95-26.71-20.2-43.44a30,30,0,0,1,4.15-5.85C416.19,378.07,451.8,393.76,449,422Z"/><path class="cls-2" d="M426.85,475.67c-9.13,3.12-18.83.11-28.22.69-2.65-1.48-6.31-.91-6.93,2.87a177.59,177.59,0,0,0-2.45,26.65c-.07,4.45,5.45,6.43,8.53,3.53,10.16-9.52,20.36-18.38,32.92-24.6C435.74,482.31,432.23,473.84,426.85,475.67Z"/><path class="cls-1" d="M558.45,550.53l1-.77m4.57-3.35c12.06-9.06,67.8-51,78.62-59.08h0"/><path class="cls-1" d="M536.9,598c.69,44.41,50.37,72.62,88.87,50.49a59.58,59.58,0,0,0,30.44-52V494.13a8.5,8.5,0,0,0-13.61-6.8c-6.64,5.09-16.82,10.62-16.22,20.33v29.87a5,5,0,0,1-6.62,4.67C580.59,524.1,535.46,554.93,536.9,598Zm29.93-4.28c1.16-17.22,18.93-30.35,35.73-26.48,19.06,3.33,30,26.72,20.21,43.44a30.52,30.52,0,0,1-4.15,5.85C599.67,637.58,564.07,621.89,566.83,593.68Z"/><path class="cls-2" d="M589,540c9.13-3.12,18.83-.12,28.23-.69,2.64,1.48,6.3.9,6.93-2.87a178.91,178.91,0,0,0,2.45-26.65c.06-4.46-5.45-6.43-8.54-3.53-10.15,9.52-20.36,18.38-32.92,24.6C580.12,533.34,583.64,541.81,589,540Z"/><path class="cls-1" d="M634.63,465.11l-1,.77m-4.57,3.35c-12.06,9.07-67.8,51-78.62,59.09h0"/><path class="cls-1" d="M656.18,417.68c-.69-44.4-50.38-72.61-88.87-50.48a59.56,59.56,0,0,0-30.44,52v102.3a8.5,8.5,0,0,0,13.61,6.8c6.64-5.09,16.82-10.62,16.22-20.33V478.12a5,5,0,0,1,6.62-4.67C612.49,491.55,657.62,460.72,656.18,417.68ZM626.25,422c-1.17,17.23-18.93,30.35-35.73,26.48-19.06-3.33-30-26.71-20.21-43.44a30,30,0,0,1,4.15-5.85C593.41,378.07,629,393.76,626.25,422Z"/><path class="cls-2" d="M604.06,475.67c-9.12,3.12-18.82.11-28.22.69-2.65-1.48-6.3-.91-6.93,2.87a178.91,178.91,0,0,0-2.45,26.65c-.06,4.45,5.45,6.43,8.54,3.53,10.15-9.52,20.35-18.38,32.92-24.6C613,482.31,609.44,473.84,604.06,475.67Z"/><path class="cls-1" d="M727.91,634.47c-.27-.33-.53-.65-.77-1m-3.35-4.57c-9.06-12.06-51-67.8-59.08-78.62h0"/><path class="cls-1" d="M775.34,656c44.41-.69,72.62-50.38,50.49-88.87a59.57,59.57,0,0,0-52-30.44H671.51a8.5,8.5,0,0,0-6.8,13.61c5.09,6.64,10.62,16.82,20.32,16.22h29.88a5,5,0,0,1,4.67,6.62C701.48,612.33,732.3,657.46,775.34,656Zm-4.28-29.93c-17.22-1.17-30.35-18.93-26.48-35.73,3.33-19.06,26.72-30,43.44-20.21a29.67,29.67,0,0,1,5.85,4.15C815,593.25,799.26,628.85,771.06,626.09Z"/><path class="cls-2" d="M717.36,603.9c-3.12-9.12-.12-18.83-.69-28.22,1.48-2.65.9-6.3-2.87-6.93a177.59,177.59,0,0,0-26.65-2.45c-4.46-.06-6.43,5.45-3.53,8.54,9.52,10.15,18.38,20.35,24.6,32.92C710.71,612.8,719.19,609.28,717.36,603.9Z"/><path class="cls-1" d="M642.49,558.29c.27.33.53.65.77,1m3.35,4.57,59.09,78.62h0"/><path class="cls-1" d="M595.06,536.74c-44.41.68-72.61,50.37-50.49,88.87a59.61,59.61,0,0,0,52,30.44H698.9a8.5,8.5,0,0,0,6.8-13.61c-5.09-6.64-10.62-16.82-20.33-16.22H655.5a5,5,0,0,1-4.67-6.62C668.92,580.42,638.1,535.3,595.06,536.74Zm4.28,29.93c17.23,1.16,30.35,18.93,26.48,35.73-3.33,19.06-26.71,30-43.44,20.21a30.52,30.52,0,0,1-5.85-4.15C555.45,599.51,571.14,563.91,599.34,566.67Z"/><path class="cls-2" d="M653.05,588.85c3.12,9.13.11,18.83.69,28.23-1.48,2.64-.91,6.3,2.86,6.92a177.83,177.83,0,0,0,26.65,2.45c4.46.07,6.43-5.44,3.54-8.53-9.52-10.15-18.38-20.36-24.6-32.92C659.69,580,651.21,583.48,653.05,588.85Z"/><path class="cls-1" d="M727.91,457.36c-.27-.33-.53-.65-.77-1m-3.35-4.57L664.7,373.21h0"/><path class="cls-1" d="M775.34,478.91c44.41-.69,72.61-50.38,50.49-88.87a59.59,59.59,0,0,0-52-30.44H671.5a8.5,8.5,0,0,0-6.8,13.61c5.09,6.64,10.62,16.82,20.33,16.22H714.9a5,5,0,0,1,4.67,6.62C701.48,435.22,732.3,480.35,775.34,478.91ZM771.06,449c-17.23-1.17-30.35-18.93-26.48-35.73,3.33-19.06,26.72-30,43.44-20.21a29.67,29.67,0,0,1,5.85,4.15C815,416.14,799.26,451.74,771.06,449Z"/><path class="cls-2" d="M717.35,426.79c-3.12-9.12-.11-18.83-.69-28.22,1.48-2.65.91-6.3-2.86-6.93a177.83,177.83,0,0,0-26.65-2.45c-4.46-.06-6.43,5.45-3.54,8.54,9.52,10.15,18.38,20.35,24.61,32.92C710.71,435.69,719.19,432.17,717.35,426.79Z"/><path class="cls-1" d="M642.49,381.18c.27.33.53.65.77,1m3.35,4.57c9.06,12.06,51,67.8,59.08,78.62h0"/><path class="cls-1" d="M595.06,359.63c-44.41.68-72.62,50.37-50.49,88.87a59.61,59.61,0,0,0,52,30.44H698.89a8.5,8.5,0,0,0,6.8-13.61c-5.09-6.64-10.61-16.82-20.32-16.22H655.49a5,5,0,0,1-4.67-6.62C668.92,403.31,638.1,358.19,595.06,359.63Zm4.28,29.93c17.22,1.16,30.35,18.93,26.48,35.73-3.33,19.06-26.72,29.95-43.44,20.21a30.52,30.52,0,0,1-5.85-4.15C555.45,422.4,571.14,386.8,599.34,389.56Z"/><path class="cls-2" d="M653,411.74c3.13,9.13.12,18.83.69,28.23-1.47,2.64-.9,6.3,2.87,6.92a177.71,177.71,0,0,0,26.65,2.45c4.46.07,6.43-5.44,3.54-8.53-9.53-10.15-18.39-20.36-24.61-32.92C659.69,402.85,651.21,406.37,653,411.74Z"/><path class="cls-1" d="M558.45,550.53l1-.77m4.57-3.35c12.06-9.06,67.8-51,78.62-59.08h0"/><path class="cls-1" d="M536.9,598c.69,44.41,50.37,72.62,88.87,50.49a59.58,59.58,0,0,0,30.44-52V494.13a8.5,8.5,0,0,0-13.61-6.8c-6.64,5.09-16.82,10.62-16.22,20.33v29.87a5,5,0,0,1-6.62,4.67C580.59,524.1,535.46,554.93,536.9,598Zm29.93-4.28c1.16-17.22,18.93-30.35,35.73-26.48,19.06,3.33,30,26.72,20.21,43.44a30.52,30.52,0,0,1-4.15,5.85C599.67,637.58,564.07,621.89,566.83,593.68Z"/><path class="cls-2" d="M589,540c9.13-3.12,18.83-.12,28.23-.69,2.64,1.48,6.3.9,6.93-2.87a178.91,178.91,0,0,0,2.45-26.65c.06-4.46-5.45-6.43-8.54-3.53-10.15,9.52-20.36,18.38-32.92,24.6C580.12,533.34,583.64,541.81,589,540Z"/><path class="cls-1" d="M634.63,465.11l-1,.77m-4.57,3.35c-12.06,9.07-67.8,51-78.62,59.09h0"/><path class="cls-1" d="M656.18,417.68c-.69-44.4-50.38-72.61-88.87-50.48a59.56,59.56,0,0,0-30.44,52v102.3a8.5,8.5,0,0,0,13.61,6.8c6.64-5.09,16.82-10.62,16.22-20.33V478.12a5,5,0,0,1,6.62-4.67C612.49,491.55,657.62,460.72,656.18,417.68ZM626.25,422c-1.17,17.23-18.93,30.35-35.73,26.48-19.06-3.33-30-26.71-20.21-43.44a30,30,0,0,1,4.15-5.85C593.41,378.07,629,393.76,626.25,422Z"/><path class="cls-2" d="M604.06,475.67c-9.12,3.12-18.82.11-28.22.69-2.65-1.48-6.3-.91-6.93,2.87a178.91,178.91,0,0,0-2.45,26.65c-.06,4.45,5.45,6.43,8.54,3.53,10.15-9.52,20.35-18.38,32.92-24.6C613,482.31,609.44,473.84,604.06,475.67Z"/><path class="cls-1" d="M735.66,550.53l1-.77m4.57-3.35c12.06-9.06,67.8-51,78.62-59.08h0"/><path class="cls-1" d="M714.11,598c.69,44.41,50.38,72.62,88.87,50.49a59.56,59.56,0,0,0,30.44-52V494.13a8.5,8.5,0,0,0-13.61-6.8c-6.64,5.09-16.82,10.62-16.22,20.33v29.87A5,5,0,0,1,797,542.2C757.8,524.1,712.67,554.93,714.11,598ZM744,593.68c1.16-17.22,18.93-30.35,35.73-26.48,19.06,3.33,30,26.72,20.21,43.44a29.67,29.67,0,0,1-4.15,5.85C776.88,637.58,741.28,621.89,744,593.68Z"/><path class="cls-2" d="M766.23,540c9.12-3.12,18.82-.12,28.22-.69,2.65,1.48,6.3.9,6.93-2.87a178.91,178.91,0,0,0,2.45-26.65c.06-4.46-5.45-6.43-8.54-3.53-10.15,9.52-20.36,18.38-32.92,24.6C757.33,533.34,760.85,541.81,766.23,540Z"/><path class="cls-1" d="M811.84,465.11l-1,.77m-4.57,3.35c-12.06,9.07-67.8,51-78.62,59.09h0"/><path class="cls-1" d="M833.39,417.68c-.69-44.4-50.37-72.61-88.87-50.48a59.58,59.58,0,0,0-30.44,52v102.3a8.5,8.5,0,0,0,13.61,6.8c6.64-5.09,16.82-10.62,16.22-20.33V478.12a5,5,0,0,1,6.62-4.67C789.7,491.55,834.83,460.72,833.39,417.68ZM803.46,422c-1.16,17.23-18.93,30.35-35.73,26.48-19.06-3.33-30-26.71-20.21-43.44a30.84,30.84,0,0,1,4.15-5.85C770.62,378.07,806.22,393.76,803.46,422Z"/><path class="cls-2" d="M781.28,475.67c-9.13,3.12-18.83.11-28.23.69-2.64-1.48-6.3-.91-6.93,2.87a178.91,178.91,0,0,0-2.45,26.65c-.06,4.45,5.45,6.43,8.54,3.53,10.15-9.52,20.36-18.38,32.92-24.6C790.17,482.31,786.65,473.84,781.28,475.67Z"/><path class="cls-1" d="M196.16,811.73c-.27-.33-.53-.65-.77-1M192,806.2,133,727.59h0"/><path class="cls-1" d="M243.59,833.28c44.41-.68,72.62-50.37,50.49-88.87a59.62,59.62,0,0,0-52-30.44H139.76a8.51,8.51,0,0,0-6.8,13.62c5.09,6.63,10.62,16.82,20.33,16.21h29.87a5,5,0,0,1,4.67,6.62C169.73,789.6,200.56,834.72,243.59,833.28Zm-4.28-29.93c-17.22-1.16-30.35-18.93-26.48-35.73,3.33-19,26.72-30,43.44-20.21a30.52,30.52,0,0,1,5.85,4.15C283.21,770.51,267.51,806.12,239.31,803.35Z"/><path class="cls-2" d="M185.61,781.17c-3.12-9.13-.12-18.83-.69-28.23,1.48-2.64.9-6.3-2.87-6.92a177.59,177.59,0,0,0-26.65-2.45c-4.46-.07-6.43,5.45-3.53,8.53,9.52,10.16,18.38,20.36,24.6,32.92C179,790.06,187.44,786.54,185.61,781.17Z"/><path class="cls-1" d="M110.74,735.55c.27.33.53.65.77,1m3.35,4.57L174,819.7h0"/><path class="cls-1" d="M63.31,714c-44.4.69-72.61,50.38-50.49,88.87a59.59,59.59,0,0,0,52,30.44h102.3A8.5,8.5,0,0,0,174,819.7c-5.09-6.64-10.62-16.82-20.33-16.22H123.75a5,5,0,0,1-4.67-6.61C137.18,757.69,106.35,712.57,63.31,714Zm4.28,29.93c17.23,1.17,30.35,18.93,26.48,35.73-3.33,19.06-26.71,30-43.44,20.21a29.67,29.67,0,0,1-5.85-4.15C23.7,776.78,39.39,741.17,67.59,743.93Z"/><path class="cls-2" d="M121.3,766.12c3.12,9.13.11,18.83.69,28.22-1.48,2.65-.91,6.31,2.86,6.93a177.83,177.83,0,0,0,26.65,2.45c4.46.07,6.44-5.45,3.54-8.53-9.52-10.16-18.38-20.36-24.6-32.92C127.94,757.23,119.46,760.74,121.3,766.12Z"/><path class="cls-1" d="M196.16,634.62c-.27-.33-.53-.65-.77-1M192,629.09,133,550.48h0"/><path class="cls-1" d="M243.59,656.17c44.41-.68,72.61-50.37,50.49-88.87a59.63,59.63,0,0,0-52-30.44H139.75a8.51,8.51,0,0,0-6.8,13.62c5.09,6.63,10.62,16.82,20.33,16.21h29.87a5,5,0,0,1,4.67,6.62C169.73,612.49,200.55,657.61,243.59,656.17Zm-4.28-29.93c-17.23-1.16-30.35-18.93-26.48-35.73,3.33-19,26.72-30,43.44-20.21a30.52,30.52,0,0,1,5.85,4.15C283.2,593.4,267.51,629,239.31,626.24Z"/><path class="cls-2" d="M185.61,604.06c-3.13-9.13-.12-18.83-.7-28.23,1.48-2.64.91-6.3-2.86-6.92a177.71,177.71,0,0,0-26.65-2.45c-4.46-.07-6.43,5.45-3.54,8.53,9.52,10.16,18.39,20.36,24.61,32.92C179,613,187.44,609.43,185.61,604.06Z"/><path class="cls-1" d="M110.74,558.44c.27.33.53.65.77,1m3.35,4.57c9.06,12.06,51,67.8,59.08,78.62h0"/><path class="cls-1" d="M63.31,536.89c-44.41.69-72.62,50.38-50.49,88.87a59.59,59.59,0,0,0,52,30.44H167.14a8.5,8.5,0,0,0,6.8-13.61c-5.09-6.64-10.61-16.82-20.32-16.22H123.75a5,5,0,0,1-4.68-6.61C137.17,580.58,106.35,535.46,63.31,536.89Zm4.28,29.93c17.22,1.17,30.35,18.93,26.48,35.73-3.33,19.06-26.72,30-43.44,20.21a29.67,29.67,0,0,1-5.85-4.15C23.7,599.67,39.39,564.06,67.59,566.82Z"/><path class="cls-2" d="M121.29,589c3.13,9.13.12,18.83.69,28.22-1.47,2.65-.9,6.31,2.87,6.93a177.71,177.71,0,0,0,26.65,2.45c4.46.07,6.43-5.45,3.54-8.53-9.53-10.16-18.39-20.36-24.61-32.92C127.94,580.12,119.46,583.63,121.29,589Z"/><path class="cls-1" d="M26.7,727.8l1-.77m4.57-3.35c12.06-9.06,67.8-51,78.62-59.08h0"/><path class="cls-1" d="M5.15,775.23c.69,44.41,50.37,72.62,88.87,50.49a59.61,59.61,0,0,0,30.44-52V671.4a8.5,8.5,0,0,0-13.61-6.8c-6.64,5.09-16.82,10.61-16.22,20.32V714.8A5,5,0,0,1,88,719.47C48.84,701.37,3.71,732.19,5.15,775.23ZM35.08,771C36.24,753.73,54,740.6,70.81,744.47c19.06,3.33,30,26.72,20.21,43.44a30.09,30.09,0,0,1-4.15,5.85C67.92,814.84,32.32,799.15,35.08,771Z"/><path class="cls-2" d="M57.26,717.25c9.13-3.13,18.83-.12,28.23-.69,2.64,1.47,6.3.9,6.93-2.87A179,179,0,0,0,94.87,687c.06-4.46-5.45-6.43-8.54-3.54C76.18,693,66,701.89,53.41,708.11,48.37,710.6,51.89,719.08,57.26,717.25Z"/><path class="cls-1" d="M102.88,642.38l-1,.77m-4.57,3.35L18.73,705.59h0"/><path class="cls-1" d="M124.43,595c-.69-44.41-50.38-72.61-88.87-50.49a59.59,59.59,0,0,0-30.44,52v102.3a8.5,8.5,0,0,0,13.61,6.8C25.37,700.5,35.55,695,35,685.26V655.39a5,5,0,0,1,6.62-4.67C80.74,668.81,125.87,638,124.43,595ZM94.5,599.23c-1.16,17.23-18.93,30.35-35.73,26.48-19.06-3.33-30-26.72-20.21-43.44a30.09,30.09,0,0,1,4.15-5.85C61.66,555.34,97.26,571,94.5,599.23Z"/><path class="cls-2" d="M72.32,652.94c-9.13,3.12-18.83.11-28.23.69-2.65-1.48-6.3-.91-6.93,2.86a179.15,179.15,0,0,0-2.45,26.65c-.06,4.46,5.45,6.43,8.54,3.54,10.15-9.52,20.36-18.38,32.92-24.61C81.21,659.58,77.69,651.1,72.32,652.94Z"/><path class="cls-1" d="M203.91,727.8l1-.77m4.57-3.35c12.06-9.06,67.8-51,78.62-59.08h0"/><path class="cls-1" d="M182.36,775.23c.69,44.41,50.38,72.62,88.87,50.49a59.59,59.59,0,0,0,30.44-52V671.4a8.5,8.5,0,0,0-13.61-6.8c-6.64,5.09-16.82,10.61-16.22,20.32V714.8a5,5,0,0,1-6.62,4.67C226.05,701.37,180.92,732.19,182.36,775.23ZM212.29,771c1.17-17.22,18.93-30.35,35.73-26.48,19.06,3.33,30,26.72,20.21,43.44a29.67,29.67,0,0,1-4.15,5.85C245.13,814.84,209.53,799.15,212.29,771Z"/><path class="cls-2" d="M234.48,717.25c9.12-3.13,18.83-.12,28.22-.69,2.65,1.47,6.3.9,6.93-2.87A177.71,177.71,0,0,0,272.08,687c.06-4.46-5.45-6.43-8.54-3.54-10.15,9.53-20.35,18.39-32.92,24.61C225.58,710.6,229.1,719.08,234.48,717.25Z"/><path class="cls-1" d="M280.09,642.38l-1,.77m-4.57,3.35-78.62,59.09h0"/><path class="cls-1" d="M301.64,595c-.68-44.41-50.37-72.61-88.87-50.49a59.61,59.61,0,0,0-30.44,52v102.3a8.5,8.5,0,0,0,13.61,6.8c6.64-5.09,16.82-10.62,16.22-20.33V655.39a5,5,0,0,1,6.62-4.67C258,668.81,303.08,638,301.64,595Zm-29.93,4.28c-1.16,17.23-18.93,30.35-35.73,26.48C216.92,622.38,206,599,215.77,582.27a30.52,30.52,0,0,1,4.15-5.85C238.87,555.34,274.47,571,271.71,599.23Z"/><path class="cls-2" d="M249.53,652.94c-9.13,3.12-18.83.11-28.23.69-2.64-1.48-6.3-.91-6.93,2.86a177.82,177.82,0,0,0-2.44,26.65c-.07,4.46,5.44,6.43,8.53,3.54,10.15-9.52,20.36-18.38,32.92-24.61C258.42,659.58,254.9,651.1,249.53,652.94Z"/><path class="cls-1" d="M373.38,811.73c-.27-.33-.53-.65-.77-1m-3.35-4.57c-9.07-12.05-51-67.8-59.09-78.61h0"/><path class="cls-1" d="M420.81,833.28c44.4-.68,72.61-50.37,50.49-88.87a59.63,59.63,0,0,0-52-30.44H317a8.51,8.51,0,0,0-6.8,13.62c5.09,6.63,10.62,16.82,20.33,16.21h29.87a5,5,0,0,1,4.67,6.62C346.94,789.6,377.77,834.72,420.81,833.28Zm-4.28-29.93c-17.23-1.16-30.35-18.93-26.48-35.73,3.33-19,26.71-30,43.44-20.21a30.52,30.52,0,0,1,5.85,4.15C460.42,770.51,444.73,806.12,416.53,803.35Z"/><path class="cls-2" d="M362.82,781.17c-3.12-9.13-.11-18.83-.69-28.23,1.48-2.64.91-6.3-2.86-6.92a177.84,177.84,0,0,0-26.66-2.45c-4.45-.07-6.43,5.45-3.53,8.53,9.52,10.16,18.38,20.36,24.6,32.92C356.18,790.06,364.65,786.54,362.82,781.17Z"/><path class="cls-1" d="M288,735.55c.27.33.53.65.77,1m3.35,4.57c9.06,12.06,51,67.8,59.08,78.62h0"/><path class="cls-1" d="M240.53,714c-44.41.69-72.62,50.38-50.49,88.87a59.57,59.57,0,0,0,52,30.44H344.36a8.5,8.5,0,0,0,6.8-13.61c-5.09-6.64-10.62-16.82-20.33-16.22H301a5,5,0,0,1-4.67-6.61C314.39,757.69,283.56,712.57,240.53,714Zm4.28,29.93c17.22,1.17,30.35,18.93,26.48,35.73-3.33,19.06-26.72,30-43.44,20.21a29.67,29.67,0,0,1-5.85-4.15C200.91,776.78,216.61,741.17,244.81,743.93Z"/><path class="cls-2" d="M298.51,766.12c3.12,9.13.12,18.83.69,28.22-1.48,2.65-.9,6.31,2.87,6.93a177.59,177.59,0,0,0,26.65,2.45c4.46.07,6.43-5.45,3.53-8.53-9.52-10.16-18.38-20.36-24.6-32.92C305.15,757.23,296.68,760.74,298.51,766.12Z"/><path class="cls-1" d="M373.37,634.62c-.27-.33-.53-.65-.77-1m-3.35-4.57-59.08-78.61h0"/><path class="cls-1" d="M420.8,656.17c44.41-.68,72.62-50.37,50.49-88.87a59.62,59.62,0,0,0-52-30.44H317a8.51,8.51,0,0,0-6.8,13.62c5.09,6.63,10.62,16.82,20.33,16.21h29.87a5,5,0,0,1,4.67,6.62C346.94,612.49,377.76,657.61,420.8,656.17Zm-4.28-29.93c-17.22-1.16-30.35-18.93-26.48-35.73,3.33-19,26.72-30,43.44-20.21a30.52,30.52,0,0,1,5.85,4.15C460.42,593.4,444.72,629,416.52,626.24Z"/><path class="cls-2" d="M362.82,604.06c-3.12-9.13-.12-18.83-.69-28.23,1.48-2.64.9-6.3-2.87-6.92a177.59,177.59,0,0,0-26.65-2.45c-4.46-.07-6.43,5.45-3.53,8.53,9.52,10.16,18.38,20.36,24.6,32.92C356.18,613,364.65,609.43,362.82,604.06Z"/><path class="cls-1" d="M288,558.44c.27.33.53.65.77,1m3.35,4.57,59.09,78.62h0"/><path class="cls-1" d="M240.52,536.89c-44.41.69-72.61,50.38-50.49,88.87a59.59,59.59,0,0,0,52,30.44h102.3a8.5,8.5,0,0,0,6.8-13.61c-5.09-6.64-10.62-16.82-20.33-16.22H301a5,5,0,0,1-4.67-6.61C314.38,580.58,283.56,535.46,240.52,536.89Zm4.28,29.93c17.23,1.17,30.35,18.93,26.48,35.73-3.33,19.06-26.71,30-43.44,20.21a29.67,29.67,0,0,1-5.85-4.15C200.91,599.67,216.6,564.06,244.8,566.82Z"/><path class="cls-2" d="M298.51,589c3.12,9.13.11,18.83.69,28.22-1.48,2.65-.91,6.31,2.86,6.93a177.83,177.83,0,0,0,26.65,2.45c4.46.07,6.43-5.45,3.54-8.53-9.52-10.16-18.38-20.36-24.6-32.92C305.15,580.12,296.67,583.63,298.51,589Z"/><path class="cls-1" d="M203.91,727.8l1-.77m4.57-3.35c12.06-9.06,67.8-51,78.62-59.08h0"/><path class="cls-1" d="M182.36,775.23c.69,44.41,50.38,72.62,88.87,50.49a59.59,59.59,0,0,0,30.44-52V671.4a8.5,8.5,0,0,0-13.61-6.8c-6.64,5.09-16.82,10.61-16.22,20.32V714.8a5,5,0,0,1-6.62,4.67C226.05,701.37,180.92,732.19,182.36,775.23ZM212.29,771c1.17-17.22,18.93-30.35,35.73-26.48,19.06,3.33,30,26.72,20.21,43.44a29.67,29.67,0,0,1-4.15,5.85C245.13,814.84,209.53,799.15,212.29,771Z"/><path class="cls-2" d="M234.48,717.25c9.12-3.13,18.83-.12,28.22-.69,2.65,1.47,6.3.9,6.93-2.87A177.71,177.71,0,0,0,272.08,687c.06-4.46-5.45-6.43-8.54-3.54-10.15,9.53-20.35,18.39-32.92,24.61C225.58,710.6,229.1,719.08,234.48,717.25Z"/><path class="cls-1" d="M280.09,642.38l-1,.77m-4.57,3.35-78.62,59.09h0"/><path class="cls-1" d="M301.64,595c-.68-44.41-50.37-72.61-88.87-50.49a59.61,59.61,0,0,0-30.44,52v102.3a8.5,8.5,0,0,0,13.61,6.8c6.64-5.09,16.82-10.62,16.22-20.33V655.39a5,5,0,0,1,6.62-4.67C258,668.81,303.08,638,301.64,595Zm-29.93,4.28c-1.16,17.23-18.93,30.35-35.73,26.48C216.92,622.38,206,599,215.77,582.27a30.52,30.52,0,0,1,4.15-5.85C238.87,555.34,274.47,571,271.71,599.23Z"/><path class="cls-2" d="M249.53,652.94c-9.13,3.12-18.83.11-28.23.69-2.64-1.48-6.3-.91-6.93,2.86a177.82,177.82,0,0,0-2.44,26.65c-.07,4.46,5.44,6.43,8.53,3.54,10.15-9.52,20.36-18.38,32.92-24.61C258.42,659.58,254.9,651.1,249.53,652.94Z"/><path class="cls-1" d="M381.13,727.8l1-.77m4.57-3.35,78.61-59.08h0"/><path class="cls-1" d="M359.58,775.23c.68,44.41,50.37,72.62,88.87,50.49a59.63,59.63,0,0,0,30.44-52V671.4a8.51,8.51,0,0,0-13.62-6.8c-6.63,5.09-16.82,10.61-16.21,20.32V714.8a5,5,0,0,1-6.62,4.67C403.26,701.37,358.14,732.19,359.58,775.23ZM389.51,771c1.16-17.22,18.93-30.35,35.73-26.48,19.05,3.33,29.95,26.72,20.21,43.44a30.52,30.52,0,0,1-4.15,5.85C422.35,814.84,386.74,799.15,389.51,771Z"/><path class="cls-2" d="M411.69,717.25c9.13-3.13,18.83-.12,28.23-.69,2.64,1.47,6.3.9,6.92-2.87A177.71,177.71,0,0,0,449.29,687c.07-4.46-5.45-6.43-8.53-3.54-10.16,9.53-20.36,18.39-32.92,24.61C402.8,710.6,406.32,719.08,411.69,717.25Z"/><path class="cls-1" d="M457.31,642.38l-1,.77m-4.57,3.35-78.62,59.09h0"/><path class="cls-1" d="M478.86,595c-.69-44.41-50.38-72.61-88.87-50.49a59.59,59.59,0,0,0-30.44,52v102.3a8.5,8.5,0,0,0,13.61,6.8C379.8,700.5,390,695,389.38,685.26V655.39a5,5,0,0,1,6.61-4.67C435.17,668.81,480.29,638,478.86,595Zm-29.93,4.28c-1.17,17.23-18.93,30.35-35.73,26.48-19.06-3.33-30-26.72-20.21-43.44a29.67,29.67,0,0,1,4.15-5.85C416.08,555.34,451.69,571,448.93,599.23Z"/><path class="cls-2" d="M426.74,652.94c-9.13,3.12-18.83.11-28.22.69-2.65-1.48-6.31-.91-6.93,2.86a177.83,177.83,0,0,0-2.45,26.65c-.07,4.46,5.45,6.43,8.53,3.54,10.16-9.52,20.36-18.38,32.92-24.61C435.63,659.58,432.12,651.1,426.74,652.94Z"/><path class="cls-1" d="M196.05,634.52c-.27-.33-.53-.65-.77-1M191.93,629l-59.09-78.62h0"/><path class="cls-1" d="M243.48,656.07c44.41-.69,72.61-50.38,50.49-88.87a59.59,59.59,0,0,0-52-30.44H139.64a8.5,8.5,0,0,0-6.8,13.61c5.09,6.64,10.62,16.82,20.33,16.22H183a5,5,0,0,1,4.67,6.62C169.62,612.38,200.44,657.51,243.48,656.07Zm-4.28-29.93C222,625,208.85,607.21,212.72,590.41c3.33-19.06,26.72-30,43.44-20.21a29.67,29.67,0,0,1,5.85,4.15C283.09,593.3,267.4,628.9,239.2,626.14Z"/><path class="cls-2" d="M185.49,604c-3.12-9.12-.11-18.83-.69-28.22,1.48-2.65.91-6.3-2.86-6.93a177.83,177.83,0,0,0-26.65-2.45c-4.46-.06-6.43,5.45-3.54,8.54,9.52,10.15,18.38,20.35,24.61,32.92C178.85,612.85,187.33,609.33,185.49,604Z"/><path class="cls-1" d="M110.63,558.34c.27.33.53.65.77,1m3.35,4.57c9.06,12,51,67.8,59.08,78.62h0"/><path class="cls-1" d="M63.2,536.79c-44.41.68-72.62,50.37-50.49,88.87a59.62,59.62,0,0,0,52,30.44H167a8.5,8.5,0,0,0,6.8-13.61c-5.09-6.64-10.61-16.82-20.32-16.22H123.63a5,5,0,0,1-4.67-6.62C137.06,580.47,106.24,535.35,63.2,536.79Zm4.28,29.93C84.7,567.88,97.83,585.65,94,602.45c-3.33,19.06-26.72,29.95-43.44,20.21a30.52,30.52,0,0,1-5.85-4.15C23.59,599.56,39.28,564,67.48,566.72Z"/><path class="cls-2" d="M121.18,588.9c3.12,9.13.12,18.83.69,28.23-1.47,2.64-.9,6.3,2.87,6.92a177.59,177.59,0,0,0,26.65,2.45c4.46.07,6.43-5.44,3.54-8.53-9.53-10.15-18.39-20.36-24.61-32.92C127.83,580,119.35,583.53,121.18,588.9Z"/><path class="cls-1" d="M196,457.41c-.27-.33-.53-.65-.77-1m-3.35-4.57c-9.06-12.06-51-67.8-59.08-78.62h0"/><path class="cls-1" d="M243.47,479c44.41-.69,72.62-50.38,50.49-88.87a59.56,59.56,0,0,0-52-30.44H139.64a8.5,8.5,0,0,0-6.8,13.61c5.09,6.64,10.62,16.82,20.33,16.22H183a5,5,0,0,1,4.67,6.62C169.61,435.27,200.44,480.4,243.47,479ZM239.19,449c-17.22-1.17-30.35-18.93-26.48-35.73,3.33-19.06,26.72-30,43.44-20.21a29.67,29.67,0,0,1,5.85,4.15C283.09,416.19,267.39,451.79,239.19,449Z"/><path class="cls-2" d="M185.49,426.84c-3.12-9.12-.12-18.83-.69-28.22,1.48-2.65.9-6.3-2.87-6.93a177.59,177.59,0,0,0-26.65-2.45c-4.46-.06-6.43,5.45-3.53,8.54,9.52,10.15,18.38,20.35,24.6,32.92C178.85,435.74,187.32,432.22,185.49,426.84Z"/><path class="cls-1" d="M110.62,381.23c.27.33.53.65.77,1m3.35,4.57c9.07,12.05,51,67.8,59.09,78.62h0"/><path class="cls-1" d="M63.19,359.68c-44.4.68-72.61,50.37-50.48,88.87a59.58,59.58,0,0,0,52,30.44H167a8.5,8.5,0,0,0,6.8-13.61c-5.09-6.64-10.62-16.82-20.33-16.22H123.63a5,5,0,0,1-4.67-6.62C137.06,403.36,106.23,358.24,63.19,359.68Zm4.28,29.93C84.7,390.77,97.82,408.54,94,425.34c-3.33,19.06-26.71,30-43.44,20.21a30.84,30.84,0,0,1-5.85-4.15C23.58,422.45,39.27,386.85,67.47,389.61Z"/><path class="cls-2" d="M121.18,411.79c3.12,9.13.11,18.83.69,28.23-1.48,2.64-.91,6.3,2.87,6.92a177.59,177.59,0,0,0,26.65,2.45c4.45.07,6.43-5.44,3.53-8.53-9.52-10.15-18.38-20.36-24.6-32.92C127.82,402.9,119.35,406.42,121.18,411.79Z"/><path class="cls-1" d="M26.58,550.58l1-.77m4.57-3.35c12.06-9.06,67.8-51,78.62-59.08h0"/><path class="cls-1" d="M5,598c.69,44.41,50.38,72.62,88.87,50.49a59.56,59.56,0,0,0,30.44-52V494.18a8.5,8.5,0,0,0-13.61-6.8c-6.64,5.09-16.82,10.62-16.22,20.33v29.87a5,5,0,0,1-6.62,4.67C48.72,524.15,3.6,555,5,598ZM35,593.73c1.17-17.22,18.93-30.35,35.73-26.48,19.06,3.33,30,26.72,20.21,43.44a29.67,29.67,0,0,1-4.15,5.85C67.8,637.63,32.2,621.93,35,593.73Z"/><path class="cls-2" d="M57.15,540c9.13-3.12,18.83-.12,28.22-.69,2.65,1.48,6.31.9,6.93-2.87a177.59,177.59,0,0,0,2.45-26.65c.07-4.46-5.45-6.43-8.53-3.53-10.16,9.52-20.36,18.38-32.93,24.6C48.26,533.39,51.77,541.86,57.15,540Z"/><path class="cls-1" d="M102.76,465.16l-1,.77m-4.57,3.35c-12,9.07-67.8,51-78.61,59.09h0"/><path class="cls-1" d="M124.31,417.73c-.68-44.4-50.37-72.61-88.87-50.48A59.6,59.6,0,0,0,5,419.27v102.3a8.51,8.51,0,0,0,13.62,6.8c6.63-5.09,16.81-10.62,16.21-20.33V478.17a5,5,0,0,1,6.62-4.67C80.63,491.6,125.75,460.77,124.31,417.73ZM94.38,422c-1.16,17.23-18.93,30.35-35.73,26.48-19-3.33-29.95-26.71-20.21-43.44a30.84,30.84,0,0,1,4.15-5.85C61.54,378.12,97.15,393.81,94.38,422Z"/><path class="cls-2" d="M72.2,475.72c-9.13,3.12-18.83.11-28.23.69-2.64-1.48-6.3-.91-6.92,2.86a177.84,177.84,0,0,0-2.45,26.66c-.07,4.45,5.44,6.43,8.53,3.53,10.16-9.52,20.36-18.38,32.92-24.6C81.09,482.36,77.57,473.89,72.2,475.72Z"/><path class="cls-1" d="M203.8,550.58l1-.77m4.57-3.35c12-9.06,67.8-51,78.62-59.08h0"/><path class="cls-1" d="M182.25,598c.68,44.41,50.37,72.62,88.87,50.49a59.6,59.6,0,0,0,30.44-52V494.18a8.5,8.5,0,0,0-13.61-6.8c-6.64,5.09-16.82,10.62-16.22,20.33v29.87a5,5,0,0,1-6.62,4.67C225.93,524.15,180.81,555,182.25,598Zm29.93-4.28c1.16-17.22,18.93-30.35,35.73-26.48,19.06,3.33,30,26.72,20.21,43.44a30.52,30.52,0,0,1-4.15,5.85C245,637.63,209.42,621.93,212.18,593.73Z"/><path class="cls-2" d="M234.36,540c9.13-3.12,18.83-.12,28.23-.69,2.64,1.48,6.3.9,6.92-2.87A177.59,177.59,0,0,0,272,509.82c.07-4.46-5.44-6.43-8.53-3.53-10.15,9.52-20.36,18.38-32.92,24.6C225.47,533.39,229,541.86,234.36,540Z"/><path class="cls-1" d="M280,465.16l-1,.77m-4.57,3.35c-12.06,9.07-67.8,51-78.62,59.09h0"/><path class="cls-1" d="M301.53,417.73c-.69-44.4-50.38-72.61-88.87-50.48a59.56,59.56,0,0,0-30.44,52v102.3a8.5,8.5,0,0,0,13.61,6.8c6.64-5.09,16.82-10.62,16.22-20.33V478.17a5,5,0,0,1,6.62-4.67C257.84,491.6,303,460.77,301.53,417.73ZM271.6,422c-1.17,17.23-18.93,30.35-35.73,26.48-19.06-3.33-30-26.71-20.21-43.44a30,30,0,0,1,4.15-5.85C238.76,378.12,274.36,393.81,271.6,422Z"/><path class="cls-2" d="M249.41,475.72c-9.12,3.12-18.83.11-28.22.69-2.65-1.48-6.3-.91-6.93,2.86a177.84,177.84,0,0,0-2.45,26.66c-.06,4.45,5.45,6.43,8.54,3.53,10.15-9.52,20.35-18.38,32.92-24.6C258.31,482.36,254.79,473.89,249.41,475.72Z"/><path class="cls-1" d="M373.26,634.52c-.27-.33-.53-.65-.77-1M369.14,629c-9.06-12.06-51-67.8-59.08-78.62h0"/><path class="cls-1" d="M420.69,656.07c44.41-.69,72.62-50.38,50.49-88.87a59.59,59.59,0,0,0-52-30.44H316.86a8.5,8.5,0,0,0-6.8,13.61c5.09,6.64,10.61,16.82,20.32,16.22h29.88a5,5,0,0,1,4.67,6.62C346.83,612.38,377.65,657.51,420.69,656.07Zm-4.28-29.93c-17.22-1.17-30.35-18.93-26.48-35.73,3.33-19.06,26.72-30,43.44-20.21a29.67,29.67,0,0,1,5.85,4.15C460.3,593.3,444.61,628.9,416.41,626.14Z"/><path class="cls-2" d="M362.71,604c-3.13-9.12-.12-18.83-.69-28.22,1.47-2.65.9-6.3-2.87-6.93a177.71,177.71,0,0,0-26.65-2.45c-4.46-.06-6.43,5.45-3.54,8.54,9.53,10.15,18.39,20.35,24.61,32.92C356.06,612.85,364.54,609.33,362.71,604Z"/><path class="cls-1" d="M287.84,558.34c.27.33.53.65.77,1m3.35,4.57,59.09,78.62h0"/><path class="cls-1" d="M240.41,536.79c-44.41.68-72.61,50.37-50.49,88.87a59.63,59.63,0,0,0,52,30.44h102.3a8.5,8.5,0,0,0,6.8-13.61c-5.09-6.64-10.62-16.82-20.33-16.22H300.85a5,5,0,0,1-4.67-6.62C314.27,580.47,283.45,535.35,240.41,536.79Zm4.28,29.93c17.23,1.16,30.35,18.93,26.48,35.73-3.33,19.06-26.72,29.95-43.44,20.21a30.52,30.52,0,0,1-5.85-4.15C200.8,599.56,216.49,564,244.69,566.72Z"/><path class="cls-2" d="M298.4,588.9c3.12,9.13.11,18.83.69,28.23-1.48,2.64-.91,6.3,2.86,6.92a177.83,177.83,0,0,0,26.65,2.45c4.46.07,6.43-5.44,3.54-8.53-9.52-10.15-18.38-20.36-24.61-32.92C305,580,296.56,583.53,298.4,588.9Z"/><path class="cls-1" d="M373.26,457.41c-.27-.33-.53-.65-.77-1m-3.35-4.57-59.09-78.62h0"/><path class="cls-1" d="M420.69,479c44.41-.69,72.61-50.38,50.49-88.87a59.59,59.59,0,0,0-52-30.44H316.85a8.5,8.5,0,0,0-6.8,13.61c5.09,6.64,10.62,16.82,20.33,16.22h29.87a5,5,0,0,1,4.67,6.62C346.83,435.27,377.65,480.4,420.69,479ZM416.41,449c-17.23-1.17-30.35-18.93-26.48-35.73,3.33-19.06,26.71-30,43.44-20.21a29.67,29.67,0,0,1,5.85,4.15C460.3,416.19,444.61,451.79,416.41,449Z"/><path class="cls-2" d="M362.7,426.84c-3.12-9.12-.11-18.83-.69-28.22,1.48-2.65.91-6.3-2.86-6.93a177.83,177.83,0,0,0-26.65-2.45c-4.46-.06-6.43,5.45-3.54,8.54,9.52,10.15,18.38,20.35,24.6,32.92C356.06,435.74,364.54,432.22,362.7,426.84Z"/><path class="cls-1" d="M287.84,381.23c.27.33.53.65.77,1m3.35,4.57c9.06,12.05,51,67.8,59.08,78.62h0"/><path class="cls-1" d="M240.41,359.68c-44.41.68-72.62,50.37-50.49,88.87A59.6,59.6,0,0,0,242,479H344.24a8.5,8.5,0,0,0,6.8-13.61c-5.09-6.64-10.62-16.82-20.32-16.22H300.84a5,5,0,0,1-4.67-6.62C314.27,403.36,283.45,358.24,240.41,359.68Zm4.28,29.93c17.22,1.16,30.35,18.93,26.48,35.73-3.33,19.06-26.72,30-43.44,20.21a30.52,30.52,0,0,1-5.85-4.15C200.79,422.45,216.49,386.85,244.69,389.61Z"/><path class="cls-2" d="M298.39,411.79c3.12,9.13.12,18.83.69,28.23-1.48,2.64-.9,6.3,2.87,6.92a177.59,177.59,0,0,0,26.65,2.45c4.46.07,6.43-5.44,3.53-8.53-9.52-10.15-18.38-20.36-24.6-32.92C305,402.9,296.56,406.42,298.39,411.79Z"/><path class="cls-1" d="M203.8,550.58l1-.77m4.57-3.35c12-9.06,67.8-51,78.62-59.08h0"/><path class="cls-1" d="M182.25,598c.68,44.41,50.37,72.62,88.87,50.49a59.6,59.6,0,0,0,30.44-52V494.18a8.5,8.5,0,0,0-13.61-6.8c-6.64,5.09-16.82,10.62-16.22,20.33v29.87a5,5,0,0,1-6.62,4.67C225.93,524.15,180.81,555,182.25,598Zm29.93-4.28c1.16-17.22,18.93-30.35,35.73-26.48,19.06,3.33,30,26.72,20.21,43.44a30.52,30.52,0,0,1-4.15,5.85C245,637.63,209.42,621.93,212.18,593.73Z"/><path class="cls-2" d="M234.36,540c9.13-3.12,18.83-.12,28.23-.69,2.64,1.48,6.3.9,6.92-2.87A177.59,177.59,0,0,0,272,509.82c.07-4.46-5.44-6.43-8.53-3.53-10.15,9.52-20.36,18.38-32.92,24.6C225.47,533.39,229,541.86,234.36,540Z"/><path class="cls-1" d="M280,465.16l-1,.77m-4.57,3.35c-12.06,9.07-67.8,51-78.62,59.09h0"/><path class="cls-1" d="M301.53,417.73c-.69-44.4-50.38-72.61-88.87-50.48a59.56,59.56,0,0,0-30.44,52v102.3a8.5,8.5,0,0,0,13.61,6.8c6.64-5.09,16.82-10.62,16.22-20.33V478.17a5,5,0,0,1,6.62-4.67C257.84,491.6,303,460.77,301.53,417.73ZM271.6,422c-1.17,17.23-18.93,30.35-35.73,26.48-19.06-3.33-30-26.71-20.21-43.44a30,30,0,0,1,4.15-5.85C238.76,378.12,274.36,393.81,271.6,422Z"/><path class="cls-2" d="M249.41,475.72c-9.12,3.12-18.83.11-28.22.69-2.65-1.48-6.3-.91-6.93,2.86a177.84,177.84,0,0,0-2.45,26.66c-.06,4.45,5.45,6.43,8.54,3.53,10.15-9.52,20.35-18.38,32.92-24.6C258.31,482.36,254.79,473.89,249.41,475.72Z"/><path class="cls-1" d="M381,550.58l1-.77m4.57-3.35c12.06-9.06,67.8-51,78.62-59.08h0"/><path class="cls-1" d="M359.46,598c.69,44.41,50.38,72.62,88.87,50.49a59.58,59.58,0,0,0,30.44-52V494.18a8.5,8.5,0,0,0-13.61-6.8c-6.64,5.09-16.82,10.62-16.22,20.33v29.87a5,5,0,0,1-6.62,4.67C403.15,524.15,358,555,359.46,598Zm29.93-4.28c1.16-17.22,18.93-30.35,35.73-26.48,19.06,3.33,30,26.72,20.21,43.44a30.09,30.09,0,0,1-4.15,5.85C422.23,637.63,386.63,621.93,389.39,593.73Z"/><path class="cls-2" d="M411.57,540c9.13-3.12,18.83-.12,28.23-.69,2.64,1.48,6.3.9,6.93-2.87a178.91,178.91,0,0,0,2.45-26.65c.06-4.46-5.45-6.43-8.54-3.53-10.15,9.52-20.36,18.38-32.92,24.6C402.68,533.39,406.2,541.86,411.57,540Z"/><path class="cls-1" d="M457.19,465.16l-1,.77m-4.57,3.35c-12.06,9.07-67.8,51-78.62,59.09h0"/><path class="cls-1" d="M478.74,417.73c-.69-44.4-50.38-72.61-88.87-50.48a59.58,59.58,0,0,0-30.44,52v102.3a8.5,8.5,0,0,0,13.61,6.8c6.64-5.09,16.82-10.62,16.22-20.33V478.17a5,5,0,0,1,6.62-4.67C435.05,491.6,480.18,460.77,478.74,417.73ZM448.81,422c-1.16,17.23-18.93,30.35-35.73,26.48-19.06-3.33-30-26.71-20.21-43.44A30.4,30.4,0,0,1,397,399.2C416,378.12,451.57,393.81,448.81,422Z"/><path class="cls-2" d="M426.63,475.72c-9.13,3.12-18.83.11-28.23.69-2.64-1.48-6.3-.91-6.93,2.86A179.16,179.16,0,0,0,389,505.93c-.06,4.45,5.45,6.43,8.54,3.53,10.15-9.52,20.36-18.38,32.92-24.6C435.52,482.36,432,473.89,426.63,475.72Z"/><path class="cls-1" d="M196.16,457.25c-.27-.33-.53-.65-.77-1M192,451.72c-9.06-12.06-51-67.8-59.08-78.62h0"/><path class="cls-1" d="M243.59,478.8c44.41-.69,72.62-50.38,50.49-88.87a59.6,59.6,0,0,0-52-30.44H139.76A8.5,8.5,0,0,0,133,373.1c5.09,6.64,10.62,16.82,20.33,16.22h29.87a5,5,0,0,1,4.67,6.62C169.73,435.11,200.56,480.24,243.59,478.8Zm-4.28-29.93c-17.22-1.16-30.35-18.93-26.48-35.73,3.33-19.06,26.72-30,43.44-20.21a30.09,30.09,0,0,1,5.85,4.15C283.21,416,267.51,451.63,239.31,448.87Z"/><path class="cls-2" d="M185.61,426.69c-3.12-9.13-.12-18.83-.69-28.23,1.48-2.64.9-6.3-2.87-6.93a178.91,178.91,0,0,0-26.65-2.45c-4.46-.06-6.43,5.45-3.53,8.54,9.52,10.15,18.38,20.36,24.6,32.92C179,435.58,187.44,432.06,185.61,426.69Z"/><path class="cls-1" d="M110.74,381.07c.27.33.53.65.77,1m3.35,4.57L174,465.22h0"/><path class="cls-1" d="M63.31,359.52c-44.4.69-72.61,50.38-50.49,88.87a59.61,59.61,0,0,0,52,30.44h102.3a8.5,8.5,0,0,0,6.8-13.61c-5.09-6.64-10.62-16.82-20.33-16.22H123.75a5,5,0,0,1-4.67-6.62C137.18,403.21,106.35,358.08,63.31,359.52Zm4.28,29.93c17.23,1.16,30.35,18.93,26.48,35.73-3.33,19.06-26.71,30-43.44,20.21a30.09,30.09,0,0,1-5.85-4.15C23.7,422.29,39.39,386.69,67.59,389.45Z"/><path class="cls-2" d="M121.3,411.63c3.12,9.13.11,18.83.69,28.23-1.48,2.64-.91,6.3,2.86,6.93a179.15,179.15,0,0,0,26.65,2.45c4.46.06,6.44-5.45,3.54-8.54-9.52-10.15-18.38-20.36-24.6-32.92C127.94,402.74,119.46,406.26,121.3,411.63Z"/><path class="cls-1" d="M196.16,280.14c-.27-.33-.53-.65-.77-1M192,274.61,133,196h0"/><path class="cls-1" d="M243.59,301.69c44.41-.69,72.61-50.38,50.49-88.87a59.61,59.61,0,0,0-52-30.44H139.75A8.5,8.5,0,0,0,133,196c5.09,6.64,10.62,16.82,20.33,16.22h29.87a5,5,0,0,1,4.67,6.62C169.73,258,200.55,303.13,243.59,301.69Zm-4.28-29.93C222.08,270.6,209,252.83,212.83,236c3.33-19.06,26.72-30,43.44-20.21a30.09,30.09,0,0,1,5.85,4.15C283.2,238.92,267.51,274.52,239.31,271.76Z"/><path class="cls-2" d="M185.61,249.58c-3.13-9.13-.12-18.83-.7-28.23,1.48-2.64.91-6.3-2.86-6.93A179,179,0,0,0,155.4,212c-4.46-.06-6.43,5.45-3.54,8.54,9.52,10.15,18.39,20.36,24.61,32.92C179,258.47,187.44,255,185.61,249.58Z"/><path class="cls-1" d="M110.74,204c.27.33.53.65.77,1m3.35,4.57c9.06,12.06,51,67.8,59.08,78.62h0"/><path class="cls-1" d="M63.31,182.41c-44.41.69-72.62,50.38-50.49,88.87a59.61,59.61,0,0,0,52,30.44H167.14a8.5,8.5,0,0,0,6.8-13.61c-5.09-6.64-10.61-16.82-20.32-16.22H123.75a5,5,0,0,1-4.68-6.62C137.17,226.1,106.35,181,63.31,182.41Zm4.28,29.93c17.22,1.16,30.35,18.93,26.48,35.73-3.33,19.06-26.72,30-43.44,20.21a30.09,30.09,0,0,1-5.85-4.15C23.7,245.18,39.39,209.58,67.59,212.34Z"/><path class="cls-2" d="M121.29,234.52c3.13,9.13.12,18.83.69,28.23-1.47,2.64-.9,6.3,2.87,6.93a179,179,0,0,0,26.65,2.45c4.46.06,6.43-5.45,3.54-8.54-9.53-10.15-18.39-20.36-24.61-32.92C127.94,225.63,119.46,229.15,121.29,234.52Z"/><path class="cls-1" d="M26.7,373.32l1-.77m4.57-3.35,78.62-59.09h0"/><path class="cls-1" d="M5.15,420.75c.69,44.4,50.37,72.61,88.87,50.49a59.61,59.61,0,0,0,30.44-52V316.91a8.5,8.5,0,0,0-13.61-6.8c-6.64,5.09-16.82,10.62-16.22,20.33v29.87A5,5,0,0,1,88,365C48.84,346.89,3.71,377.71,5.15,420.75Zm29.93-4.28C36.24,399.24,54,386.12,70.81,390c19.06,3.33,30,26.71,20.21,43.44a30.09,30.09,0,0,1-4.15,5.85C67.92,460.36,32.32,444.67,35.08,416.47Z"/><path class="cls-2" d="M57.26,362.76c9.13-3.12,18.83-.11,28.23-.69,2.64,1.48,6.3.91,6.93-2.86a179.15,179.15,0,0,0,2.45-26.65c.06-4.46-5.45-6.44-8.54-3.54C76.18,338.54,66,347.4,53.41,353.62,48.37,356.12,51.89,364.6,57.26,362.76Z"/><path class="cls-1" d="M102.88,287.9l-1,.77M97.35,292c-12.06,9.06-67.8,51-78.62,59.08h0"/><path class="cls-1" d="M124.43,240.47c-.69-44.41-50.38-72.62-88.87-50.49A59.57,59.57,0,0,0,5.12,242V344.3a8.5,8.5,0,0,0,13.61,6.8C25.37,346,35.55,340.48,35,330.77V300.9a5,5,0,0,1,6.62-4.67C80.74,314.33,125.87,283.5,124.43,240.47ZM94.5,244.75C93.34,262,75.57,275.1,58.77,271.23c-19.06-3.33-30-26.72-20.21-43.44a30.09,30.09,0,0,1,4.15-5.85C61.66,200.85,97.26,216.55,94.5,244.75Z"/><path class="cls-2" d="M72.32,298.45c-9.13,3.12-18.83.12-28.23.69-2.65-1.48-6.3-.9-6.93,2.87a178.91,178.91,0,0,0-2.45,26.65c-.06,4.46,5.45,6.43,8.54,3.53,10.15-9.52,20.36-18.38,32.92-24.6C81.21,305.09,77.69,296.62,72.32,298.45Z"/><path class="cls-1" d="M203.91,373.32l1-.77m4.57-3.35,78.62-59.09h0"/><path class="cls-1" d="M182.36,420.75c.69,44.4,50.38,72.61,88.87,50.49a59.59,59.59,0,0,0,30.44-52V316.91a8.5,8.5,0,0,0-13.61-6.8c-6.64,5.09-16.82,10.62-16.22,20.33v29.87a5,5,0,0,1-6.62,4.67C226.05,346.89,180.92,377.71,182.36,420.75Zm29.93-4.28c1.17-17.23,18.93-30.35,35.73-26.48,19.06,3.33,30,26.71,20.21,43.44a29.67,29.67,0,0,1-4.15,5.85C245.13,460.36,209.53,444.67,212.29,416.47Z"/><path class="cls-2" d="M234.48,362.76c9.12-3.12,18.83-.11,28.22-.69,2.65,1.48,6.3.91,6.93-2.86a177.83,177.83,0,0,0,2.45-26.65c.06-4.46-5.45-6.44-8.54-3.54-10.15,9.52-20.35,18.38-32.92,24.6C225.58,356.12,229.1,364.6,234.48,362.76Z"/><path class="cls-1" d="M280.09,287.9l-1,.77M274.56,292c-12.06,9.06-67.8,51-78.62,59.08h0"/><path class="cls-1" d="M301.64,240.47c-.68-44.41-50.37-72.62-88.87-50.49a59.6,59.6,0,0,0-30.44,52V344.3a8.5,8.5,0,0,0,13.61,6.8c6.64-5.09,16.82-10.62,16.22-20.33V300.9a5,5,0,0,1,6.62-4.67C258,314.33,303.08,283.5,301.64,240.47Zm-29.93,4.28C270.55,262,252.78,275.1,236,271.23c-19.06-3.33-29.95-26.72-20.21-43.44a30.52,30.52,0,0,1,4.15-5.85C238.87,200.85,274.47,216.55,271.71,244.75Z"/><path class="cls-2" d="M249.53,298.45c-9.13,3.12-18.83.12-28.23.69-2.64-1.48-6.3-.9-6.93,2.87a177.58,177.58,0,0,0-2.44,26.65c-.07,4.46,5.44,6.43,8.53,3.53,10.15-9.52,20.36-18.38,32.92-24.6C258.42,305.09,254.9,296.62,249.53,298.45Z"/><path class="cls-1" d="M373.38,457.25c-.27-.33-.53-.65-.77-1m-3.35-4.57c-9.07-12.06-51-67.8-59.09-78.62h0"/><path class="cls-1" d="M420.81,478.8c44.4-.69,72.61-50.38,50.49-88.87a59.61,59.61,0,0,0-52-30.44H317a8.5,8.5,0,0,0-6.8,13.61c5.09,6.64,10.62,16.82,20.33,16.22h29.87a5,5,0,0,1,4.67,6.62C346.94,435.11,377.77,480.24,420.81,478.8Zm-4.28-29.93c-17.23-1.16-30.35-18.93-26.48-35.73,3.33-19.06,26.71-30,43.44-20.21a30.09,30.09,0,0,1,5.85,4.15C460.42,416,444.73,451.63,416.53,448.87Z"/><path class="cls-2" d="M362.82,426.69c-3.12-9.13-.11-18.83-.69-28.23,1.48-2.64.91-6.3-2.86-6.93a179.16,179.16,0,0,0-26.66-2.45c-4.45-.06-6.43,5.45-3.53,8.54,9.52,10.15,18.38,20.36,24.6,32.92C356.18,435.58,364.65,432.06,362.82,426.69Z"/><path class="cls-1" d="M288,381.07c.27.33.53.65.77,1m3.35,4.57c9.06,12.06,51,67.8,59.08,78.62h0"/><path class="cls-1" d="M240.53,359.52c-44.41.69-72.62,50.38-50.49,88.87a59.6,59.6,0,0,0,52,30.44H344.36a8.5,8.5,0,0,0,6.8-13.61c-5.09-6.64-10.62-16.82-20.33-16.22H301a5,5,0,0,1-4.67-6.62C314.39,403.21,283.56,358.08,240.53,359.52Zm4.28,29.93c17.22,1.16,30.35,18.93,26.48,35.73-3.33,19.06-26.72,30-43.44,20.21a30.09,30.09,0,0,1-5.85-4.15C200.91,422.29,216.61,386.69,244.81,389.45Z"/><path class="cls-2" d="M298.51,411.63c3.12,9.13.12,18.83.69,28.23-1.48,2.64-.9,6.3,2.87,6.93a178.91,178.91,0,0,0,26.65,2.45c4.46.06,6.43-5.45,3.53-8.54-9.52-10.15-18.38-20.36-24.6-32.92C305.15,402.74,296.68,406.26,298.51,411.63Z"/><path class="cls-1" d="M373.37,280.14c-.27-.33-.53-.65-.77-1m-3.35-4.57c-9.06-12.06-51-67.8-59.08-78.62h0"/><path class="cls-1" d="M420.8,301.69c44.41-.69,72.62-50.38,50.49-88.87a59.6,59.6,0,0,0-52-30.44H317a8.5,8.5,0,0,0-6.8,13.61c5.09,6.64,10.62,16.82,20.33,16.22h29.87a5,5,0,0,1,4.67,6.62C346.94,258,377.76,303.13,420.8,301.69Zm-4.28-29.93C399.3,270.6,386.17,252.83,390,236c3.33-19.06,26.72-30,43.44-20.21a30.09,30.09,0,0,1,5.85,4.15C460.42,238.92,444.72,274.52,416.52,271.76Z"/><path class="cls-2" d="M362.82,249.58c-3.12-9.13-.12-18.83-.69-28.23,1.48-2.64.9-6.3-2.87-6.93A178.91,178.91,0,0,0,332.61,212c-4.46-.06-6.43,5.45-3.53,8.54,9.52,10.15,18.38,20.36,24.6,32.92C356.18,258.47,364.65,255,362.82,249.58Z"/><path class="cls-1" d="M288,204c.27.33.53.65.77,1m3.35,4.57,59.09,78.62h0"/><path class="cls-1" d="M240.52,182.41c-44.41.69-72.61,50.38-50.49,88.87a59.61,59.61,0,0,0,52,30.44h102.3a8.5,8.5,0,0,0,6.8-13.61c-5.09-6.64-10.62-16.82-20.33-16.22H301a5,5,0,0,1-4.67-6.62C314.38,226.1,283.56,181,240.52,182.41Zm4.28,29.93c17.23,1.16,30.35,18.93,26.48,35.73-3.33,19.06-26.71,30-43.44,20.21a30.09,30.09,0,0,1-5.85-4.15C200.91,245.18,216.6,209.58,244.8,212.34Z"/><path class="cls-2" d="M298.51,234.52c3.12,9.13.11,18.83.69,28.23-1.48,2.64-.91,6.3,2.86,6.93a179.15,179.15,0,0,0,26.65,2.45c4.46.06,6.43-5.45,3.54-8.54-9.52-10.15-18.38-20.36-24.6-32.92C305.15,225.63,296.67,229.15,298.51,234.52Z"/><path class="cls-1" d="M203.91,373.32l1-.77m4.57-3.35,78.62-59.09h0"/><path class="cls-1" d="M182.36,420.75c.69,44.4,50.38,72.61,88.87,50.49a59.59,59.59,0,0,0,30.44-52V316.91a8.5,8.5,0,0,0-13.61-6.8c-6.64,5.09-16.82,10.62-16.22,20.33v29.87a5,5,0,0,1-6.62,4.67C226.05,346.89,180.92,377.71,182.36,420.75Zm29.93-4.28c1.17-17.23,18.93-30.35,35.73-26.48,19.06,3.33,30,26.71,20.21,43.44a29.67,29.67,0,0,1-4.15,5.85C245.13,460.36,209.53,444.67,212.29,416.47Z"/><path class="cls-2" d="M234.48,362.76c9.12-3.12,18.83-.11,28.22-.69,2.65,1.48,6.3.91,6.93-2.86a177.83,177.83,0,0,0,2.45-26.65c.06-4.46-5.45-6.44-8.54-3.54-10.15,9.52-20.35,18.38-32.92,24.6C225.58,356.12,229.1,364.6,234.48,362.76Z"/><path class="cls-1" d="M280.09,287.9l-1,.77M274.56,292c-12.06,9.06-67.8,51-78.62,59.08h0"/><path class="cls-1" d="M301.64,240.47c-.68-44.41-50.37-72.62-88.87-50.49a59.6,59.6,0,0,0-30.44,52V344.3a8.5,8.5,0,0,0,13.61,6.8c6.64-5.09,16.82-10.62,16.22-20.33V300.9a5,5,0,0,1,6.62-4.67C258,314.33,303.08,283.5,301.64,240.47Zm-29.93,4.28C270.55,262,252.78,275.1,236,271.23c-19.06-3.33-29.95-26.72-20.21-43.44a30.52,30.52,0,0,1,4.15-5.85C238.87,200.85,274.47,216.55,271.71,244.75Z"/><path class="cls-2" d="M249.53,298.45c-9.13,3.12-18.83.12-28.23.69-2.64-1.48-6.3-.9-6.93,2.87a177.58,177.58,0,0,0-2.44,26.65c-.07,4.46,5.44,6.43,8.53,3.53,10.15-9.52,20.36-18.38,32.92-24.6C258.42,305.09,254.9,296.62,249.53,298.45Z"/><path class="cls-1" d="M381.13,373.32l1-.77m4.57-3.35c12-9.07,67.8-51,78.61-59.09h0"/><path class="cls-1" d="M359.58,420.75c.68,44.4,50.37,72.61,88.87,50.49a59.63,59.63,0,0,0,30.44-52V316.91a8.51,8.51,0,0,0-13.62-6.8c-6.63,5.09-16.82,10.62-16.21,20.33v29.87a5,5,0,0,1-6.62,4.67C403.26,346.89,358.14,377.71,359.58,420.75Zm29.93-4.28c1.16-17.23,18.93-30.35,35.73-26.48,19.05,3.33,29.95,26.71,20.21,43.44a30.52,30.52,0,0,1-4.15,5.85C422.35,460.36,386.74,444.67,389.51,416.47Z"/><path class="cls-2" d="M411.69,362.76c9.13-3.12,18.83-.11,28.23-.69,2.64,1.48,6.3.91,6.92-2.86a177.83,177.83,0,0,0,2.45-26.65c.07-4.46-5.45-6.44-8.53-3.54-10.16,9.52-20.36,18.38-32.92,24.6C402.8,356.12,406.32,364.6,411.69,362.76Z"/><path class="cls-1" d="M457.31,287.9l-1,.77M451.78,292c-12.06,9.06-67.8,51-78.62,59.08h0"/><path class="cls-1" d="M478.86,240.47c-.69-44.41-50.38-72.62-88.87-50.49a59.57,59.57,0,0,0-30.44,52V344.3a8.5,8.5,0,0,0,13.61,6.8c6.64-5.09,16.82-10.62,16.22-20.33V300.9a5,5,0,0,1,6.61-4.67C435.17,314.33,480.29,283.5,478.86,240.47Zm-29.93,4.28C447.76,262,430,275.1,413.2,271.23c-19.06-3.33-30-26.72-20.21-43.44a29.67,29.67,0,0,1,4.15-5.85C416.08,200.85,451.69,216.55,448.93,244.75Z"/><path class="cls-2" d="M426.74,298.45c-9.13,3.12-18.83.12-28.22.69-2.65-1.48-6.31-.9-6.93,2.87a177.59,177.59,0,0,0-2.45,26.65c-.07,4.46,5.45,6.43,8.53,3.53,10.16-9.52,20.36-18.38,32.92-24.6C435.63,305.09,432.12,296.62,426.74,298.45Z"/><path class="cls-1" d="M196.05,280c-.27-.33-.53-.65-.77-1m-3.35-4.57-59.09-78.62h0"/><path class="cls-1" d="M243.48,301.58c44.41-.68,72.61-50.37,50.49-88.87a59.61,59.61,0,0,0-52-30.44H139.64a8.5,8.5,0,0,0-6.8,13.61c5.09,6.64,10.62,16.82,20.33,16.22H183a5,5,0,0,1,4.67,6.62C169.62,257.9,200.44,303,243.48,301.58Zm-4.28-29.93c-17.23-1.16-30.35-18.93-26.48-35.73,3.33-19.06,26.72-29.95,43.44-20.21a30.52,30.52,0,0,1,5.85,4.15C283.09,238.81,267.4,274.41,239.2,271.65Z"/><path class="cls-2" d="M185.49,249.47c-3.12-9.13-.11-18.83-.69-28.23,1.48-2.64.91-6.3-2.86-6.92a177.83,177.83,0,0,0-26.65-2.45c-4.46-.07-6.43,5.44-3.54,8.53,9.52,10.15,18.38,20.36,24.61,32.92C178.85,258.36,187.33,254.84,185.49,249.47Z"/><path class="cls-1" d="M110.63,203.85c.27.33.53.65.77,1m3.35,4.57c9.06,12.06,51,67.8,59.08,78.62h0"/><path class="cls-1" d="M63.2,182.3c-44.41.69-72.62,50.38-50.49,88.87a59.57,59.57,0,0,0,52,30.44H167a8.5,8.5,0,0,0,6.8-13.61c-5.09-6.64-10.61-16.82-20.32-16.22H123.63a5,5,0,0,1-4.67-6.62C137.06,226,106.24,180.86,63.2,182.3Zm4.28,29.93C84.7,213.4,97.83,231.16,94,248c-3.33,19.06-26.72,30-43.44,20.21A29.67,29.67,0,0,1,44.67,264C23.59,245.07,39.28,209.47,67.48,212.23Z"/><path class="cls-2" d="M121.18,234.42c3.12,9.12.12,18.83.69,28.22-1.47,2.65-.9,6.3,2.87,6.93A177.59,177.59,0,0,0,151.39,272c4.46.06,6.43-5.45,3.54-8.54-9.53-10.15-18.39-20.35-24.61-32.92C127.83,225.52,119.35,229,121.18,234.42Z"/><path class="cls-1" d="M196,102.92c-.27-.33-.53-.65-.77-1m-3.35-4.57c-9.06-12-51-67.8-59.08-78.62h0"/><path class="cls-1" d="M243.47,124.47c44.41-.68,72.62-50.37,50.49-88.87a59.58,59.58,0,0,0-52-30.44H139.64a8.5,8.5,0,0,0-6.8,13.61c5.09,6.64,10.62,16.82,20.33,16.22H183a5,5,0,0,1,4.67,6.62C169.61,80.79,200.44,125.91,243.47,124.47Zm-4.28-29.93C222,93.38,208.84,75.61,212.71,58.81,216,39.75,239.43,28.86,256.15,38.6A30.52,30.52,0,0,1,262,42.75C283.09,61.7,267.39,97.3,239.19,94.54Z"/><path class="cls-2" d="M185.49,72.36c-3.12-9.13-.12-18.83-.69-28.23,1.48-2.64.9-6.3-2.87-6.92a177.59,177.59,0,0,0-26.65-2.45c-4.46-.07-6.43,5.44-3.53,8.53,9.52,10.15,18.38,20.36,24.6,32.92C178.85,81.25,187.32,77.73,185.49,72.36Z"/><path class="cls-1" d="M110.62,26.74c.27.33.53.65.77,1m3.35,4.57c9.07,12.06,51,67.8,59.09,78.62h0"/><path class="cls-1" d="M63.19,5.19c-44.4.69-72.61,50.38-50.48,88.87a59.56,59.56,0,0,0,52,30.44H167a8.5,8.5,0,0,0,6.8-13.61c-5.09-6.64-10.62-16.82-20.33-16.22H123.63A5,5,0,0,1,119,88.05C137.06,48.88,106.23,3.75,63.19,5.19Zm4.28,29.93C84.7,36.29,97.82,54.05,94,70.85c-3.33,19.06-26.71,30-43.44,20.21a30,30,0,0,1-5.85-4.15C23.58,68,39.27,32.36,67.47,35.12Z"/><path class="cls-2" d="M121.18,57.31c3.12,9.12.11,18.83.69,28.22-1.48,2.65-.91,6.3,2.87,6.93a177.59,177.59,0,0,0,26.65,2.45c4.45.06,6.43-5.45,3.53-8.54C145.4,76.22,136.54,66,130.32,53.45,127.82,48.41,119.35,51.93,121.18,57.31Z"/><path class="cls-1" d="M26.58,196.1l1-.77M32.11,192c12.06-9.06,67.8-51,78.62-59.08h0"/><path class="cls-1" d="M5,243.53C5.72,287.94,55.41,316.14,93.9,294a59.59,59.59,0,0,0,30.44-52V139.69a8.5,8.5,0,0,0-13.61-6.79c-6.64,5.09-16.82,10.61-16.22,20.32v29.87a5,5,0,0,1-6.62,4.67C48.72,169.67,3.6,200.49,5,243.53ZM35,239.25C36.13,222,53.89,208.9,70.69,212.77c19.06,3.33,30,26.72,20.21,43.44a29.67,29.67,0,0,1-4.15,5.85C67.8,283.14,32.2,267.45,35,239.25Z"/><path class="cls-2" d="M57.15,185.55c9.13-3.13,18.83-.12,28.22-.7,2.65,1.48,6.31.91,6.93-2.86a177.71,177.71,0,0,0,2.45-26.65c.07-4.46-5.45-6.43-8.53-3.54-10.16,9.52-20.36,18.39-32.93,24.61C48.26,178.9,51.77,187.38,57.15,185.55Z"/><path class="cls-1" d="M102.76,110.68l-1,.77m-4.57,3.35L18.62,173.88h0"/><path class="cls-1" d="M124.31,63.25c-.68-44.41-50.37-72.62-88.87-50.49A59.63,59.63,0,0,0,5,64.79v102.3a8.5,8.5,0,0,0,13.62,6.79c6.63-5.09,16.81-10.61,16.21-20.32V123.69A5,5,0,0,1,41.45,119C80.63,137.11,125.75,106.29,124.31,63.25ZM94.38,67.53C93.22,84.75,75.45,97.88,58.65,94c-19-3.33-29.95-26.72-20.21-43.44a30.52,30.52,0,0,1,4.15-5.85C61.54,23.64,97.15,39.33,94.38,67.53Z"/><path class="cls-2" d="M72.2,121.23c-9.13,3.13-18.83.12-28.23.69-2.64-1.47-6.3-.9-6.92,2.87a177.71,177.71,0,0,0-2.45,26.65c-.07,4.46,5.44,6.43,8.53,3.54,10.16-9.52,20.36-18.39,32.92-24.61C81.09,127.88,77.57,119.4,72.2,121.23Z"/><path class="cls-1" d="M203.8,196.1l1-.77m4.57-3.35c12-9.06,67.8-51,78.62-59.08h0"/><path class="cls-1" d="M182.25,243.53c.68,44.41,50.37,72.61,88.87,50.49a59.63,59.63,0,0,0,30.44-52V139.69A8.5,8.5,0,0,0,288,132.9c-6.64,5.09-16.82,10.61-16.22,20.32v29.87a5,5,0,0,1-6.62,4.67C225.93,169.67,180.81,200.49,182.25,243.53Zm29.93-4.28c1.16-17.22,18.93-30.35,35.73-26.48,19.06,3.33,30,26.72,20.21,43.44a30.52,30.52,0,0,1-4.15,5.85C245,283.14,209.42,267.45,212.18,239.25Z"/><path class="cls-2" d="M234.36,185.55c9.13-3.13,18.83-.12,28.23-.7,2.64,1.48,6.3.91,6.92-2.86A177.71,177.71,0,0,0,272,155.34c.07-4.46-5.44-6.43-8.53-3.54-10.15,9.52-20.36,18.39-32.92,24.61C225.47,178.9,229,187.38,234.36,185.55Z"/><path class="cls-1" d="M280,110.68l-1,.77m-4.57,3.35c-12.06,9.06-67.8,51-78.62,59.08h0"/><path class="cls-1" d="M301.53,63.25c-.69-44.41-50.38-72.62-88.87-50.49a59.59,59.59,0,0,0-30.44,52v102.3a8.5,8.5,0,0,0,13.61,6.79c6.64-5.09,16.82-10.61,16.22-20.32V123.69a5,5,0,0,1,6.62-4.68C257.84,137.11,303,106.29,301.53,63.25ZM271.6,67.53C270.43,84.75,252.67,97.88,235.87,94c-19.06-3.33-30-26.72-20.21-43.44a29.67,29.67,0,0,1,4.15-5.85C238.76,23.64,274.36,39.33,271.6,67.53Z"/><path class="cls-2" d="M249.41,121.23c-9.12,3.13-18.83.12-28.22.69-2.65-1.47-6.3-.9-6.93,2.87a177.71,177.71,0,0,0-2.45,26.65c-.06,4.46,5.45,6.43,8.54,3.54,10.15-9.52,20.35-18.39,32.92-24.61C258.31,127.88,254.79,119.4,249.41,121.23Z"/><path class="cls-1" d="M373.26,280c-.27-.33-.53-.65-.77-1m-3.35-4.57c-9.06-12.06-51-67.8-59.08-78.62h0"/><path class="cls-1" d="M420.69,301.58c44.41-.68,72.62-50.37,50.49-88.87a59.61,59.61,0,0,0-52-30.44H316.86a8.5,8.5,0,0,0-6.8,13.61c5.09,6.64,10.61,16.82,20.32,16.22h29.88a5,5,0,0,1,4.67,6.62C346.83,257.9,377.65,303,420.69,301.58Zm-4.28-29.93c-17.22-1.16-30.35-18.93-26.48-35.73,3.33-19.06,26.72-29.95,43.44-20.21a30.52,30.52,0,0,1,5.85,4.15C460.3,238.81,444.61,274.41,416.41,271.65Z"/><path class="cls-2" d="M362.71,249.47c-3.13-9.13-.12-18.83-.69-28.23,1.47-2.64.9-6.3-2.87-6.92a177.71,177.71,0,0,0-26.65-2.45c-4.46-.07-6.43,5.44-3.54,8.53,9.53,10.15,18.39,20.36,24.61,32.92C356.06,258.36,364.54,254.84,362.71,249.47Z"/><path class="cls-1" d="M287.84,203.85c.27.33.53.65.77,1m3.35,4.57L351.05,288h0"/><path class="cls-1" d="M240.41,182.3c-44.41.69-72.61,50.38-50.49,88.87a59.59,59.59,0,0,0,52,30.44h102.3a8.5,8.5,0,0,0,6.8-13.61c-5.09-6.64-10.62-16.82-20.33-16.22H300.85a5,5,0,0,1-4.67-6.62C314.27,226,283.45,180.86,240.41,182.3Zm4.28,29.93C261.92,213.4,275,231.16,271.17,248c-3.33,19.06-26.72,30-43.44,20.21a29.67,29.67,0,0,1-5.85-4.15C200.8,245.07,216.49,209.47,244.69,212.23Z"/><path class="cls-2" d="M298.4,234.42c3.12,9.12.11,18.83.69,28.22-1.48,2.65-.91,6.3,2.86,6.93A177.83,177.83,0,0,0,328.6,272c4.46.06,6.43-5.45,3.54-8.54-9.52-10.15-18.38-20.35-24.61-32.92C305,225.52,296.56,229,298.4,234.42Z"/><path class="cls-1" d="M373.26,102.92c-.27-.33-.53-.65-.77-1m-3.35-4.57c-9.07-12-51-67.8-59.09-78.62h0"/><path class="cls-1" d="M420.69,124.47c44.41-.68,72.61-50.37,50.49-88.87a59.61,59.61,0,0,0-52-30.44H316.85a8.5,8.5,0,0,0-6.8,13.61c5.09,6.64,10.62,16.82,20.33,16.22h29.87a5,5,0,0,1,4.67,6.62C346.83,80.79,377.65,125.91,420.69,124.47Zm-4.28-29.93c-17.23-1.16-30.35-18.93-26.48-35.73,3.33-19.06,26.71-29.95,43.44-20.21a30.52,30.52,0,0,1,5.85,4.15C460.3,61.7,444.61,97.3,416.41,94.54Z"/><path class="cls-2" d="M362.7,72.36c-3.12-9.13-.11-18.83-.69-28.23,1.48-2.64.91-6.3-2.86-6.92a177.83,177.83,0,0,0-26.65-2.45c-4.46-.07-6.43,5.44-3.54,8.53,9.52,10.15,18.38,20.36,24.6,32.92C356.06,81.25,364.54,77.73,362.7,72.36Z"/><path class="cls-1" d="M287.84,26.74c.27.33.53.65.77,1M292,32.27c9.06,12.06,51,67.8,59.08,78.62h0"/><path class="cls-1" d="M240.41,5.19c-44.41.69-72.62,50.38-50.49,88.87a59.57,59.57,0,0,0,52,30.44H344.24a8.5,8.5,0,0,0,6.8-13.61c-5.09-6.64-10.62-16.82-20.32-16.22H300.84a5,5,0,0,1-4.67-6.62C314.27,48.88,283.45,3.75,240.41,5.19Zm4.28,29.93c17.22,1.17,30.35,18.93,26.48,35.73-3.33,19.06-26.72,30-43.44,20.21a29.67,29.67,0,0,1-5.85-4.15C200.79,68,216.49,32.36,244.69,35.12Z"/><path class="cls-2" d="M298.39,57.31c3.12,9.12.12,18.83.69,28.22-1.48,2.65-.9,6.3,2.87,6.93a177.59,177.59,0,0,0,26.65,2.45c4.46.06,6.43-5.45,3.53-8.54-9.52-10.15-18.38-20.35-24.6-32.92C305,48.41,296.56,51.93,298.39,57.31Z"/><path class="cls-1" d="M203.8,196.1l1-.77m4.57-3.35c12-9.06,67.8-51,78.62-59.08h0"/><path class="cls-1" d="M182.25,243.53c.68,44.41,50.37,72.61,88.87,50.49a59.63,59.63,0,0,0,30.44-52V139.69A8.5,8.5,0,0,0,288,132.9c-6.64,5.09-16.82,10.61-16.22,20.32v29.87a5,5,0,0,1-6.62,4.67C225.93,169.67,180.81,200.49,182.25,243.53Zm29.93-4.28c1.16-17.22,18.93-30.35,35.73-26.48,19.06,3.33,30,26.72,20.21,43.44a30.52,30.52,0,0,1-4.15,5.85C245,283.14,209.42,267.45,212.18,239.25Z"/><path class="cls-2" d="M234.36,185.55c9.13-3.13,18.83-.12,28.23-.7,2.64,1.48,6.3.91,6.92-2.86A177.71,177.71,0,0,0,272,155.34c.07-4.46-5.44-6.43-8.53-3.54-10.15,9.52-20.36,18.39-32.92,24.61C225.47,178.9,229,187.38,234.36,185.55Z"/><path class="cls-1" d="M280,110.68l-1,.77m-4.57,3.35c-12.06,9.06-67.8,51-78.62,59.08h0"/><path class="cls-1" d="M301.53,63.25c-.69-44.41-50.38-72.62-88.87-50.49a59.59,59.59,0,0,0-30.44,52v102.3a8.5,8.5,0,0,0,13.61,6.79c6.64-5.09,16.82-10.61,16.22-20.32V123.69a5,5,0,0,1,6.62-4.68C257.84,137.11,303,106.29,301.53,63.25ZM271.6,67.53C270.43,84.75,252.67,97.88,235.87,94c-19.06-3.33-30-26.72-20.21-43.44a29.67,29.67,0,0,1,4.15-5.85C238.76,23.64,274.36,39.33,271.6,67.53Z"/><path class="cls-2" d="M249.41,121.23c-9.12,3.13-18.83.12-28.22.69-2.65-1.47-6.3-.9-6.93,2.87a177.71,177.71,0,0,0-2.45,26.65c-.06,4.46,5.45,6.43,8.54,3.54,10.15-9.52,20.35-18.39,32.92-24.61C258.31,127.88,254.79,119.4,249.41,121.23Z"/><path class="cls-1" d="M381,196.1l1-.77m4.57-3.35c12.06-9.06,67.8-51,78.62-59.08h0"/><path class="cls-1" d="M359.46,243.53c.69,44.41,50.38,72.61,88.87,50.49a59.61,59.61,0,0,0,30.44-52V139.69a8.5,8.5,0,0,0-13.61-6.79c-6.64,5.09-16.82,10.61-16.22,20.32v29.87a5,5,0,0,1-6.62,4.67C403.15,169.67,358,200.49,359.46,243.53Zm29.93-4.28c1.16-17.22,18.93-30.35,35.73-26.48,19.06,3.33,30,26.72,20.21,43.44a30.09,30.09,0,0,1-4.15,5.85C422.23,283.14,386.63,267.45,389.39,239.25Z"/><path class="cls-2" d="M411.57,185.55c9.13-3.13,18.83-.12,28.23-.7,2.64,1.48,6.3.91,6.93-2.86a179,179,0,0,0,2.45-26.65c.06-4.46-5.45-6.43-8.54-3.54-10.15,9.52-20.36,18.39-32.92,24.61C402.68,178.9,406.2,187.38,411.57,185.55Z"/><path class="cls-1" d="M457.19,110.68l-1,.77m-4.57,3.35c-12.06,9.06-67.8,51-78.62,59.08h0"/><path class="cls-1" d="M478.74,63.25c-.69-44.41-50.38-72.62-88.87-50.49a59.61,59.61,0,0,0-30.44,52v102.3A8.5,8.5,0,0,0,373,173.88c6.64-5.09,16.82-10.61,16.22-20.32V123.69a5,5,0,0,1,6.62-4.68C435.05,137.11,480.18,106.29,478.74,63.25Zm-29.93,4.28C447.65,84.75,429.88,97.88,413.08,94c-19.06-3.33-30-26.72-20.21-43.44A30.09,30.09,0,0,1,397,44.72C416,23.64,451.57,39.33,448.81,67.53Z"/><path class="cls-2" d="M426.63,121.23c-9.13,3.13-18.83.12-28.23.69-2.64-1.47-6.3-.9-6.93,2.87A179,179,0,0,0,389,151.44c-.06,4.46,5.45,6.43,8.54,3.54,10.15-9.52,20.36-18.39,32.92-24.61C435.52,127.88,432,119.4,426.63,121.23Z"/></g></g></svg>