<svg xmlns="http://www.w3.org/2000/svg" viewBox="0 0 484 483.89"><defs><style>.cls-1,.cls-2{fill:none;stroke:#789971;stroke-miterlimit:10;}.cls-1{stroke-width:10px;}</style></defs><title>Asset 26</title><g id="Layer_2" data-name="Layer 2"><g id="Layer_1-2" data-name="Layer 1"><path class="cls-1" d="M196.16,457.19c-.27-.33-.53-.65-.77-1M192,451.66,133,373.05h0"/><path class="cls-1" d="M243.59,478.74c44.41-.68,72.62-50.37,50.49-88.87a59.62,59.62,0,0,0-52-30.44H139.76a8.51,8.51,0,0,0-6.8,13.62c5.09,6.63,10.62,16.82,20.33,16.21h29.87a5,5,0,0,1,4.67,6.62C169.73,435.06,200.56,480.18,243.59,478.74Zm-4.28-29.93c-17.22-1.16-30.35-18.93-26.48-35.73,3.33-19.05,26.72-29.95,43.44-20.21a30.52,30.52,0,0,1,5.85,4.15C283.21,416,267.51,451.58,239.31,448.81Z"/><path class="cls-2" d="M185.61,426.63c-3.12-9.13-.12-18.83-.69-28.23,1.48-2.64.9-6.3-2.87-6.92A177.59,177.59,0,0,0,155.4,389c-4.46-.07-6.43,5.45-3.53,8.53,9.52,10.16,18.38,20.36,24.6,32.92C179,435.52,187.44,432,185.61,426.63Z"/><path class="cls-1" d="M110.74,381c.27.33.53.65.77,1m3.35,4.57L174,465.16h0"/><path class="cls-1" d="M63.31,359.46c-44.4.69-72.61,50.38-50.49,88.87a59.59,59.59,0,0,0,52,30.44h102.3a8.5,8.5,0,0,0,6.8-13.61c-5.09-6.64-10.62-16.82-20.33-16.22H123.75a5,5,0,0,1-4.67-6.61C137.18,403.15,106.35,358,63.31,359.46Zm4.28,29.93c17.23,1.17,30.35,18.93,26.48,35.73-3.33,19.06-26.71,30-43.44,20.21a29.67,29.67,0,0,1-5.85-4.15C23.7,422.24,39.39,386.63,67.59,389.39Z"/><path class="cls-2" d="M121.3,411.58c3.12,9.13.11,18.83.69,28.22-1.48,2.65-.91,6.31,2.86,6.93a177.83,177.83,0,0,0,26.65,2.45c4.46.07,6.44-5.45,3.54-8.53-9.52-10.16-18.38-20.36-24.6-32.92C127.94,402.69,119.46,406.2,121.3,411.58Z"/><path class="cls-1" d="M196.16,280.08c-.27-.33-.53-.65-.77-1M192,274.55,133,195.94h0"/><path class="cls-1" d="M243.59,301.63c44.41-.68,72.61-50.37,50.49-88.87a59.63,59.63,0,0,0-52-30.44H139.75a8.51,8.51,0,0,0-6.8,13.62c5.09,6.64,10.62,16.82,20.33,16.21h29.87a5,5,0,0,1,4.67,6.62C169.73,258,200.55,303.07,243.59,301.63Zm-4.28-29.93C222.08,270.54,209,252.77,212.83,236c3.33-19.05,26.72-29.95,43.44-20.21a30.52,30.52,0,0,1,5.85,4.15C283.2,238.86,267.51,274.47,239.31,271.7Z"/><path class="cls-2" d="M185.61,249.52c-3.13-9.13-.12-18.83-.7-28.22,1.48-2.65.91-6.31-2.86-6.93a177.71,177.71,0,0,0-26.65-2.45c-4.46-.07-6.43,5.45-3.54,8.53,9.52,10.16,18.39,20.36,24.61,32.92C179,258.41,187.44,254.89,185.61,249.52Z"/><path class="cls-1" d="M110.74,203.9c.27.33.53.65.77,1m3.35,4.57c9.06,12.06,51,67.8,59.08,78.62h0"/><path class="cls-1" d="M63.31,182.35C18.9,183-9.31,232.73,12.82,271.22a59.59,59.59,0,0,0,52,30.44H167.14a8.5,8.5,0,0,0,6.8-13.61c-5.09-6.64-10.61-16.82-20.32-16.22H123.75a5,5,0,0,1-4.68-6.61C137.17,226,106.35,180.92,63.31,182.35Zm4.28,29.93c17.22,1.17,30.35,18.93,26.48,35.73-3.33,19.06-26.72,30-43.44,20.21a29.67,29.67,0,0,1-5.85-4.15C23.7,245.13,39.39,209.52,67.59,212.28Z"/><path class="cls-2" d="M121.29,234.47c3.13,9.13.12,18.83.69,28.22-1.47,2.65-.9,6.31,2.87,6.93a177.71,177.71,0,0,0,26.65,2.45c4.46.07,6.43-5.45,3.54-8.53-9.53-10.16-18.39-20.36-24.61-32.92C127.94,225.58,119.46,229.09,121.29,234.47Z"/><path class="cls-1" d="M26.7,373.26l1-.77m4.57-3.35c12.06-9.06,67.8-51,78.62-59.08h0"/><path class="cls-1" d="M5.15,420.69C5.84,465.1,55.52,493.31,94,471.18a59.61,59.61,0,0,0,30.44-52V316.86a8.5,8.5,0,0,0-13.61-6.8c-6.64,5.09-16.82,10.61-16.22,20.32v29.88A5,5,0,0,1,88,364.93C48.84,346.83,3.71,377.65,5.15,420.69Zm29.93-4.28c1.16-17.22,18.93-30.35,35.73-26.48,19.06,3.33,30,26.72,20.21,43.44a30.09,30.09,0,0,1-4.15,5.85C67.92,460.3,32.32,444.61,35.08,416.41Z"/><path class="cls-2" d="M57.26,362.71c9.13-3.13,18.83-.12,28.23-.69,2.64,1.47,6.3.9,6.93-2.87a179,179,0,0,0,2.45-26.65c.06-4.46-5.45-6.43-8.54-3.54C76.18,338.49,66,347.35,53.41,353.57,48.37,356.06,51.89,364.54,57.26,362.71Z"/><path class="cls-1" d="M102.88,287.84l-1,.77M97.35,292,18.73,351.05h0"/><path class="cls-1" d="M124.43,240.41c-.69-44.41-50.38-72.61-88.87-50.49A59.59,59.59,0,0,0,5.12,242v102.3a8.5,8.5,0,0,0,13.61,6.8C25.37,346,35.55,340.43,35,330.72V300.85a5,5,0,0,1,6.62-4.67C80.74,314.27,125.87,283.45,124.43,240.41ZM94.5,244.69C93.34,261.92,75.57,275,58.77,271.17c-19.06-3.33-30-26.72-20.21-43.44a30.09,30.09,0,0,1,4.15-5.85C61.66,200.8,97.26,216.49,94.5,244.69Z"/><path class="cls-2" d="M72.32,298.4c-9.13,3.12-18.83.11-28.23.69-2.65-1.48-6.3-.91-6.93,2.86a179.15,179.15,0,0,0-2.45,26.65c-.06,4.46,5.45,6.43,8.54,3.54,10.15-9.52,20.36-18.38,32.92-24.61C81.21,305,77.69,296.56,72.32,298.4Z"/><path class="cls-1" d="M203.91,373.26l1-.77m4.57-3.35c12.06-9.06,67.8-51,78.62-59.08h0"/><path class="cls-1" d="M182.36,420.69c.69,44.41,50.38,72.62,88.87,50.49a59.59,59.59,0,0,0,30.44-52V316.86a8.5,8.5,0,0,0-13.61-6.8c-6.64,5.09-16.82,10.61-16.22,20.32v29.88a5,5,0,0,1-6.62,4.67C226.05,346.83,180.92,377.65,182.36,420.69Zm29.93-4.28c1.17-17.22,18.93-30.35,35.73-26.48,19.06,3.33,30,26.72,20.21,43.44a29.67,29.67,0,0,1-4.15,5.85C245.13,460.3,209.53,444.61,212.29,416.41Z"/><path class="cls-2" d="M234.48,362.71c9.12-3.13,18.83-.12,28.22-.69,2.65,1.47,6.3.9,6.93-2.87a177.71,177.71,0,0,0,2.45-26.65c.06-4.46-5.45-6.43-8.54-3.54-10.15,9.53-20.35,18.39-32.92,24.61C225.58,356.06,229.1,364.54,234.48,362.71Z"/><path class="cls-1" d="M280.09,287.84l-1,.77M274.56,292l-78.62,59.09h0"/><path class="cls-1" d="M301.64,240.41C301,196,251.27,167.8,212.77,189.92a59.61,59.61,0,0,0-30.44,52v102.3a8.5,8.5,0,0,0,13.61,6.8c6.64-5.09,16.82-10.62,16.22-20.33V300.85a5,5,0,0,1,6.62-4.67C258,314.27,303.08,283.45,301.64,240.41Zm-29.93,4.28C270.55,261.92,252.78,275,236,271.17c-19.06-3.33-29.95-26.72-20.21-43.44a30.52,30.52,0,0,1,4.15-5.85C238.87,200.8,274.47,216.49,271.71,244.69Z"/><path class="cls-2" d="M249.53,298.4c-9.13,3.12-18.83.11-28.23.69-2.64-1.48-6.3-.91-6.93,2.86a177.82,177.82,0,0,0-2.44,26.65c-.07,4.46,5.44,6.43,8.53,3.54,10.15-9.52,20.36-18.38,32.92-24.61C258.42,305,254.9,296.56,249.53,298.4Z"/><path class="cls-1" d="M373.38,457.19c-.27-.33-.53-.65-.77-1m-3.35-4.57c-9.07-12.05-51-67.8-59.09-78.61h0"/><path class="cls-1" d="M420.81,478.74c44.4-.68,72.61-50.37,50.49-88.87a59.63,59.63,0,0,0-52-30.44H317a8.51,8.51,0,0,0-6.8,13.62c5.09,6.63,10.62,16.82,20.33,16.21h29.87a5,5,0,0,1,4.67,6.62C346.94,435.06,377.77,480.18,420.81,478.74Zm-4.28-29.93c-17.23-1.16-30.35-18.93-26.48-35.73,3.33-19.05,26.71-29.95,43.44-20.21a30.52,30.52,0,0,1,5.85,4.15C460.42,416,444.73,451.58,416.53,448.81Z"/><path class="cls-2" d="M362.82,426.63c-3.12-9.13-.11-18.83-.69-28.23,1.48-2.64.91-6.3-2.86-6.92A177.84,177.84,0,0,0,332.61,389c-4.45-.07-6.43,5.45-3.53,8.53,9.52,10.16,18.38,20.36,24.6,32.92C356.18,435.52,364.65,432,362.82,426.63Z"/><path class="cls-1" d="M288,381c.27.33.53.65.77,1m3.35,4.57c9.06,12.06,51,67.8,59.08,78.62h0"/><path class="cls-1" d="M240.53,359.46c-44.41.69-72.62,50.38-50.49,88.87a59.57,59.57,0,0,0,52,30.44H344.36a8.5,8.5,0,0,0,6.8-13.61c-5.09-6.64-10.62-16.82-20.33-16.22H301a5,5,0,0,1-4.67-6.61C314.39,403.15,283.56,358,240.53,359.46Zm4.28,29.93c17.22,1.17,30.35,18.93,26.48,35.73-3.33,19.06-26.72,30-43.44,20.21a29.67,29.67,0,0,1-5.85-4.15C200.91,422.24,216.61,386.63,244.81,389.39Z"/><path class="cls-2" d="M298.51,411.58c3.12,9.13.12,18.83.69,28.22-1.48,2.65-.9,6.31,2.87,6.93a177.59,177.59,0,0,0,26.65,2.45c4.46.07,6.43-5.45,3.53-8.53-9.52-10.16-18.38-20.36-24.6-32.92C305.15,402.69,296.68,406.2,298.51,411.58Z"/><path class="cls-1" d="M373.37,280.08c-.27-.33-.53-.65-.77-1m-3.35-4.57-59.08-78.61h0"/><path class="cls-1" d="M420.8,301.63c44.41-.68,72.62-50.37,50.49-88.87a59.62,59.62,0,0,0-52-30.44H317a8.51,8.51,0,0,0-6.8,13.62c5.09,6.64,10.62,16.82,20.33,16.21h29.87a5,5,0,0,1,4.67,6.62C346.94,258,377.76,303.07,420.8,301.63Zm-4.28-29.93C399.3,270.54,386.17,252.77,390,236c3.33-19.05,26.72-29.95,43.44-20.21a30.52,30.52,0,0,1,5.85,4.15C460.42,238.86,444.72,274.47,416.52,271.7Z"/><path class="cls-2" d="M362.82,249.52c-3.12-9.13-.12-18.83-.69-28.22,1.48-2.65.9-6.31-2.87-6.93a177.59,177.59,0,0,0-26.65-2.45c-4.46-.07-6.43,5.45-3.53,8.53,9.52,10.16,18.38,20.36,24.6,32.92C356.18,258.41,364.65,254.89,362.82,249.52Z"/><path class="cls-1" d="M288,203.9c.27.33.53.65.77,1m3.35,4.57,59.09,78.62h0"/><path class="cls-1" d="M240.52,182.35c-44.41.69-72.61,50.38-50.49,88.87a59.59,59.59,0,0,0,52,30.44h102.3a8.5,8.5,0,0,0,6.8-13.61c-5.09-6.64-10.62-16.82-20.33-16.22H301a5,5,0,0,1-4.67-6.61C314.38,226,283.56,180.92,240.52,182.35Zm4.28,29.93c17.23,1.17,30.35,18.93,26.48,35.73-3.33,19.06-26.71,30-43.44,20.21a29.67,29.67,0,0,1-5.85-4.15C200.91,245.13,216.6,209.52,244.8,212.28Z"/><path class="cls-2" d="M298.51,234.47c3.12,9.13.11,18.83.69,28.22-1.48,2.65-.91,6.31,2.86,6.93a177.83,177.83,0,0,0,26.65,2.45c4.46.07,6.43-5.45,3.54-8.53-9.52-10.16-18.38-20.36-24.6-32.92C305.15,225.58,296.67,229.09,298.51,234.47Z"/><path class="cls-1" d="M203.91,373.26l1-.77m4.57-3.35c12.06-9.06,67.8-51,78.62-59.08h0"/><path class="cls-1" d="M182.36,420.69c.69,44.41,50.38,72.62,88.87,50.49a59.59,59.59,0,0,0,30.44-52V316.86a8.5,8.5,0,0,0-13.61-6.8c-6.64,5.09-16.82,10.61-16.22,20.32v29.88a5,5,0,0,1-6.62,4.67C226.05,346.83,180.92,377.65,182.36,420.69Zm29.93-4.28c1.17-17.22,18.93-30.35,35.73-26.48,19.06,3.33,30,26.72,20.21,43.44a29.67,29.67,0,0,1-4.15,5.85C245.13,460.3,209.53,444.61,212.29,416.41Z"/><path class="cls-2" d="M234.48,362.71c9.12-3.13,18.83-.12,28.22-.69,2.65,1.47,6.3.9,6.93-2.87a177.71,177.71,0,0,0,2.45-26.65c.06-4.46-5.45-6.43-8.54-3.54-10.15,9.53-20.35,18.39-32.92,24.61C225.58,356.06,229.1,364.54,234.48,362.71Z"/><path class="cls-1" d="M280.09,287.84l-1,.77M274.56,292l-78.62,59.09h0"/><path class="cls-1" d="M301.64,240.41C301,196,251.27,167.8,212.77,189.92a59.61,59.61,0,0,0-30.44,52v102.3a8.5,8.5,0,0,0,13.61,6.8c6.64-5.09,16.82-10.62,16.22-20.33V300.85a5,5,0,0,1,6.62-4.67C258,314.27,303.08,283.45,301.64,240.41Zm-29.93,4.28C270.55,261.92,252.78,275,236,271.17c-19.06-3.33-29.95-26.72-20.21-43.44a30.52,30.52,0,0,1,4.15-5.85C238.87,200.8,274.47,216.49,271.71,244.69Z"/><path class="cls-2" d="M249.53,298.4c-9.13,3.12-18.83.11-28.23.69-2.64-1.48-6.3-.91-6.93,2.86a177.82,177.82,0,0,0-2.44,26.65c-.07,4.46,5.44,6.43,8.53,3.54,10.15-9.52,20.36-18.38,32.92-24.61C258.42,305,254.9,296.56,249.53,298.4Z"/><path class="cls-1" d="M381.13,373.26l1-.77m4.57-3.35,78.61-59.08h0"/><path class="cls-1" d="M359.58,420.69c.68,44.41,50.37,72.62,88.87,50.49a59.63,59.63,0,0,0,30.44-52V316.86a8.51,8.51,0,0,0-13.62-6.8c-6.63,5.09-16.82,10.61-16.21,20.32v29.88a5,5,0,0,1-6.62,4.67C403.26,346.83,358.14,377.65,359.58,420.69Zm29.93-4.28c1.16-17.22,18.93-30.35,35.73-26.48,19.05,3.33,29.95,26.72,20.21,43.44a30.52,30.52,0,0,1-4.15,5.85C422.35,460.3,386.74,444.61,389.51,416.41Z"/><path class="cls-2" d="M411.69,362.71c9.13-3.13,18.83-.12,28.23-.69,2.64,1.47,6.3.9,6.92-2.87a177.71,177.71,0,0,0,2.45-26.65c.07-4.46-5.45-6.43-8.53-3.54-10.16,9.53-20.36,18.39-32.92,24.61C402.8,356.06,406.32,364.54,411.69,362.71Z"/><path class="cls-1" d="M457.31,287.84l-1,.77M451.78,292l-78.62,59.09h0"/><path class="cls-1" d="M478.86,240.41C478.17,196,428.48,167.8,390,189.92a59.59,59.59,0,0,0-30.44,52v102.3a8.5,8.5,0,0,0,13.61,6.8c6.64-5.09,16.82-10.62,16.22-20.33V300.85a5,5,0,0,1,6.61-4.67C435.17,314.27,480.29,283.45,478.86,240.41Zm-29.93,4.28C447.76,261.92,430,275,413.2,271.17c-19.06-3.33-30-26.72-20.21-43.44a29.67,29.67,0,0,1,4.15-5.85C416.08,200.8,451.69,216.49,448.93,244.69Z"/><path class="cls-2" d="M426.74,298.4c-9.13,3.12-18.83.11-28.22.69-2.65-1.48-6.31-.91-6.93,2.86a177.83,177.83,0,0,0-2.45,26.65c-.07,4.46,5.45,6.43,8.53,3.54,10.16-9.52,20.36-18.38,32.92-24.61C435.63,305,432.12,296.56,426.74,298.4Z"/><path class="cls-1" d="M196.05,280c-.27-.33-.53-.65-.77-1m-3.35-4.57-59.09-78.62h0"/><path class="cls-1" d="M243.48,301.53c44.41-.69,72.61-50.38,50.49-88.87a59.59,59.59,0,0,0-52-30.44H139.64a8.5,8.5,0,0,0-6.8,13.61c5.09,6.64,10.62,16.82,20.33,16.22H183a5,5,0,0,1,4.67,6.62C169.62,257.84,200.44,303,243.48,301.53ZM239.2,271.6c-17.23-1.17-30.35-18.93-26.48-35.73,3.33-19.06,26.72-30,43.44-20.21a29.67,29.67,0,0,1,5.85,4.15C283.09,238.76,267.4,274.36,239.2,271.6Z"/><path class="cls-2" d="M185.49,249.41c-3.12-9.12-.11-18.83-.69-28.22,1.48-2.65.91-6.3-2.86-6.93a177.83,177.83,0,0,0-26.65-2.45c-4.46-.06-6.43,5.45-3.54,8.54,9.52,10.15,18.38,20.35,24.61,32.92C178.85,258.31,187.33,254.79,185.49,249.41Z"/><path class="cls-1" d="M110.63,203.8c.27.33.53.65.77,1m3.35,4.57c9.06,12,51,67.8,59.08,78.62h0"/><path class="cls-1" d="M63.2,182.25c-44.41.68-72.62,50.37-50.49,88.87a59.62,59.62,0,0,0,52,30.44H167a8.5,8.5,0,0,0,6.8-13.61c-5.09-6.64-10.61-16.82-20.32-16.22H123.63a5,5,0,0,1-4.67-6.62C137.06,225.93,106.24,180.81,63.2,182.25Zm4.28,29.93C84.7,213.34,97.83,231.11,94,247.91c-3.33,19.06-26.72,30-43.44,20.21A30.52,30.52,0,0,1,44.67,264C23.59,245,39.28,209.42,67.48,212.18Z"/><path class="cls-2" d="M121.18,234.36c3.12,9.13.12,18.83.69,28.23-1.47,2.64-.9,6.3,2.87,6.92A177.59,177.59,0,0,0,151.39,272c4.46.07,6.43-5.44,3.54-8.53-9.53-10.15-18.39-20.36-24.61-32.92C127.83,225.47,119.35,229,121.18,234.36Z"/><path class="cls-1" d="M196,102.87c-.27-.33-.53-.65-.77-1m-3.35-4.57c-9.06-12.06-51-67.8-59.08-78.62h0"/><path class="cls-1" d="M243.47,124.42C287.88,123.73,316.09,74,294,35.55a59.56,59.56,0,0,0-52-30.44H139.64a8.5,8.5,0,0,0-6.8,13.61c5.09,6.64,10.62,16.82,20.33,16.22H183a5,5,0,0,1,4.67,6.62C169.61,80.73,200.44,125.86,243.47,124.42Zm-4.28-29.93C222,93.32,208.84,75.56,212.71,58.76c3.33-19.06,26.72-30,43.44-20.21A29.67,29.67,0,0,1,262,42.7C283.09,61.65,267.39,97.25,239.19,94.49Z"/><path class="cls-2" d="M185.49,72.3c-3.12-9.12-.12-18.83-.69-28.22,1.48-2.65.9-6.3-2.87-6.93a177.59,177.59,0,0,0-26.65-2.45c-4.46-.06-6.43,5.45-3.53,8.54,9.52,10.15,18.38,20.35,24.6,32.92C178.85,81.2,187.32,77.68,185.49,72.3Z"/><path class="cls-1" d="M110.62,26.69c.27.33.53.65.77,1m3.35,4.57c9.07,12.06,51,67.8,59.09,78.62h0"/><path class="cls-1" d="M63.19,5.14C18.79,5.82-9.42,55.51,12.71,94a59.58,59.58,0,0,0,52,30.44H167a8.5,8.5,0,0,0,6.8-13.61C168.74,104.2,163.21,94,153.5,94.62H123.63A5,5,0,0,1,119,88C137.06,48.82,106.23,3.7,63.19,5.14Zm4.28,29.93C84.7,36.23,97.82,54,94,70.8c-3.33,19.06-26.71,30-43.44,20.21a30.84,30.84,0,0,1-5.85-4.15C23.58,67.91,39.27,32.31,67.47,35.07Z"/><path class="cls-2" d="M121.18,57.25c3.12,9.13.11,18.83.69,28.23-1.48,2.64-.91,6.3,2.87,6.92a177.59,177.59,0,0,0,26.65,2.45c4.45.07,6.43-5.44,3.53-8.53C145.4,76.17,136.54,66,130.32,53.4,127.82,48.36,119.35,51.88,121.18,57.25Z"/><path class="cls-1" d="M26.58,196l1-.77m4.57-3.35c12.06-9.06,67.8-51,78.62-59.08h0"/><path class="cls-1" d="M5,243.47C5.72,287.88,55.41,316.09,93.9,294a59.56,59.56,0,0,0,30.44-52V139.64a8.5,8.5,0,0,0-13.61-6.8c-6.64,5.09-16.82,10.62-16.22,20.33V183a5,5,0,0,1-6.62,4.67C48.72,169.61,3.6,200.44,5,243.47ZM35,239.19c1.17-17.22,18.93-30.35,35.73-26.48,19.06,3.33,30,26.72,20.21,43.44A29.67,29.67,0,0,1,86.75,262C67.8,283.09,32.2,267.39,35,239.19Z"/><path class="cls-2" d="M57.15,185.49c9.13-3.12,18.83-.12,28.22-.69,2.65,1.48,6.31.9,6.93-2.87a177.59,177.59,0,0,0,2.45-26.65c.07-4.46-5.45-6.43-8.53-3.53-10.16,9.52-20.36,18.38-32.93,24.6C48.26,178.85,51.77,187.32,57.15,185.49Z"/><path class="cls-1" d="M102.76,110.62l-1,.77m-4.57,3.35c-12,9.07-67.8,51-78.61,59.09h0"/><path class="cls-1" d="M124.31,63.19c-.68-44.4-50.37-72.61-88.87-50.48A59.6,59.6,0,0,0,5,64.73V167a8.51,8.51,0,0,0,13.62,6.8c6.63-5.09,16.81-10.62,16.21-20.33V123.63A5,5,0,0,1,41.45,119C80.63,137.06,125.75,106.23,124.31,63.19ZM94.38,67.47C93.22,84.7,75.45,97.82,58.65,94c-19-3.33-29.95-26.71-20.21-43.44a30.84,30.84,0,0,1,4.15-5.85C61.54,23.58,97.15,39.27,94.38,67.47Z"/><path class="cls-2" d="M72.2,121.18c-9.13,3.12-18.83.11-28.23.69-2.64-1.48-6.3-.91-6.92,2.87a177.59,177.59,0,0,0-2.45,26.65c-.07,4.45,5.44,6.43,8.53,3.53,10.16-9.52,20.36-18.38,32.92-24.6C81.09,127.82,77.57,119.35,72.2,121.18Z"/><path class="cls-1" d="M203.8,196l1-.77m4.57-3.35c12-9.06,67.8-51,78.62-59.08h0"/><path class="cls-1" d="M182.25,243.47c.68,44.41,50.37,72.62,88.87,50.49a59.6,59.6,0,0,0,30.44-52V139.64a8.5,8.5,0,0,0-13.61-6.8c-6.64,5.09-16.82,10.62-16.22,20.33V183a5,5,0,0,1-6.62,4.67C225.93,169.61,180.81,200.44,182.25,243.47Zm29.93-4.28c1.16-17.22,18.93-30.35,35.73-26.48,19.06,3.33,30,26.72,20.21,43.44A30.52,30.52,0,0,1,264,262C245,283.09,209.42,267.39,212.18,239.19Z"/><path class="cls-2" d="M234.36,185.49c9.13-3.12,18.83-.12,28.23-.69,2.64,1.48,6.3.9,6.92-2.87A177.59,177.59,0,0,0,272,155.28c.07-4.46-5.44-6.43-8.53-3.53-10.15,9.52-20.36,18.38-32.92,24.6C225.47,178.85,229,187.32,234.36,185.49Z"/><path class="cls-1" d="M280,110.62l-1,.77m-4.57,3.35c-12.06,9.07-67.8,51-78.62,59.09h0"/><path class="cls-1" d="M301.53,63.19c-.69-44.4-50.38-72.61-88.87-50.48a59.56,59.56,0,0,0-30.44,52V167a8.5,8.5,0,0,0,13.61,6.8c6.64-5.09,16.82-10.62,16.22-20.33V123.63a5,5,0,0,1,6.62-4.67C257.84,137.06,303,106.23,301.53,63.19ZM271.6,67.47C270.43,84.7,252.67,97.82,235.87,94c-19.06-3.33-30-26.71-20.21-43.44a30,30,0,0,1,4.15-5.85C238.76,23.58,274.36,39.27,271.6,67.47Z"/><path class="cls-2" d="M249.41,121.18c-9.12,3.12-18.83.11-28.22.69-2.65-1.48-6.3-.91-6.93,2.87a177.59,177.59,0,0,0-2.45,26.65c-.06,4.45,5.45,6.43,8.54,3.53,10.15-9.52,20.35-18.38,32.92-24.6C258.31,127.82,254.79,119.35,249.41,121.18Z"/><path class="cls-1" d="M373.26,280c-.27-.33-.53-.65-.77-1m-3.35-4.57c-9.06-12.06-51-67.8-59.08-78.62h0"/><path class="cls-1" d="M420.69,301.53c44.41-.69,72.62-50.38,50.49-88.87a59.59,59.59,0,0,0-52-30.44H316.86a8.5,8.5,0,0,0-6.8,13.61c5.09,6.64,10.61,16.82,20.32,16.22h29.88a5,5,0,0,1,4.67,6.62C346.83,257.84,377.65,303,420.69,301.53Zm-4.28-29.93c-17.22-1.17-30.35-18.93-26.48-35.73,3.33-19.06,26.72-30,43.44-20.21a29.67,29.67,0,0,1,5.85,4.15C460.3,238.76,444.61,274.36,416.41,271.6Z"/><path class="cls-2" d="M362.71,249.41c-3.13-9.12-.12-18.83-.69-28.22,1.47-2.65.9-6.3-2.87-6.93a177.71,177.71,0,0,0-26.65-2.45c-4.46-.06-6.43,5.45-3.54,8.54,9.53,10.15,18.39,20.35,24.61,32.92C356.06,258.31,364.54,254.79,362.71,249.41Z"/><path class="cls-1" d="M287.84,203.8c.27.33.53.65.77,1m3.35,4.57L351.05,288h0"/><path class="cls-1" d="M240.41,182.25c-44.41.68-72.61,50.37-50.49,88.87a59.63,59.63,0,0,0,52,30.44h102.3a8.5,8.5,0,0,0,6.8-13.61c-5.09-6.64-10.62-16.82-20.33-16.22H300.85a5,5,0,0,1-4.67-6.62C314.27,225.93,283.45,180.81,240.41,182.25Zm4.28,29.93c17.23,1.16,30.35,18.93,26.48,35.73-3.33,19.06-26.72,30-43.44,20.21a30.52,30.52,0,0,1-5.85-4.15C200.8,245,216.49,209.42,244.69,212.18Z"/><path class="cls-2" d="M298.4,234.36c3.12,9.13.11,18.83.69,28.23-1.48,2.64-.91,6.3,2.86,6.92A177.83,177.83,0,0,0,328.6,272c4.46.07,6.43-5.44,3.54-8.53-9.52-10.15-18.38-20.36-24.61-32.92C305,225.47,296.56,229,298.4,234.36Z"/><path class="cls-1" d="M373.26,102.87c-.27-.33-.53-.65-.77-1m-3.35-4.57L310.05,18.72h0"/><path class="cls-1" d="M420.69,124.42c44.41-.69,72.61-50.38,50.49-88.87a59.59,59.59,0,0,0-52-30.44H316.85a8.5,8.5,0,0,0-6.8,13.61c5.09,6.64,10.62,16.82,20.33,16.22h29.87a5,5,0,0,1,4.67,6.62C346.83,80.73,377.65,125.86,420.69,124.42Zm-4.28-29.93c-17.23-1.17-30.35-18.93-26.48-35.73,3.33-19.06,26.71-30,43.44-20.21a29.67,29.67,0,0,1,5.85,4.15C460.3,61.65,444.61,97.25,416.41,94.49Z"/><path class="cls-2" d="M362.7,72.3c-3.12-9.12-.11-18.83-.69-28.22,1.48-2.65.91-6.3-2.86-6.93A177.83,177.83,0,0,0,332.5,34.7c-4.46-.06-6.43,5.45-3.54,8.54,9.52,10.15,18.38,20.35,24.6,32.92C356.06,81.2,364.54,77.68,362.7,72.3Z"/><path class="cls-1" d="M287.84,26.69c.27.33.53.65.77,1M292,32.22c9.06,12.06,51,67.8,59.08,78.62h0"/><path class="cls-1" d="M240.41,5.14C196,5.82,167.79,55.51,189.92,94a59.6,59.6,0,0,0,52,30.44H344.24a8.5,8.5,0,0,0,6.8-13.61C346,104.2,340.42,94,330.72,94.62H300.84A5,5,0,0,1,296.17,88C314.27,48.82,283.45,3.7,240.41,5.14Zm4.28,29.93C261.91,36.23,275,54,271.17,70.8c-3.33,19.06-26.72,30-43.44,20.21a30.52,30.52,0,0,1-5.85-4.15C200.79,67.91,216.49,32.31,244.69,35.07Z"/><path class="cls-2" d="M298.39,57.25c3.12,9.13.12,18.83.69,28.23-1.48,2.64-.9,6.3,2.87,6.92a177.59,177.59,0,0,0,26.65,2.45c4.46.07,6.43-5.44,3.53-8.53C322.61,76.17,313.75,66,307.53,53.4,305,48.36,296.56,51.88,298.39,57.25Z"/><path class="cls-1" d="M203.8,196l1-.77m4.57-3.35c12-9.06,67.8-51,78.62-59.08h0"/><path class="cls-1" d="M182.25,243.47c.68,44.41,50.37,72.62,88.87,50.49a59.6,59.6,0,0,0,30.44-52V139.64a8.5,8.5,0,0,0-13.61-6.8c-6.64,5.09-16.82,10.62-16.22,20.33V183a5,5,0,0,1-6.62,4.67C225.93,169.61,180.81,200.44,182.25,243.47Zm29.93-4.28c1.16-17.22,18.93-30.35,35.73-26.48,19.06,3.33,30,26.72,20.21,43.44A30.52,30.52,0,0,1,264,262C245,283.09,209.42,267.39,212.18,239.19Z"/><path class="cls-2" d="M234.36,185.49c9.13-3.12,18.83-.12,28.23-.69,2.64,1.48,6.3.9,6.92-2.87A177.59,177.59,0,0,0,272,155.28c.07-4.46-5.44-6.43-8.53-3.53-10.15,9.52-20.36,18.38-32.92,24.6C225.47,178.85,229,187.32,234.36,185.49Z"/><path class="cls-1" d="M280,110.62l-1,.77m-4.57,3.35c-12.06,9.07-67.8,51-78.62,59.09h0"/><path class="cls-1" d="M301.53,63.19c-.69-44.4-50.38-72.61-88.87-50.48a59.56,59.56,0,0,0-30.44,52V167a8.5,8.5,0,0,0,13.61,6.8c6.64-5.09,16.82-10.62,16.22-20.33V123.63a5,5,0,0,1,6.62-4.67C257.84,137.06,303,106.23,301.53,63.19ZM271.6,67.47C270.43,84.7,252.67,97.82,235.87,94c-19.06-3.33-30-26.71-20.21-43.44a30,30,0,0,1,4.15-5.85C238.76,23.58,274.36,39.27,271.6,67.47Z"/><path class="cls-2" d="M249.41,121.18c-9.12,3.12-18.83.11-28.22.69-2.65-1.48-6.3-.91-6.93,2.87a177.59,177.59,0,0,0-2.45,26.65c-.06,4.45,5.45,6.43,8.54,3.53,10.15-9.52,20.35-18.38,32.92-24.6C258.31,127.82,254.79,119.35,249.41,121.18Z"/><path class="cls-1" d="M381,196l1-.77m4.57-3.35c12.06-9.06,67.8-51,78.62-59.08h0"/><path class="cls-1" d="M359.46,243.47c.69,44.41,50.38,72.62,88.87,50.49a59.58,59.58,0,0,0,30.44-52V139.64a8.5,8.5,0,0,0-13.61-6.8c-6.64,5.09-16.82,10.62-16.22,20.33V183a5,5,0,0,1-6.62,4.67C403.15,169.61,358,200.44,359.46,243.47Zm29.93-4.28c1.16-17.22,18.93-30.35,35.73-26.48,19.06,3.33,30,26.72,20.21,43.44a30.09,30.09,0,0,1-4.15,5.85C422.23,283.09,386.63,267.39,389.39,239.19Z"/><path class="cls-2" d="M411.57,185.49c9.13-3.12,18.83-.12,28.23-.69,2.64,1.48,6.3.9,6.93-2.87a178.91,178.91,0,0,0,2.45-26.65c.06-4.46-5.45-6.43-8.54-3.53-10.15,9.52-20.36,18.38-32.92,24.6C402.68,178.85,406.2,187.32,411.57,185.49Z"/><path class="cls-1" d="M457.19,110.62l-1,.77m-4.57,3.35c-12.06,9.07-67.8,51-78.62,59.09h0"/><path class="cls-1" d="M478.74,63.19c-.69-44.4-50.38-72.61-88.87-50.48a59.58,59.58,0,0,0-30.44,52V167a8.5,8.5,0,0,0,13.61,6.8c6.64-5.09,16.82-10.62,16.22-20.33V123.63a5,5,0,0,1,6.62-4.67C435.05,137.06,480.18,106.23,478.74,63.19Zm-29.93,4.28C447.65,84.7,429.88,97.82,413.08,94c-19.06-3.33-30-26.71-20.21-43.44A30.4,30.4,0,0,1,397,44.66C416,23.58,451.57,39.27,448.81,67.47Z"/><path class="cls-2" d="M426.63,121.18c-9.13,3.12-18.83.11-28.23.69-2.64-1.48-6.3-.91-6.93,2.87A178.91,178.91,0,0,0,389,151.39c-.06,4.45,5.45,6.43,8.54,3.53,10.15-9.52,20.36-18.38,32.92-24.6C435.52,127.82,432,119.35,426.63,121.18Z"/></g></g></svg>